<?xml version="1.0" standalone="no"?>
<!DOCTYPE svg PUBLIC "-//W3C//DTD SVG 1.1//EN" "http://www.w3.org/Graphics/SVG/1.1/DTD/svg11.dtd" >
<svg xmlns="http://www.w3.org/2000/svg" xmlns:xlink="http://www.w3.org/1999/xlink" version="1.1">
<metadata>
Created by FontForge 20170924 at Mon Sep 10 18:45:35 2018
 By www-data
Copyright (c) 2010 Redesign Typeworks, http://redesign.hk/. All rights reserved.
</metadata>
<defs>
<font id="RTWSYueGoTrial-Regular" horiz-adv-x="1000" vert-adv-y="1000" >
  <font-face 
    font-family="RTWS YueGothic Trial Regular"
    font-weight="400"
    font-stretch="normal"
    units-per-em="1000"
    panose-1="0 0 0 0 0 0 0 0 0 0"
    ascent="880"
    descent="-120"
    x-height="495"
    cap-height="687"
    bbox="-208 -224 2825 919"
    underline-thickness="50"
    underline-position="-200"
    unicode-range="U+0001-FFE5"
  />
<missing-glyph 
d="M286 -86v877h702v-877h-702zM637 389l279 359h-558zM665 353l279 -359v718zM358 -42h558l-279 359zM330 712v-718l279 359z" />
    <glyph glyph-name=".notdef" 
d="M286 -86v877h702v-877h-702zM637 389l279 359h-558zM665 353l279 -359v718zM358 -42h558l-279 359zM330 712v-718l279 359z" />
    <glyph glyph-name=".null" horiz-adv-x="0" vert-adv-y="0" 
 />
    <glyph glyph-name="nonmarkingreturn" horiz-adv-x="333" 
 />
    <glyph glyph-name="space" horiz-adv-x="260" 
 />
    <glyph glyph-name="space" unicode=" " horiz-adv-x="260" 
 />
    <glyph glyph-name="space" horiz-adv-x="260" 
 />
    <glyph glyph-name="space" horiz-adv-x="260" 
 />
    <glyph glyph-name="space" horiz-adv-x="260" 
 />
    <glyph glyph-name="space" horiz-adv-x="260" 
 />
    <glyph glyph-name="space" horiz-adv-x="260" 
 />
    <glyph glyph-name="space" horiz-adv-x="260" 
 />
    <glyph glyph-name="space" horiz-adv-x="260" 
 />
    <glyph glyph-name="space" horiz-adv-x="260" 
 />
    <glyph glyph-name="space" horiz-adv-x="260" 
 />
    <glyph glyph-name="space" horiz-adv-x="260" 
 />
    <glyph glyph-name="space" horiz-adv-x="260" 
 />
    <glyph glyph-name="space" horiz-adv-x="260" 
 />
    <glyph glyph-name="space" horiz-adv-x="260" 
 />
    <glyph glyph-name="space" horiz-adv-x="260" 
 />
    <glyph glyph-name="space" horiz-adv-x="260" 
 />
    <glyph glyph-name="space" horiz-adv-x="260" 
 />
    <glyph glyph-name="space" horiz-adv-x="260" 
 />
    <glyph glyph-name="space" horiz-adv-x="260" 
 />
    <glyph glyph-name="space" horiz-adv-x="260" 
 />
    <glyph glyph-name="space" horiz-adv-x="260" 
 />
    <glyph glyph-name="space" unicode="&#xa;" horiz-adv-x="260" 
 />
    <glyph glyph-name="space" horiz-adv-x="260" 
 />
    <glyph glyph-name="space" horiz-adv-x="260" 
 />
    <glyph glyph-name="space" horiz-adv-x="260" 
 />
    <glyph glyph-name="space" horiz-adv-x="260" 
 />
    <glyph glyph-name="space" horiz-adv-x="260" 
 />
    <glyph glyph-name="space" horiz-adv-x="260" 
 />
    <glyph glyph-name="space" horiz-adv-x="260" 
 />
    <glyph glyph-name="exclam" unicode="!" horiz-adv-x="216" 
d="M216 180h-68v507h68v-507zM216 1h-68v111h68v-111z" />
    <glyph glyph-name="quotedbl" unicode="&#x22;" horiz-adv-x="336" 
d="M142 716h68v-218h-68v218zM269 716h68v-218h-68v218z" />
    <glyph glyph-name="numbersign" unicode="#" horiz-adv-x="660" 
d="M142 410v68h147l34 169l66 -13l-31 -156h108l33 169l67 -13l-31 -156h125v-68h-138l-25 -123h138v-68h-151l-38 -191l-66 13l35 178h-108l-38 -191l-66 13l35 178h-120v68h133l25 123h-134zM345 410l-25 -123h108l24 123h-107z" />
    <glyph glyph-name="dollar" unicode="$" horiz-adv-x="604" 
d="M365 756h68v-96q40 -2 149 -12l-7 -68q-108 10 -142 12v-240q42 -20 68.5 -35.5t55.5 -40t43.5 -55t15.5 -68.5q2 -137 -183 -149v-92h-68v91q-77 3 -171 23l13 66q92 -18 158 -21v237q-88 41 -136.5 83t-48.5 108q-1 83 46 120t139 41v96zM248 499q0 -35 30 -61.5
t87 -53.5v208q-58 -4 -88 -25.5t-29 -67.5zM548 151q-2 67 -115 124v-203q117 9 115 79z" />
    <glyph glyph-name="percent" unicode="%" horiz-adv-x="794" 
d="M669 374q47 -2 71 -20.5t38 -57.5q16 -50 16 -117q0 -66 -16 -114q-29 -82 -129 -80q-47 2 -71.5 20.5t-37.5 58.5q-16 50 -16 116q0 70 16 114q29 82 129 80zM279 689q46 -1 71 -20.5t38 -57.5q15 -53 15 -118q0 -71 -15 -113v1q-29 -82 -130 -79q-47 1 -71 19.5
t-38 58.5v-1q-15 47 -15 117t16 114q31 84 129 79zM292 -27l-59 35l406 688l59 -35zM667 306q-50 0 -62 -35q-13 -35 -13 -91q0 -59 13 -94q5 -17 15 -24.5t31 -8.5q50 0 62 34q13 32 13 92t-13 95q-9 29 -46 32zM277 621q-49 2 -62 -35q-13 -31 -13 -90q0 -64 12 -96
q9 -29 46 -30q51 -2 63 33q12 32 12 90q0 66 -12 98q-9 29 -46 30z" />
    <glyph glyph-name="ampersand" unicode="&#x26;" horiz-adv-x="729" 
d="M621 533l65 -20l-85 -280q-18 -58 -54 -112q90 -72 187 -66l4 -68q-125 -8 -234 82q-51 -51 -112 -79.5t-119 -28.5q-71 0 -124.5 41.5t-73.5 121.5q-5 16 -5 43q0 66 40 131.5t107 101.5q-54 79 -63 128q-7 71 31.5 125t113.5 58q73 3 115.5 -40t42.5 -109
q0 -56 -34.5 -108t-101.5 -84q44 -55 88 -102q5 -6 16.5 -19.5t16.5 -19.5q32 -38 52 -58q25 36 42 82zM273 29q90 0 177 89q-26 28 -59 67l-32 37q-60 65 -102 122q-54 -26 -86.5 -76t-32.5 -101q0 -15 3 -27q13 -55 48.5 -83t83.5 -28zM222 535q3 -35 57 -110
q55 23 82.5 60t27.5 77q0 36 -23.5 59t-62.5 22q-43 -3 -65 -34.5t-16 -73.5z" />
    <glyph glyph-name="quotesingle" unicode="'" horiz-adv-x="192" 
d="M124 716h68v-218h-68v218z" />
    <glyph glyph-name="parenleft" unicode="(" horiz-adv-x="305" 
d="M266 761l59 -35q-143 -233 -143 -422q0 -191 144 -405l-57 -39q-155 233 -155 444q0 208 152 457z" />
    <glyph glyph-name="parenright" unicode=")" horiz-adv-x="305" 
d="M76 726l59 35q152 -248 152 -458q0 -211 -154 -443l-57 39q143 213 143 404t-143 423z" />
    <glyph glyph-name="asterisk" unicode="*" horiz-adv-x="464" 
d="M114 540l19 67l124 -37v139h68v-138l120 39l20 -64l-120 -40l73 -105l-57 -39l-71 104l-80 -108l-55 41l79 106q-22 6 -61.5 18t-58.5 17z" />
    <glyph glyph-name="plus" unicode="+" horiz-adv-x="572" 
d="M316 582h68v-192h192v-68h-192v-191h-68v191h-192v68h192v192z" />
    <glyph glyph-name="comma" unicode="," horiz-adv-x="214" 
d="M91 -161l-65 22l77 228l65 -22z" />
    <glyph glyph-name="hyphen" unicode="-" horiz-adv-x="332" 
d="M54 223v68h278v-68h-278z" />
    <glyph glyph-name="period" unicode="." horiz-adv-x="214" 
d="M146 85h68v-107h-68v107z" />
    <glyph glyph-name="slash" unicode="/" horiz-adv-x="354" 
d="M287 762l66 -16l-221 -878l-66 16z" />
    <glyph glyph-name="zero" unicode="0" horiz-adv-x="604" 
d="M386 693q103 -4 159 -75.5t57 -178.5v-166q1 -134 -56.5 -215t-182.5 -77q-60 2 -103.5 27.5t-68 67.5t-35.5 91.5t-11 106.5q0 25 1 75.5t1 74.5q2 125 61 199t178 70zM384 625q-83 4 -125 -52t-44 -149q0 -24 -1 -74.5t-1 -75.5q-1 -87 38.5 -151.5t113.5 -73.5
q84 1 127 63.5t42 160.5v166q-1 78 -39.5 130.5t-110.5 55.5z" />
    <glyph glyph-name="one" unicode="1" horiz-adv-x="604" 
d="M274 -4v68h129v539l-97 -30l-19 65l184 55v-629h132v-68h-329z" />
    <glyph glyph-name="two" unicode="2" horiz-adv-x="604" 
d="M200 605l-10 68q140 20 192 20q46 0 81.5 -8t65 -27t45 -53.5t16.5 -84.5q0 -33 -11 -60.5t-40 -56t-47.5 -43t-63.5 -46.5q-44 -31 -69 -50.5t-57.5 -52.5t-48.5 -70.5t-17 -80.5h339v-69h-403q-4 37 -4 62q0 46 14 88t32 71t53 61.5t57.5 49.5t64.5 47q36 25 52 37.5
t39.5 33.5t32.5 40t9 39q-1 104 -140 104q-51 0 -182 -19z" />
    <glyph glyph-name="three" unicode="3" horiz-adv-x="604" 
d="M216 4l22 64q58 -20 139 -20q92 0 134 34q49 40 49 110q0 43 -23 77t-60 39q-57 7 -150 7h-83v68h126q61 3 101 11q37 7 60 40.5t23 73.5q0 55 -44 91q-33 25 -114 25q-72 0 -164 -18l-11 67q119 19 175 19q103 0 156 -40q71 -55 71 -144q0 -45 -20 -86.5t-56 -67.5
q38 -24 59.5 -68t21.5 -94q0 -102 -74 -163q-65 -49 -177 -49q-91 0 -161 24z" />
    <glyph glyph-name="four" unicode="4" horiz-adv-x="604" 
d="M566 245v-68l-88 -1v-181h-68v181h-322v61l325 460h65v-452h88zM175 244q39 0 117 0.5t118 0.5v330z" />
    <glyph glyph-name="five" unicode="5" horiz-adv-x="604" 
d="M208 -1l21 64q63 -21 145 -21q95 0 139 34q48 41 48 117q0 33 -10 60q-29 91 -179 91q-20 0 -62 -2q-44 -2 -90 -2l36 349h340v-68h-277q-3 -27 -10.5 -96t-12.5 -116q1 0 5 0.5t6 0.5q40 2 65 2q196 0 244 -137q13 -42 13 -82q0 -111 -74 -170q-60 -49 -181 -49
q-89 0 -166 25z" />
    <glyph glyph-name="six" unicode="6" horiz-adv-x="604" 
d="M568 671l-9 -68l-23 3q-99 18 -141 18q-157 0 -172 -155q-1 -6 -1 -60q91 22 161 22q106 0 159.5 -49.5t60.5 -130.5v-39q0 -71 -16.5 -110.5t-50.5 -71.5v1q-52 -52 -156 -52q-90 0 -141 37q-81 59 -85 233v228q26 215 241 215q31 0 152 -18l-1 1zM383 363
q-67 0 -161 -26q0 -76 1 -84q2 -143 57 -182h-1q33 -24 101 -24q77 0 108 31q24 23 35.5 52t11.5 82q0 22 -1 36q-2 52 -38.5 83.5t-112.5 31.5z" />
    <glyph glyph-name="seven" unicode="7" horiz-adv-x="604" 
d="M200 618v68l441 1v-58l-284 -648l-63 27l267 611q-60 0 -180.5 -0.5t-180.5 -0.5z" />
    <glyph glyph-name="eight" unicode="8" horiz-adv-x="604" 
d="M590 506q0 -97 -72 -140q85 -53 85 -166q0 -120 -64.5 -172.5t-168.5 -52.5q-48 0 -89.5 11t-77.5 35t-56.5 67t-20.5 101q0 123 94 176q-81 45 -81 151q0 94 67 137.5t164 43.5t158.5 -44.5t61.5 -146.5zM535 200q0 68 -44 99.5t-109 34.5h-18q-71 -3 -120.5 -36.5
t-49.5 -108.5q0 -76 50.5 -111t125.5 -35q73 0 119 36.5t46 120.5zM522 506q0 123 -152 123q-69 0 -116 -27t-47 -86q0 -110 157 -114h6q152 0 152 104z" />
    <glyph glyph-name="nine" unicode="9" horiz-adv-x="604" 
d="M189 2l10 68l23 -4q79 -17 141 -17q156 0 171 154v59q-87 -21 -159 -21q-109 0 -161.5 48.5t-58.5 130.5q-1 14 -1 39q0 70 17 109.5t52 72.5q51 50 154 50q91 0 141 -37h-1q82 -57 86 -234v-135q0 -83 -1 -91v2q-21 -215 -239 -215q-59 0 -153 18l2 -1zM375 309
q65 0 159 25v85q-2 143 -57 180q-32 24 -100 24q-74 0 -108 -31q-23 -23 -34.5 -52t-11.5 -81v-36q4 -51 40.5 -82.5t111.5 -31.5z" />
    <glyph glyph-name="colon" unicode=":" horiz-adv-x="218" 
d="M150 492h68v-112h-68v112zM150 99h68v-112h-68v112z" />
    <glyph glyph-name="semicolon" unicode=";" horiz-adv-x="212" 
d="M91 488h68v-113h-68v113zM93 104l64 -20l-65 -201l-64 21z" />
    <glyph glyph-name="less" unicode="&#x3c;" horiz-adv-x="604" 
d="M511 576l44 -52l-211 -182l228 -203l-46 -52l-286 255z" />
    <glyph glyph-name="equal" unicode="=" horiz-adv-x="604" 
d="M216 401v68h388v-68h-388zM216 195v68h388v-68h-388z" />
    <glyph glyph-name="greater" unicode="&#x3e;" horiz-adv-x="604" 
d="M319 524l44 52l271 -234l-286 -255l-46 52l228 203z" />
    <glyph glyph-name="question" unicode="?" horiz-adv-x="424" 
d="M99 620l-11 68q96 15 152 15q93 0 144 -37t47 -129q-1 -29 -15 -57t-27.5 -44.5t-41.5 -46.5q-24 -25 -37.5 -41.5t-31 -44t-26 -57.5t-8.5 -65h-68q0 58 20.5 109.5t41.5 78t59 66.5q23 25 33 37t21 32t12 37q3 51 -30 72t-93 21q-52 0 -141 -14zM177 113h68v-112h-68
v112z" />
    <glyph glyph-name="at" unicode="@" horiz-adv-x="766" 
d="M580 475l-36 -317q56 10 91 41.5t43 98.5q7 47 7 80q0 211 -242 213q-51 0 -93 -10t-68.5 -27t-46 -38t-29 -41.5t-15.5 -37.5t-7 -28l-1 -11l-18 -191q0 -5 -0.5 -12.5t2.5 -30.5t10.5 -43.5t26 -46t45.5 -43.5t72.5 -30.5t103.5 -12.5q45 0 106 9l11 -68
q-62 -9 -117 -9q-70 0 -125.5 16.5t-89 42.5t-57.5 57t-34.5 62.5t-16 57.5t-5.5 42v17q2 31 9 94.5t9 93.5v-1q0 5 1 14.5t8.5 36.5t19.5 51.5t37.5 54t58.5 51t86 35.5t117 14q92 -1 156 -24.5t96 -66t45 -88t13 -102.5q0 -44 -7 -89q-6 -39 -18.5 -70t-27.5 -51.5
t-39 -36t-44 -24t-51 -14t-52.5 -7.5t-54.5 -4l-37 -2q-50 -2 -85 11.5t-51.5 38t-23 47t-6.5 46.5q0 8 1 19l1 11l16 123q15 118 173 118q24 0 57.5 -5t54.5 -9zM458 150q10 0 16 1l31 271q-32 4 -58 4q-95 0 -105 -59l-16 -121q-2 -10 -2 -23q0 -81 95 -75z" />
    <glyph glyph-name="A" unicode="A" horiz-adv-x="632" 
d="M130 -14l-64 24l255 690h58l253 -693l-64 -24l-87 238h-264zM350 579q-35 -97 -107 -289h213z" />
    <glyph glyph-name="B" unicode="B" horiz-adv-x="566" 
d="M152 688h40q70 5 115 5q147 0 208 -49v1q69 -53 69 -144q0 -89 -59 -142q80 -54 80 -166q0 -59 -25.5 -109.5t-70.5 -73.5q-54 -27 -157 -27q-34 0 -104 4l-28 2v-1h-68v700zM430 321h-210v-265l32 -1q70 -4 100 -4q82 0 125 20q26 16 43 50t17 72q0 47 -28.5 84.5
t-78.5 43.5zM307 625q-43 0 -87 -4v-232h212q37 3 60.5 36t23.5 76q0 58 -41 89q-48 35 -168 35z" />
    <glyph glyph-name="C" unicode="C" horiz-adv-x="521" 
d="M551 681l-6 -68q-73 7 -128 7q-158 0 -193 -91q-29 -84 -29 -198q0 -128 34 -206q33 -72 192 -72q41 0 119 6l6 -68q-80 -6 -125 -6q-198 0 -254 113q-41 98 -41 233q0 132 34 222q19 53 60.5 84t88 41t108.5 10q59 0 134 -7z" />
    <glyph glyph-name="D" unicode="D" horiz-adv-x="603" 
d="M628 340q0 -104 -17.5 -174.5t-54.5 -110.5t-87 -56.5t-121 -16.5q-57 0 -190 19v674q109 10 183 10q78 0 128 -13.5t88 -51t54.5 -105.5t16.5 -175zM560 340q0 85 -12.5 140t-41.5 85t-67.5 41t-97.5 11q-55 0 -115 -4v-553q75 -10 122 -10q109 0 160.5 63t51.5 227z
" />
    <glyph glyph-name="E" unicode="E" horiz-adv-x="509" 
d="M522 693v-68h-213q-50 0 -79.5 -34.5t-28.5 -96.5v-116h330v-68h-330v-151q1 -55 29 -84t73 -29h215v-68h-215q-74 0 -121 46t-49 133v336q-2 94 46 147t130 53h213z" />
    <glyph glyph-name="F" unicode="F" horiz-adv-x="503" 
d="M526 693v-68h-213q-50 0 -79.5 -34.5t-28.5 -95.5v-116h327v-68h-327v-323h-68v507q-1 94 47 146t129 52h213z" />
    <glyph glyph-name="G" unicode="G" horiz-adv-x="574" 
d="M552 686l-3 -68q-5 0 -14.5 0.5t-17 1t-14.5 1.5q-90 9 -120 9q-146 0 -185 -94q-30 -87 -30 -198q0 -120 30 -204v1q33 -91 181 -91q51 0 103 11q0 48 0.5 143t0.5 144h68l-1 -342q-106 -24 -171 -24q-196 0 -245 135q-34 96 -34 227q0 128 34 222q52 138 249 138
q38 0 126 -9z" />
    <glyph glyph-name="H" unicode="H" horiz-adv-x="641" 
d="M577 687h68v-702h-68v335h-357v-335h-68v702h68v-299h357v299z" />
    <glyph glyph-name="I" unicode="I" horiz-adv-x="217" 
d="M150 687h68v-702h-68v702z" />
    <glyph glyph-name="J" unicode="J" horiz-adv-x="284" 
d="M0 -32v68h16q22 0 34 0.5t29 4.5t25.5 12t15 23.5t6.5 38.5v556h69v-556q0 -35 -6 -61.5t-20.5 -42t-28 -25t-38 -13t-40.5 -4.5t-46 -1h-16z" />
    <glyph glyph-name="K" unicode="K" horiz-adv-x="531" 
d="M579 17l-52 -46l-299 332v-317h-68v701h68v-320l287 307l50 -46l-274 -292z" />
    <glyph glyph-name="L" unicode="L" horiz-adv-x="486" 
d="M524 54v-68h-213q-76 0 -120.5 33.5t-44.5 125.5v552h68v-552q0 -53 26 -72t71 -19h213z" />
    <glyph glyph-name="M" unicode="M" horiz-adv-x="726" 
d="M728 -5h-68l-1 562l-193 -298h-51l-193 299q0 -94 1 -281.5t1 -281.5h-68l-2 700h61l225 -351l227 351h60z" />
    <glyph glyph-name="N" unicode="N" horiz-adv-x="647" 
d="M577 696h68v-705h-71l-356 567q0 -94 0.5 -282t0.5 -281h-69v704h59l367 -585q0 97 0.5 291t0.5 291z" />
    <glyph glyph-name="O" unicode="O" horiz-adv-x="660" 
d="M420 696q156 -6 206 -133q34 -91 34 -225q0 -133 -36 -224l1 1q-29 -74 -94 -106.5t-146 -30.5q-157 6 -207 133q-34 91 -34 225q0 133 36 224l-1 -1q29 74 94.5 107t146.5 30zM419 628q-60 2 -108.5 -20.5t-67.5 -73.5q-31 -78 -31 -198q0 -115 31 -201q33 -84 143 -89
q60 -2 107.5 20.5t66.5 72.5q32 79 32 199q0 115 -31 201q-33 84 -142 89z" />
    <glyph glyph-name="P" unicode="P" horiz-adv-x="562" 
d="M218 -5h-68v689h38q22 1 66 5q76 6 111 6q80 0 132 -26q43 -25 69.5 -78.5t26.5 -111.5q0 -54 -24 -103t-68 -77q-63 -35 -172 -35q-3 0 -87 3q-5 0 -13 0.5t-11 0.5v-273zM260 621l-42 -4v-281q4 0 13.5 -0.5t14.5 -0.5q78 -3 83 -3q94 0 137 26q29 17 44 50t15 71
q0 43 -16 78.5t-45 50.5q-34 19 -99 19q-31 0 -105 -6z" />
    <glyph glyph-name="Q" unicode="Q" horiz-adv-x="634" 
d="M641 -16l-50 -46l-72 79q-52 -35 -132 -38q-78 -3 -144 30.5t-95 106.5q-32 93 -32 209q0 137 38 238q49 128 205 133h1q79 3 144.5 -30.5t94.5 -107.5q32 -91 32 -211q0 -136 -38 -237q-12 -29 -25 -46zM361 628h1q-112 -5 -145 -89q-33 -85 -33 -214q0 -110 28 -185
q19 -51 66.5 -73t106.5 -20q51 2 87 21l-108 119l50 46l107 -118q6 11 10 21l-1 -1q33 88 33 212q0 115 -29 187q-18 52 -65.5 74.5t-107.5 19.5z" />
    <glyph glyph-name="R" unicode="R" horiz-adv-x="581" 
d="M220 -18h-68v705h32l50 3q68 4 101 4q104 0 163 -30q45 -23 71 -74t26 -110q0 -51 -24.5 -99.5t-67.5 -74.5q-27 -13 -59 -21l171 -272l-57 -37l-186 297q-15 -1 -43 -1q-4 0 -85 3q-5 0 -13 0.5t-11 0.5v-294zM238 622l-18 -1v-277q4 0 13.5 -0.5t14.5 -0.5q50 -2 81 -2
q98 0 141 24q57 32 57 115q0 36 -17.5 71.5t-42.5 52.5q-47 22 -132 22q-29 0 -97 -4z" />
    <glyph glyph-name="S" unicode="S" horiz-adv-x="550" 
d="M530 682l-11 -68q-101 15 -158 15q-164 0 -169 -108q-1 -25 10.5 -46t36.5 -39.5t47 -30.5t59 -29q40 -20 59 -30t48.5 -29.5t47.5 -40.5t29 -47q19 -46 19 -84q0 -76 -61 -123t-184 -47q-69 0 -160 18l13 66q90 -16 147 -16q89 0 133 28t44 74q0 25 -13 59q-9 21 -36 43
t-50 34.5t-65 33.5q-86 43 -138.5 92t-53.5 118q12 172 237 172q68 0 169 -15z" />
    <glyph glyph-name="T" unicode="T" horiz-adv-x="590" 
d="M104 612v68h486v-68h-211v-628h-68v628h-207z" />
    <glyph glyph-name="U" unicode="U" horiz-adv-x="610" 
d="M544 698h69v-488q6 -104 -62.5 -162.5t-166.5 -58.5q-96 0 -165 57t-69 159v496h68v-496q0 -70 49 -109t117 -39q63 0 111.5 41.5t49.5 107.5q-1 18 -1 492z" />
    <glyph glyph-name="V" unicode="V" horiz-adv-x="642" 
d="M74 676l64 24l220 -589q200 538 219 592l64 -24l-253 -687h-59z" />
    <glyph glyph-name="W" unicode="W" horiz-adv-x="786" 
d="M723 698l66 -13l-135 -688h-58l-161 398l-160 -398h-59l-130 690l66 12l106 -563l148 367h59l147 -367z" />
    <glyph glyph-name="X" unicode="X" horiz-adv-x="583" 
d="M516 690l57 -36l-207 -310l214 -321l-57 -36l-197 296l-197 -296l-57 36l213 321l-206 310l57 36l190 -285z" />
    <glyph glyph-name="Y" unicode="Y" horiz-adv-x="538" 
d="M76 661l61 31l174 -329l172 331l61 -32l-199 -383v-284h-68v286z" />
    <glyph glyph-name="Z" unicode="Z" horiz-adv-x="569" 
d="M573 59v-68h-475v66l352 556h-349v68h436v-59l-358 -563h394z" />
    <glyph glyph-name="bracketleft" unicode="[" horiz-adv-x="310" 
d="M365 758v-68h-121v-751h121v-68h-189v887h189z" />
    <glyph glyph-name="backslash" unicode="\" horiz-adv-x="354" 
d="M66 746l66 16l221 -878l-66 -16z" />
    <glyph glyph-name="bracketright" unicode="]" horiz-adv-x="309" 
d="M68 690v68h189v-887h-189v68h121v751h-121z" />
    <glyph glyph-name="asciicircum" unicode="^" horiz-adv-x="464" 
d="M174 529l-48 48l149 148h49l142 -150l-49 -47l-120 124z" />
    <glyph glyph-name="underscore" unicode="_" horiz-adv-x="293" 
d="M-44 -147v68h340v-68h-340z" />
    <glyph glyph-name="grave" unicode="`" horiz-adv-x="278" 
d="M74 731l55 38l112 -161l-55 -38z" />
    <glyph glyph-name="a" unicode="a" horiz-adv-x="469" 
d="M102 430l-11 66q92 16 153 16q89 0 140 -34t50 -117q0 -62 -0.5 -188t-0.5 -189h-68v21q-79 -33 -147 -33q-59 0 -94 27q-64 48 -64 129q0 56 33.5 104t83.5 60q65 13 140 13q33 0 49 -1v57q1 45 -32 64t-90 19q-48 0 -142 -14zM218 40q75 0 147 40v156q-7 0 -23 0.5
t-25 0.5q-72 0 -125 -12q-27 -6 -45.5 -34.5t-18.5 -62.5q0 -46 36 -76q16 -12 54 -12z" />
    <glyph glyph-name="b" unicode="b" horiz-adv-x="504" 
d="M142 685h68v-178q20 2 29 4q81 6 87 6q76 0 121 -33q42 -31 64 -95.5t22 -139.5q0 -70 -20.5 -133t-54.5 -92q-57 -42 -152 -42q-60 0 -124 11h-40v692zM246 443q-28 -4 -36 -5v-381q54 -7 96 -7q76 0 112 27q22 17 34.5 65t12.5 107q0 135 -58 180q-30 20 -81 20
q-13 0 -44 -3t-36 -3z" />
    <glyph glyph-name="c" unicode="c" horiz-adv-x="442" 
d="M442 52l17 -66q-61 -16 -127 -16q-96 0 -151 44q-32 27 -51.5 90.5t-19.5 135.5q0 73 20.5 137t59.5 96q55 39 135 39q58 0 134 -18l-15 -66q-68 16 -119 16q-62 0 -92 -25q-55 -42 -55 -179q0 -59 12 -108t33 -66q33 -28 109 -28q50 0 110 14z" />
    <glyph glyph-name="d" unicode="d" horiz-adv-x="507" 
d="M411 685h68v-692h-40q-66 -11 -124 -11q-95 0 -152 42q-34 29 -54.5 92t-20.5 133q0 75 22 139.5t64 95.5q45 33 121 33q6 0 87 -6q9 -2 29 -4v178zM315 50q42 0 96 7v381q-12 1 -36 5q-5 0 -36 3t-44 3q-51 0 -81 -20q-58 -45 -58 -180q0 -59 12.5 -107t34.5 -65
q36 -27 112 -27z" />
    <glyph glyph-name="e" unicode="e" horiz-adv-x="522" 
d="M486 57l9 -68l-22 -4q-112 -17 -147 -17q-40 0 -73 6.5t-65 25t-53 48.5t-33 79t-11 114q2 75 23.5 138t62.5 95q57 37 133 37q90 0 138 -47q71 -71 65 -253h-354q7 -175 167 -175q49 0 135 15q6 1 15 3.5t10 2.5zM215 418q-44 -30 -54 -138h286q-1 92 -47 136v-1
q-29 28 -90 28q-59 0 -95 -25z" />
    <glyph glyph-name="f" unicode="f" horiz-adv-x="381" 
d="M78 436v68h113v55q0 86 38.5 117.5t106.5 31.5q36 0 53 -2l-8 -68q-32 2 -45 2q-36 0 -56.5 -17t-20.5 -64v-55h125v-68h-125v-453h-68v453h-113z" />
    <glyph glyph-name="g" unicode="g" horiz-adv-x="529" 
d="M511 319q-6 -81 -62 -117t-137 -36q-60 0 -114 18q-27 -14 -27 -30q0 -14 26 -28t77 -25q90 -18 138 -37q53 -22 80.5 -57.5t27.5 -74.5q0 -55 -48 -99t-123 -48h1q-10 -1 -33 -1q-112 0 -169.5 48.5t-57.5 117.5q0 73 58 128q-45 32 -45 76q0 37 33 68q-38 43 -38 108
q0 46 21.5 84.5t61.5 54.5q58 22 117 25v1l230 1v-68h-42q29 -42 25 -109zM443 325q4 53 -32 77.5t-92 24.5t-112 -20q-18 -10 -29.5 -31.5t-11.5 -45.5q0 -60 39 -77q48 -19 107 -19q53 0 90.5 21.5t40.5 69.5zM261 35q-27 5 -43 10q-60 -34 -60 -95q0 -41 40 -69.5
t119 -28.5q18 0 28 1q47 4 77 27t30 52q0 43 -66 69q-51 20 -125 34z" />
    <glyph glyph-name="h" unicode="h" horiz-adv-x="531" 
d="M527 -4h-68v317q0 120 -127 120q-48 0 -126 -16l-4 -1v-429h-68v697h68v-199q90 17 130 17q195 0 195 -189v-317z" />
    <glyph glyph-name="i" unicode="i" horiz-adv-x="231" 
d="M162 498h68v-511h-68v511zM162 693h68v-112h-68v112z" />
    <glyph glyph-name="j" unicode="j" horiz-adv-x="238" 
d="M-78 -224v69h18q21 0 32 0.5t27.5 4.5t24 11.5t14 22t6.5 36.5v562h68v-562q0 -42 -10.5 -70.5t-23.5 -42.5t-40 -21.5t-45 -8.5t-53 -1h-18zM42 685h68v-112h-68v112z" />
    <glyph glyph-name="k" unicode="k" horiz-adv-x="481" 
d="M534 19l-48 -50l-246 239v-221h-68v703h68v-385l236 219l46 -50l-233 -216z" />
    <glyph glyph-name="l" unicode="l" horiz-adv-x="244" 
d="M176 691h68v-702h-68v702z" />
    <glyph glyph-name="m" unicode="m" horiz-adv-x="762" 
d="M490 -12h-68v353q0 98 -63 98q-50 0 -139 -46v-405h-68v513h68v-32q82 38 139 38q67 0 101 -46q99 47 166 47q137 0 137 -167v-353h-68v353q0 99 -69 99q-55 0 -141 -42q5 -28 5 -57v-353z" />
    <glyph glyph-name="n" unicode="n" horiz-adv-x="547" 
d="M152 501h68v-36q104 42 175 42q150 0 150 -166v-353h-68v353q0 98 -82 98q-62 0 -174 -48l-1 -1v-402h-68v513z" />
    <glyph glyph-name="o" unicode="o" horiz-adv-x="545" 
d="M343 508q127 -5 170 -102q29 -73 29 -168t-29 -164q-46 -106 -200 -104q-130 6 -171 101q-28 70 -28 168q0 97 28 165q48 106 201 104zM341 440q-108 2 -136 -63v1q-23 -53 -23 -139q0 -87 23 -142v1q23 -55 110 -60q43 -1 81 15.5t54 48.5q24 58 24 136q0 82 -24 143v-1
q-25 58 -109 60z" />
    <glyph glyph-name="p" unicode="p" horiz-adv-x="509" 
d="M218 -204h-68v691h34q75 12 130 12q94 0 152 -42q34 -27 54.5 -90t20.5 -135q0 -75 -22 -139.5t-64 -95.5q-45 -33 -121 -33q-6 0 -87 6q-9 2 -29 4v-178zM314 431q-46 0 -96 -8v-381l36 -4q5 0 36 -3t44 -3q51 0 81 20q58 45 58 180q0 59 -13 107t-35 65q-36 27 -111 27
z" />
    <glyph glyph-name="q" unicode="q" horiz-adv-x="509" 
d="M452 486h29v-690h-68v178q-20 -2 -29 -4q-81 -6 -87 -6q-76 0 -121 33q-42 31 -64 95.5t-22 139.5q0 72 20.5 135t54.5 90q58 42 152 42q62 0 135 -13zM377 38l36 4v381q-50 8 -96 8q-75 0 -111 -27q-22 -17 -35 -65t-13 -107q0 -135 58 -180q30 -20 81 -20q13 0 44 3
t36 3z" />
    <glyph glyph-name="r" unicode="r" horiz-adv-x="342" 
d="M228 -15h-68v513h68v-40q75 45 163 48l2 -68q-91 -3 -165 -64v-389z" />
    <glyph glyph-name="s" unicode="s" horiz-adv-x="466" 
d="M454 496l-6 -68l-31 2q-82 10 -129 10t-71.5 -13t-26.5 -48q-1 -15 7 -29.5t27.5 -28t35 -23t43.5 -23.5q39 -20 61 -33t49.5 -36t39.5 -50.5t10 -61.5q-7 -125 -187 -125q-64 0 -162 19l13 66q89 -16 149 -16q115 0 119 59q1 19 -8 35t-31 32t-37 24.5t-47 25.5
q-41 22 -59.5 33t-45 33t-37 47t-8.5 56q4 71 46 98.5t120 27.5q39 0 136 -11z" />
    <glyph glyph-name="t" unicode="t" horiz-adv-x="385" 
d="M76 439v68h113v102h68v-102h124v-68h-124v-338q-1 -47 19.5 -64t56.5 -17q14 0 46 2l7 -68q-32 -2 -53 -2q-69 0 -107 31.5t-37 117.5v338h-113z" />
    <glyph glyph-name="u" unicode="u" horiz-adv-x="543" 
d="M545 -18h-68v36q-112 -42 -175 -42q-150 0 -150 166v353h68v-353q0 -98 82 -98q67 0 174 47h1v404h68v-513z" />
    <glyph glyph-name="v" unicode="v" horiz-adv-x="495" 
d="M64 480l64 24l150 -403l150 405l64 -24l-185 -504h-56z" />
    <glyph glyph-name="w" unicode="w" horiz-adv-x="729" 
d="M661 502l66 -16l-129 -508h-56l-151 367l-148 -367h-58l-123 510l66 16l95 -395l140 345h58l140 -344z" />
    <glyph glyph-name="x" unicode="x" horiz-adv-x="507" 
d="M448 508l55 -41l-168 -222l174 -231l-55 -41l-162 215l-161 -215l-55 41l174 231l-167 222l55 41l155 -206z" />
    <glyph glyph-name="y" unicode="y" horiz-adv-x="483" 
d="M80 475l64 24l155 -406l122 403l64 -20l-169 -558q-42 -127 -160 -127q-16 0 -38.5 2t-28.5 2l5 68q9 0 31.5 -2t30.5 -2q34 0 57.5 17t38.5 62l14 48z" />
    <glyph glyph-name="z" unicode="z" horiz-adv-x="466" 
d="M471 45v-68h-393v61l279 398h-270v68h360l1 -55l-283 -404h306z" />
    <glyph glyph-name="braceleft" unicode="{" horiz-adv-x="309" 
d="M286 759v-68h-15q-32 0 -46.5 -1t-30.5 -7.5t-22 -22.5t-6 -43v-163q0 -87 -54 -131q54 -44 54 -140v-165q0 -41 18.5 -61t76.5 -20q18 0 29 1l5 -68q-11 -1 -34 -1q-100 0 -131.5 37t-31.5 112v165q0 76 -68 111v59q36 19 52 42t16 59v163q0 31 3.5 53.5t11 38t18 25.5
t25 15t32 7.5t38.5 2.5h45h15z" />
    <glyph glyph-name="bar" unicode="|" horiz-adv-x="248" 
d="M180 754h68v-878h-68v878z" />
    <glyph glyph-name="braceright" unicode="}" horiz-adv-x="309" 
d="M59 691v68h15h45t38.5 -2.5t32 -7.5t25 -15t18 -25.5t11 -38t3.5 -53.5v-163q0 -36 16 -59t52 -42v-59q-68 -35 -68 -111v-165q0 -75 -31.5 -112t-131.5 -37q-23 0 -34 1l5 68q11 -1 29 -1q58 0 76.5 20t18.5 61v165q0 96 53 140q-53 44 -53 131v163q0 27 -6 43t-22 22.5
t-30.5 7.5t-46.5 1h-15z" />
    <glyph glyph-name="asciitilde" unicode="~" horiz-adv-x="503" 
d="M148 329l-68 -4q-4 70 27 114.5t84 44.5q43 0 87 -35l75 -59q21 -16 43 -16q39 0 33 95l68 3q6 -89 -23.5 -127.5t-77.5 -38.5q-42 0 -86 31l-74 59q-26 20 -45 20q-21 0 -33 -24.5t-10 -62.5z" />
    <glyph glyph-name="yen" unicode="&#xa5;" horiz-adv-x="604" 
d="M171 667l61 31l152 -293l152 294l60 -31l-152 -296h159v-68h-185v-100h185v-68h-185v-144h-68v144h-186v68h186v100h-186v68h160z" />
    <glyph glyph-name="copyright" unicode="&#xa9;" horiz-adv-x="750" 
d="M433 589q-103 0 -176 -72.5t-73 -176.5q0 -103 72.5 -175.5t176.5 -72.5t176.5 72.5t72.5 175.5q0 104 -73 176.5t-176 72.5zM433 657q131 0 224 -93t93 -224t-93 -223.5t-224 -92.5t-224 92.5t-93 223.5t93 224t224 93zM525 225l29 -61q-57 -27 -117 -27
q-81 0 -133.5 50.5t-49.5 158.5q2 102 53.5 146.5t129.5 44.5q57 0 115 -21l-24 -65q-50 18 -91 18q-49 0 -81.5 -29t-33.5 -95q-1 -73 31.5 -106.5t83.5 -33.5q46 0 88 20z" />
    <glyph glyph-name="degree" unicode="&#xb0;" horiz-adv-x="342" 
d="M201 695q-30 0 -50.5 -20.5t-20.5 -50.5t20.5 -51t50.5 -21t51 21t21 51t-21 50.5t-51 20.5zM201 763q58 0 99 -41t41 -98t-41 -98.5t-99 -41.5q-57 0 -98 41.5t-41 98.5t41 98t98 41z" />
    <glyph glyph-name="periodcentered" unicode="&#xb7;" horiz-adv-x="400" 
d="M332 422h68v-112h-68v112z" />
    <glyph glyph-name="periodcentered" unicode="&#x30fb;" horiz-adv-x="400" 
d="M332 422h68v-112h-68v112z" />
    <glyph glyph-name="periodcentered" unicode="&#x2022;" horiz-adv-x="400" 
d="M332 422h68v-112h-68v112z" />
    <glyph glyph-name="endash" unicode="&#x2013;" horiz-adv-x="700" 
d="M236 330v68h463v-68h-463z" />
    <glyph glyph-name="emdash" unicode="&#x2014;" 
d="M80 330v68h920v-68h-920z" />
    <glyph glyph-name="quoteleft" unicode="&#x2018;" 
d="M1643 820l64 -20l-65 -200l-64 20z" />
    <glyph glyph-name="quoteright" unicode="&#x2019;" 
d="M207 820l64 -20l-65 -200l-64 20z" />
    <glyph glyph-name="quotedblleft" unicode="&#x201c;" 
d="M1355 820l64 -20l-65 -200l-64 20zM1493 820l64 -20l-65 -200l-64 20z" />
    <glyph glyph-name="quotedblright" unicode="&#x201d;" 
d="M219 820l64 -20l-65 -200l-64 20zM357 820l64 -20l-65 -200l-64 20z" />
    <glyph glyph-name="ellipsis" unicode="&#x2026;" 
d="M320 418h68v-108h-68v108zM626 418h68v-108h-68v108zM932 418h68v-108h-68v108z" />
    <glyph glyph-name="ellipsis" unicode="&#x22ef;" 
d="M320 418h68v-108h-68v108zM626 418h68v-108h-68v108zM932 418h68v-108h-68v108z" />
    <glyph glyph-name="cid599" unicode="&#x205d;" 
d="M968 720v-68h-108v68h108zM968 414v-68h-108v68h108zM968 108v-68h-108v68h108z" />
    <glyph glyph-name="cid599" unicode="&#xfe19;" 
d="M968 720v-68h-108v68h108zM968 414v-68h-108v68h108zM968 108v-68h-108v68h108z" />
    <glyph glyph-name="cid599" unicode="&#xe796;" 
d="M968 720v-68h-108v68h108zM968 414v-68h-108v68h108zM968 108v-68h-108v68h108z" />
    <glyph glyph-name="Euro" unicode="&#x20ac;" horiz-adv-x="604" 
d="M154 390v68h73q10 62 26 103q53 136 203 136q62 0 150 -22l-17 -67q-92 21 -133 21q-102 0 -138 -92q-13 -35 -21 -79h251v-68h-260q-2 -18 -2 -54q0 -28 1 -42h261v-68h-254q10 -53 24 -89q38 -93 158 -93q59 0 118 19l20 -65q-74 -22 -138 -22q-166 0 -221 136
q-21 52 -30 114h-71v68h65q-1 14 -1 42q0 36 1 54h-65z" />
    <glyph glyph-name="Euro" unicode="&#xe76c;" horiz-adv-x="604" 
d="M154 390v68h73q10 62 26 103q53 136 203 136q62 0 150 -22l-17 -67q-92 21 -133 21q-102 0 -138 -92q-13 -35 -21 -79h251v-68h-260q-2 -18 -2 -54q0 -28 1 -42h261v-68h-254q10 -53 24 -89q38 -93 158 -93q59 0 118 19l20 -65q-74 -22 -138 -22q-166 0 -221 136
q-21 52 -30 114h-71v68h65q-1 14 -1 42q0 36 1 54h-65z" />
    <glyph glyph-name="trademark" unicode="&#x2122;" horiz-adv-x="790" 
d="M806 422h-68v166l-90 -166h-51l-90 166v-166h-68v328h60l123 -228l124 228h60v-328zM142 683v68h261v-68h-96v-263h-69v263h-96z" />
    <glyph glyph-name="cid4162" unicode="&#x2f00;" 
d="M120 358v68h879v-68h-879z" />
    <glyph glyph-name="cid4162" unicode="&#x4e00;" 
d="M120 358v68h879v-68h-879z" />
    <glyph glyph-name="cid4707" unicode="&#x2f01;" 
d="M932 790h68v-859h-68v859z" />
    <glyph glyph-name="cid4707" unicode="&#x4e28;" 
d="M932 790h68v-859h-68v859z" />
    <glyph glyph-name="cid4722" unicode="&#x2f02;" 
d="M1000 319h-68v180h68v-180z" />
    <glyph glyph-name="cid4722" unicode="&#x4e36;" 
d="M1000 319h-68v180h68v-180z" />
    <glyph glyph-name="cid4709" unicode="&#x2f03;" 
d="M741 -82l-53 43q215 270 244 841l68 -4q-33 -594 -259 -880z" />
    <glyph glyph-name="cid4709" unicode="&#x4e3f;" 
d="M741 -82l-53 43q215 270 244 841l68 -4q-33 -594 -259 -880z" />
    <glyph glyph-name="cid4185" unicode="&#x2f04;" 
d="M932 200h68v-152q0 -44 -32 -76t-76 -32h-748l636 759h-608v68h753l-635 -759h602q16 0 28 12t12 28v152z" />
    <glyph glyph-name="cid4185" unicode="&#x4e59;" 
d="M932 200h68v-152q0 -44 -32 -76t-76 -32h-748l636 759h-608v68h753l-635 -759h602q16 0 28 12t12 28v152z" />
    <glyph glyph-name="cid1597" unicode="&#x2f06;" 
d="M120 -33v68h879v-68h-879zM150 676v68h816v-68h-816z" />
    <glyph glyph-name="cid1597" unicode="&#x4e8c;" 
d="M120 -33v68h879v-68h-879zM150 676v68h816v-68h-816z" />
    <glyph glyph-name="cid4867" unicode="&#x2f07;" 
d="M520 853h68v-81h412v-69h-904v69h424v81z" />
    <glyph glyph-name="cid4867" unicode="&#x4ea0;" 
d="M520 853h68v-81h412v-69h-904v69h424v81z" />
    <glyph glyph-name="cid3238" unicode="&#x2f08;" 
d="M513 793l68 -11q-17 -103 -40 -194l458 -633l-56 -40l-426 590q-114 -357 -382 -596l-45 52q181 160 281 365.5t142 466.5z" />
    <glyph glyph-name="cid3238" unicode="&#x4eba;" 
d="M513 793l68 -11q-17 -103 -40 -194l458 -633l-56 -40l-426 590q-114 -357 -382 -596l-45 52q181 160 281 365.5t142 466.5z" />
    <glyph glyph-name="cid1592" unicode="&#x2f09;" 
d="M327 822h68v-391q0 -185 -49 -301t-185 -221l-43 53q123 94 166 198t43 271v391zM1000 -24v-68h-204q-52 0 -89 36.5t-37 88.5v792h68v-792q0 -23 17 -40t41 -17h204z" />
    <glyph glyph-name="cid1592" unicode="&#x513f;" 
d="M327 822h68v-391q0 -185 -49 -301t-185 -221l-43 53q123 94 166 198t43 271v391zM1000 -24v-68h-204q-52 0 -89 36.5t-37 88.5v792h68v-792q0 -23 17 -40t41 -17h204z" />
    <glyph glyph-name="cid3270" unicode="&#x2f0a;" 
d="M366 771l58 39l575 -860l-58 -39l-390 583q-143 -335 -415 -580l-46 51q276 247 415 597z" />
    <glyph glyph-name="cid3270" unicode="&#x5165;" 
d="M366 771l58 39l575 -860l-58 -39l-390 583q-143 -335 -415 -580l-46 51q276 247 415 597z" />
    <glyph glyph-name="cid982" unicode="&#x2f0b;" 
d="M288 761l68 -4q-21 -485 -203 -843l-61 31q177 347 196 816zM704 763l66 18l230 -852l-67 -18z" />
    <glyph glyph-name="cid982" unicode="&#x516b;" 
d="M288 761l68 -4q-21 -485 -203 -843l-61 31q177 347 196 816zM704 763l66 18l230 -852l-67 -18z" />
    <glyph glyph-name="cid4765" unicode="&#x2f0c;" 
d="M275 -95h-69v766q0 52 37.5 89t89.5 37h541q52 0 89 -37t37 -89v-638q0 -52 -37 -89t-89 -37h-72v68h72q24 0 40.5 16.5t16.5 41.5v638q0 24 -16.5 41t-40.5 17h-541q-25 0 -41.5 -17t-16.5 -41v-766z" />
    <glyph glyph-name="cid4765" unicode="&#x5182;" 
d="M275 -95h-69v766q0 52 37.5 89t89.5 37h541q52 0 89 -37t37 -89v-638q0 -52 -37 -89t-89 -37h-72v68h72q24 0 40.5 16.5t16.5 41.5v638q0 24 -16.5 41t-40.5 17h-541q-25 0 -41.5 -17t-16.5 -41v-766z" />
    <glyph glyph-name="cid4884" unicode="&#x2f0d;" 
d="M208 240h-68v90q0 52 37 89t89 37h607q52 0 89 -37t37 -89v-90h-68v90q0 24 -17 41t-41 17h-607q-24 0 -41 -17t-17 -41v-90z" />
    <glyph glyph-name="cid4884" unicode="&#x5196;" 
d="M208 240h-68v90q0 52 37 89t89 37h607q52 0 89 -37t37 -89v-90h-68v90q0 24 -17 41t-41 17h-607q-24 0 -41 -17t-17 -41v-90z" />
    <glyph glyph-name="cid4879" unicode="&#x2f0e;" 
d="M886 742h68v-173h-68v173zM934 391l65 -23l-128 -385l-65 22z" />
    <glyph glyph-name="cid4879" unicode="&#x51ab;" 
d="M886 742h68v-173h-68v173zM934 391l65 -23l-128 -385l-65 22z" />
    <glyph glyph-name="cid2091" unicode="&#x2f0f;" 
d="M220 -83l-68 9l106 752q7 52 41 86.5t85 34.5h337q53 0 89.5 -37t36.5 -89v-638q0 -24 17 -41t41 -17h95v-68h-95q-52 0 -89 37t-37 89v638q0 24 -16.5 41t-41.5 17h-337q-23 0 -39 -18t-19 -44z" />
    <glyph glyph-name="cid2091" unicode="&#x51e0;" 
d="M220 -83l-68 9l106 752q7 52 41 86.5t85 34.5h337q53 0 89.5 -37t36.5 -89v-638q0 -24 17 -41t41 -17h95v-68h-95q-52 0 -89 37t-37 89v638q0 24 -16.5 41t-41.5 17h-337q-23 0 -39 -18t-19 -44z" />
    <glyph glyph-name="cid5017" unicode="&#x2f10;" 
d="M178 754h68v-694q0 -24 17 -41t41 -17h570q24 0 41 17t17 41v694h68v-694q0 -53 -37 -89.5t-89 -36.5h-570q-52 0 -89 36.5t-37 89.5v694z" />
    <glyph glyph-name="cid5017" unicode="&#x51f5;" 
d="M178 754h68v-694q0 -24 17 -41t41 -17h570q24 0 41 17t17 41v694h68v-694q0 -53 -37 -89.5t-89 -36.5h-570q-52 0 -89 36.5t-37 89.5v694z" />
    <glyph glyph-name="cid1431" unicode="&#x2f11;" 
d="M715 -82v68h160q24 0 40.5 17t16.5 40v631q0 24 -16.5 41t-40.5 17h-413q-37 -523 -222 -828l-58 35q175 291 212 793h-205v68h686q51 0 88 -37t37 -89v-631q0 -51 -37 -88t-88 -37h-160z" />
    <glyph glyph-name="cid1431" unicode="&#x5200;" 
d="M715 -82v68h160q24 0 40.5 17t16.5 40v631q0 24 -16.5 41t-40.5 17h-413q-37 -523 -222 -828l-58 35q175 291 212 793h-205v68h686q51 0 88 -37t37 -89v-631q0 -51 -37 -88t-88 -37h-160z" />
    <glyph glyph-name="cid2543" unicode="&#x2f12;" 
d="M420 821l68 -3q-3 -50 -11 -134h396q52 0 89 -37t37 -89v-520q0 -52 -37 -89t-89 -37h-181v68h181q24 0 41 17t17 41v520q0 24 -17 41t-41 17h-403q-27 -232 -85 -401.5t-167 -306.5l-54 42q102 130 157.5 290t80.5 376h-229v68h236q8 86 11 137z" />
    <glyph glyph-name="cid2543" unicode="&#x529b;" 
d="M420 821l68 -3q-3 -50 -11 -134h396q52 0 89 -37t37 -89v-520q0 -52 -37 -89t-89 -37h-181v68h181q24 0 41 17t17 41v520q0 24 -17 41t-41 17h-403q-27 -232 -85 -401.5t-167 -306.5l-54 42q102 130 157.5 290t80.5 376h-229v68h236q8 86 11 137z" />
    <glyph glyph-name="cid4860" unicode="&#x2f13;" 
d="M755 -91v68h118q24 0 41 17t17 41v551q0 24 -17 41t-41 17h-649l80 178l62 -27l-37 -83h544q52 0 89 -37t37 -89v-551q0 -52 -37 -89t-89 -37h-118z" />
    <glyph glyph-name="cid4860" unicode="&#x52f9;" 
d="M755 -91v68h118q24 0 41 17t17 41v551q0 24 -17 41t-41 17h-649l80 178l62 -27l-37 -83h544q52 0 89 -37t37 -89v-551q0 -52 -37 -89t-89 -37h-118z" />
    <glyph glyph-name="cid4710" unicode="&#x2f14;" 
d="M928 727l51 -44q-261 -300 -657 -426v-225q0 -24 17 -41t41 -17h619v-68h-619q-52 0 -89 37t-37 89v758h68v-462q363 119 606 399z" />
    <glyph glyph-name="cid4710" unicode="&#x5315;" 
d="M928 727l51 -44q-261 -300 -657 -426v-225q0 -24 17 -41t41 -17h619v-68h-619q-52 0 -89 37t-37 89v758h68v-462q363 119 606 399z" />
    <glyph glyph-name="cid4740" unicode="&#x2f15;" 
d="M1000 -10v-68h-724q-52 0 -89 37t-37 89v615q0 52 37 89t89 37h724v-68h-724q-24 0 -41 -17t-17 -41v-615q0 -24 17 -41t41 -17h724z" />
    <glyph glyph-name="cid4740" unicode="&#x531a;" 
d="M1000 -10v-68h-724q-52 0 -89 37t-37 89v615q0 52 37 89t89 37h724v-68h-724q-24 0 -41 -17t-17 -41v-615q0 -24 17 -41t41 -17h724z" />
    <glyph glyph-name="cid3397" unicode="&#x2f17;" 
d="M515 820h68v-392h417v-68h-417v-453h-68v453h-417v68h417v392z" />
    <glyph glyph-name="cid3397" unicode="&#x5341;" 
d="M515 820h68v-392h417v-68h-417v-453h-68v453h-417v68h417v392z" />
    <glyph glyph-name="cid1150" unicode="&#x2f18;" 
d="M512 823h68v-916h-68v916zM657 597l60 31l283 -559l-61 -32z" />
    <glyph glyph-name="cid1150" unicode="&#x535c;" 
d="M512 823h68v-916h-68v916zM657 597l60 31l283 -559l-61 -32z" />
    <glyph glyph-name="cid4946" unicode="&#x2f19;" 
d="M686 -94h-68v774q0 52 37 89t89 37h130q52 0 89 -37t37 -89v-546q0 -52 -37 -89t-89 -37h-90v68h90q25 0 41.5 17t16.5 41v546q0 24 -16.5 41t-41.5 17h-130q-25 0 -41.5 -17t-16.5 -41v-774z" />
    <glyph glyph-name="cid4946" unicode="&#x5369;" 
d="M686 -94h-68v774q0 52 37 89t89 37h130q52 0 89 -37t37 -89v-546q0 -52 -37 -89t-89 -37h-90v68h90q25 0 41.5 17t16.5 41v546q0 24 -16.5 41t-41.5 17h-130q-25 0 -41.5 -17t-16.5 -41v-774z" />
    <glyph glyph-name="cid1228" unicode="&#x2f1a;" 
d="M190 -95l-68 4l46 773q4 51 40 87.5t86 36.5h706v-68h-706q-23 0 -39.5 -17.5t-18.5 -42.5z" />
    <glyph glyph-name="cid1228" unicode="&#x5382;" 
d="M190 -95l-68 4l46 773q4 51 40 87.5t86 36.5h706v-68h-706q-23 0 -39.5 -17.5t-18.5 -42.5z" />
    <glyph glyph-name="cid5020" unicode="&#x2f1b;" 
d="M932 462h68v-216q0 -52 -36.5 -89t-88.5 -37h-719l176 563l65 -20l-149 -475h627q23 0 40 17t17 41v216z" />
    <glyph glyph-name="cid5020" unicode="&#x53b6;" 
d="M932 462h68v-216q0 -52 -36.5 -89t-88.5 -37h-719l176 563l65 -20l-149 -475h627q23 0 40 17t17 41v216z" />
    <glyph glyph-name="cid4283" unicode="&#x2f1c;" 
d="M226 542l45 52l319 -280q148 167 243 388h-630v68h730q-115 -290 -297 -497l364 -319l-44 -51l-365 320q-215 -224 -487 -313l-20 64q259 86 460 290z" />
    <glyph glyph-name="cid4283" unicode="&#x53c8;" 
d="M226 542l45 52l319 -280q148 167 243 388h-630v68h730q-115 -290 -297 -497l364 -319l-44 -51l-365 320q-215 -224 -487 -313l-20 64q259 86 460 290z" />
    <glyph glyph-name="cid2407" unicode="&#x2f1d;" 
d="M332 24h541q24 0 40.5 17t16.5 41v557q0 24 -16.5 41t-40.5 17h-541q-24 0 -40.5 -17t-16.5 -41v-557q0 -24 16.5 -41t40.5 -17zM873 -44h-541q-52 0 -89 37t-37 89v557q0 52 37 89t89 37h541q52 0 89 -37t37 -89v-557q0 -52 -37 -89t-89 -37z" />
    <glyph glyph-name="cid2407" unicode="&#x53e3;" 
d="M332 24h541q24 0 40.5 17t16.5 41v557q0 24 -16.5 41t-40.5 17h-541q-24 0 -40.5 -17t-16.5 -41v-557q0 -24 16.5 -41t40.5 -17zM873 -44h-541q-52 0 -89 37t-37 89v557q0 52 37 89t89 37h541q52 0 89 -37t37 -89v-557q0 -52 -37 -89t-89 -37z" />
    <glyph glyph-name="cid5523" unicode="&#x2f1e;" 
d="M376 18h498q24 0 40.5 17t16.5 41v562q0 24 -16.5 41t-40.5 17h-498q-25 0 -41.5 -17t-16.5 -41v-562q0 -24 16.5 -41t41.5 -17zM874 -50h-498q-52 0 -89 37t-37 89v562q0 52 37 89t89 37h498q52 0 88.5 -37t36.5 -89v-562q0 -52 -36.5 -89t-88.5 -37z" />
    <glyph glyph-name="cid5523" unicode="&#x56d7;" 
d="M376 18h498q24 0 40.5 17t16.5 41v562q0 24 -16.5 41t-40.5 17h-498q-25 0 -41.5 -17t-16.5 -41v-562q0 -24 16.5 -41t41.5 -17zM874 -50h-498q-52 0 -89 37t-37 89v562q0 52 37 89t89 37h498q52 0 88.5 -37t36.5 -89v-562q0 -52 -36.5 -89t-88.5 -37z" />
    <glyph glyph-name="cid3698" unicode="&#x2f1f;" 
d="M959 637v-69h-365v-567h405v-68h-879v68h406v567h-365v69h365v186h68v-186h365z" />
    <glyph glyph-name="cid3698" unicode="&#x571f;" 
d="M959 637v-69h-365v-567h405v-68h-879v68h406v567h-365v69h365v186h68v-186h365z" />
    <glyph glyph-name="cid3414" unicode="&#x2f20;" 
d="M549 821h68v-206h382v-68h-382v-570h356v-68h-779v68h355v570h-381v68h381v206z" />
    <glyph glyph-name="cid3414" unicode="&#x58eb;" 
d="M549 821h68v-206h382v-68h-382v-570h356v-68h-779v68h355v570h-381v68h381v206z" />
    <glyph glyph-name="cid5660" unicode="&#x2f21;" 
d="M999 -38l-41 -55l-378 286q-190 -168 -464 -281l-26 63q254 103 439 257l-375 284l40 55l387 -293q172 162 248 361h-670l66 186l64 -24l-33 -94h667q-85 -265 -291 -467z" />
    <glyph glyph-name="cid5660" unicode="&#x5902;" 
d="M999 -38l-41 -55l-378 286q-190 -168 -464 -281l-26 63q254 103 439 257l-375 284l40 55l387 -293q172 162 248 361h-670l66 186l64 -24l-33 -94h667q-85 -265 -291 -467z" />
    <glyph glyph-name="cid3859" unicode="&#x2f23;" 
d="M252 434l42 53l410 -324q88 78 139 191t76 269h-647l68 195l65 -23l-37 -104h631q-20 -144 -54 -252.5t-92 -201.5t-143 -156.5t-205.5 -107t-279.5 -64.5l-9 69q276 35 433 142z" />
    <glyph glyph-name="cid3859" unicode="&#x5915;" 
d="M252 434l42 53l410 -324q88 78 139 191t76 269h-647l68 195l65 -23l-37 -104h631q-20 -144 -54 -252.5t-92 -201.5t-143 -156.5t-205.5 -107t-279.5 -64.5l-9 69q276 35 433 142z" />
    <glyph glyph-name="cid1398" unicode="&#x2f24;" 
d="M114 544v68h394q12 95 18 203l69 -3q-9 -133 -18 -200h415v-68h-390l398 -601l-57 -36l-385 581q-40 -202 -135 -338.5t-280 -237.5l-33 59q178 97 266 232.5t122 340.5h-384z" />
    <glyph glyph-name="cid1398" unicode="&#x5927;" 
d="M114 544v68h394q12 95 18 203l69 -3q-9 -133 -18 -200h415v-68h-390l398 -601l-57 -36l-385 581q-40 -202 -135 -338.5t-280 -237.5l-33 59q178 97 266 232.5t122 340.5h-384z" />
    <glyph glyph-name="cid2927" unicode="&#x2f25;" 
d="M266 820l69 -7l-15 -136h678v-68h-103v-8q0 -169 -55 -288t-165 -202l324 -140l-28 -62l-364 157q-164 -94 -472 -159l-15 66q260 55 406 129l-123 53q-102 45 -140 101.5t-38 146.5q0 39 7 98l11 108h-111v68h119zM293 403q0 -65 30 -107.5t107 -77.5l169 -74
q114 75 171 185.5t57 271.5v8h-515l-12 -115q-7 -61 -7 -91z" />
    <glyph glyph-name="cid2927" unicode="&#x5973;" 
d="M266 820l69 -7l-15 -136h678v-68h-103v-8q0 -169 -55 -288t-165 -202l324 -140l-28 -62l-364 157q-164 -94 -472 -159l-15 66q260 55 406 129l-123 53q-102 45 -140 101.5t-38 146.5q0 39 7 98l11 108h-111v68h119zM293 403q0 -65 30 -107.5t107 -77.5l169 -74
q114 75 171 185.5t57 271.5v8h-515l-12 -115q-7 -61 -7 -91z" />
    <glyph glyph-name="cid4656" unicode="&#x2f26;" 
d="M110 353v68h506q135 139 232 320h-639v68h748q-112 -235 -247 -388h289v-68h-330v-316q0 -52 -37 -89t-89 -37h-166v68h166q24 0 41 17t17 41v316h-491z" />
    <glyph glyph-name="cid4656" unicode="&#x5b50;" 
d="M110 353v68h506q135 139 232 320h-639v68h748q-112 -235 -247 -388h289v-68h-330v-316q0 -52 -37 -89t-89 -37h-166v68h166q24 0 41 17t17 41v316h-491z" />
    <glyph glyph-name="cid5934" unicode="&#x2f27;" 
d="M526 826h68v-103h280q52 0 89 -37t37 -89v-53h-68v53q0 24 -17 41t-41 17h-628q-24 0 -41 -17t-17 -41v-53h-68v53q0 52 37 89t89 37h280v103z" />
    <glyph glyph-name="cid5934" unicode="&#x5b80;" 
d="M526 826h68v-103h280q52 0 89 -37t37 -89v-53h-68v53q0 24 -17 41t-41 17h-628q-24 0 -41 -17t-17 -41v-53h-68v53q0 52 37 89t89 37h280v103z" />
    <glyph glyph-name="cid1386" unicode="&#x2f28;" 
d="M102 602v68h679v151h68v-151h151v-68h-151v-570q0 -52 -37 -89t-89 -37h-208v68h208q24 0 41 17t17 41v570h-679zM244 489l59 35l231 -379l-59 -35z" />
    <glyph glyph-name="cid1386" unicode="&#x5bf8;" 
d="M102 602v68h679v151h68v-151h151v-68h-151v-570q0 -52 -37 -89t-89 -37h-208v68h208q24 0 41 17t17 41v570h-679zM244 489l59 35l231 -379l-59 -35z" />
    <glyph glyph-name="cid3948" unicode="&#x2f29;" 
d="M377 -90v68h100q23 0 40 17t17 41v787h68v-787q0 -52 -36.5 -89t-88.5 -37h-100zM286 671l68 -7q-35 -339 -180 -629l-60 29q139 282 172 607zM749 658l65 20l185 -618l-64 -21z" />
    <glyph glyph-name="cid3948" unicode="&#x5c0f;" 
d="M377 -90v68h100q23 0 40 17t17 41v787h68v-787q0 -52 -36.5 -89t-88.5 -37h-100zM286 671l68 -7q-35 -339 -180 -629l-60 29q139 282 172 607zM749 658l65 20l185 -618l-64 -21z" />
    <glyph glyph-name="cid5302" unicode="&#x2f2a;" 
d="M431 820l68 -7q-8 -82 -21 -154h507v-68h-295v-543q0 -25 16.5 -41.5t41.5 -16.5h252v-68h-252q-52 0 -89 37t-37 89v543h-157q-82 -399 -317 -682l-52 44q220 265 299 638h-292v68h306q12 69 22 161z" />
    <glyph glyph-name="cid5302" unicode="&#x5c22;" 
d="M431 820l68 -7q-8 -82 -21 -154h507v-68h-295v-543q0 -25 16.5 -41.5t41.5 -16.5h252v-68h-252q-52 0 -89 37t-37 89v543h-157q-82 -399 -317 -682l-52 44q220 265 299 638h-292v68h306q12 69 22 161z" />
    <glyph glyph-name="cid3395" unicode="&#x2f2b;" 
d="M234 -93l-68 6l55 772q4 51 39.5 87t86.5 36h526q52 0 89 -37t37 -89v-136q0 -52 -37 -89t-89 -37h-603zM289 679l-14 -191h598q24 0 41 16.5t17 41.5v136q0 24 -17 41t-41 17h-526q-24 0 -40 -18t-18 -43z" />
    <glyph glyph-name="cid3395" unicode="&#x5c38;" 
d="M234 -93l-68 6l55 772q4 51 39.5 87t86.5 36h526q52 0 89 -37t37 -89v-136q0 -52 -37 -89t-89 -37h-603zM289 679l-14 -191h598q24 0 41 16.5t17 41.5v136q0 24 -17 41t-41 17h-526q-24 0 -40 -18t-18 -43z" />
    <glyph glyph-name="cid6004" unicode="&#x2f2c;" 
d="M565 822h68v-547h240q24 0 41 17t17 41v403h68v-403q0 -52 -37 -89t-89 -37h-240v-300h-68v300h-239q-52 0 -89 37t-37 89v403h68v-403q0 -24 17 -41t41 -17h239v547z" />
    <glyph glyph-name="cid6004" unicode="&#x5c6e;" 
d="M565 822h68v-547h240q24 0 41 17t17 41v403h68v-403q0 -52 -37 -89t-89 -37h-240v-300h-68v300h-239q-52 0 -89 37t-37 89v403h68v-403q0 -24 17 -41t41 -17h239v547z" />
    <glyph glyph-name="cid3318" unicode="&#x2f2d;" 
d="M548 823h68v-839h258q24 0 41 17t17 41v660h68v-660q0 -52 -37 -89t-89 -37h-584q-52 0 -89 37t-37 89v660h68v-660q0 -24 17 -41t41 -17h258v839z" />
    <glyph glyph-name="cid3318" unicode="&#x5c71;" 
d="M548 823h68v-839h258q24 0 41 17t17 41v660h68v-660q0 -52 -37 -89t-89 -37h-584q-52 0 -89 37t-37 89v660h68v-660q0 -24 17 -41t41 -17h258v839z" />
    <glyph glyph-name="cid6165" unicode="&#x2f2e;" 
d="M639 803l62 -28l-156 -350q-14 -33 -14 -61t14 -61l156 -350l-62 -28l-157 351v-1q-19 39 -19 89q0 47 19 88zM937 803l62 -28l-156 -350q-14 -33 -14 -61t14 -61l156 -350l-62 -28l-157 351v-1q-19 43 -19 89q0 44 19 88zM333 803l63 -28l-157 -350q-13 -30 -13 -61
t13 -61l157 -350l-63 -28l-156 351v-1q-19 39 -19 89q0 47 19 88q10 22 68.5 152.5t87.5 198.5z" />
    <glyph glyph-name="cid6165" unicode="&#x5ddb;" 
d="M639 803l62 -28l-156 -350q-14 -33 -14 -61t14 -61l156 -350l-62 -28l-157 351v-1q-19 39 -19 89q0 47 19 88zM937 803l62 -28l-156 -350q-14 -33 -14 -61t14 -61l156 -350l-62 -28l-157 351v-1q-19 43 -19 89q0 44 19 88zM333 803l63 -28l-157 -350q-13 -30 -13 -61
t13 -61l157 -350l-63 -28l-156 351v-1q-19 39 -19 89q0 47 19 88q10 22 68.5 152.5t87.5 198.5z" />
    <glyph glyph-name="cid1789" unicode="&#x2f2f;" 
d="M154 709v68h803v-68h-367v-702h409v-68h-887v68h410v702h-368z" />
    <glyph glyph-name="cid1789" unicode="&#x5de5;" 
d="M154 709v68h803v-68h-367v-702h409v-68h-887v68h410v702h-368z" />
    <glyph glyph-name="cid2093" unicode="&#x2f30;" 
d="M161 746v68h662q52 0 89 -37t37 -89v-200q0 -52 -37 -89t-89 -37h-547q-24 0 -41 -17t-17 -41v-271q0 -24 17 -41t41 -17h723v-68h-723q-52 0 -89 37t-37 89v271q0 52 37 89t89 37h547q25 0 41.5 17t16.5 41v200q0 24 -16.5 41t-41.5 17h-662z" />
    <glyph glyph-name="cid2093" unicode="&#x5df1;" 
d="M161 746v68h662q52 0 89 -37t37 -89v-200q0 -52 -37 -89t-89 -37h-547q-24 0 -41 -17t-17 -41v-271q0 -24 17 -41t41 -17h723v-68h-723q-52 0 -89 37t-37 89v271q0 52 37 89t89 37h547q25 0 41.5 17t16.5 41v200q0 24 -16.5 41t-41.5 17h-662z" />
    <glyph glyph-name="cid2238" unicode="&#x2f31;" 
d="M570 823h68v-120h236q52 0 89 -37t37 -89v-464q0 -52 -37 -89t-89 -37h-99v68h99q24 0 41 17t17 41v464q0 24 -17 41t-41 17h-236v-726h-68v726h-236q-24 0 -41 -17t-17 -41v-592h-68v592q0 52 37 89t89 37h236v120z" />
    <glyph glyph-name="cid2238" unicode="&#x5dfe;" 
d="M570 823h68v-120h236q52 0 89 -37t37 -89v-464q0 -52 -37 -89t-89 -37h-99v68h99q24 0 41 17t17 41v464q0 24 -17 41t-41 17h-236v-726h-68v726h-236q-24 0 -41 -17t-17 -41v-592h-68v592q0 52 37 89t89 37h236v120z" />
    <glyph glyph-name="cid1732" unicode="&#x2f32;" 
d="M164 740v68h794v-68h-363v-347h405v-68h-405v-419h-68v419h-405v68h405v347h-363z" />
    <glyph glyph-name="cid1732" unicode="&#x5e72;" 
d="M164 740v68h794v-68h-363v-347h405v-68h-405v-419h-68v419h-405v68h405v347h-363z" />
    <glyph glyph-name="cid6163" unicode="&#x2f33;" 
d="M931 199h68v-162q0 -52 -37 -89t-89 -37h-681l326 424h-321l343 484l55 -39l-269 -377h245l192 249l54 -42l-487 -630h543q24 0 41 16.5t17 40.5v162z" />
    <glyph glyph-name="cid6163" unicode="&#x5e7a;" 
d="M931 199h68v-162q0 -52 -37 -89t-89 -37h-681l326 424h-321l343 484l55 -39l-269 -377h245l192 249l54 -42l-487 -630h543q24 0 41 16.5t17 40.5v162z" />
    <glyph glyph-name="cid1852" unicode="&#x2f34;" 
d="M1000 735v-68h-675q-23 0 -39.5 -17.5t-18.5 -42.5l-45 -698l-68 3l45 699q3 51 39.5 87.5t86.5 36.5h258v89h68v-89h349z" />
    <glyph glyph-name="cid1852" unicode="&#x5e7f;" 
d="M1000 735v-68h-675q-23 0 -39.5 -17.5t-18.5 -42.5l-45 -698l-68 3l45 699q3 51 39.5 87.5t86.5 36.5h258v89h68v-89h349z" />
    <glyph glyph-name="cid5016" unicode="&#x2f35;" 
d="M125 392v68h62l116 263h-187v68h291l-146 -331h127q-36 -217 -105 -353q113 -119 269 -119h447v-68h-447q-173 0 -303 124q-39 -64 -97 -133l-52 44q63 75 102 142q-51 65 -86 151l62 26q23 -60 59 -111q45 99 71 229h-183z" />
    <glyph glyph-name="cid5016" unicode="&#x5ef4;" 
d="M125 392v68h62l116 263h-187v68h291l-146 -331h127q-36 -217 -105 -353q113 -119 269 -119h447v-68h-447q-173 0 -303 124q-39 -64 -97 -133l-52 44q63 75 102 142q-51 65 -86 151l62 26q23 -60 59 -111q45 99 71 229h-183z" />
    <glyph glyph-name="cid5293" unicode="&#x2f36;" 
d="M115 413v68h191v338h68v-338h364v338h68v-338h194v-68h-194v-495h-68v495h-364v-41q0 -171 -55 -276.5t-192 -184.5l-33 59q118 68 165 160t47 242v41h-191z" />
    <glyph glyph-name="cid5293" unicode="&#x5efe;" 
d="M115 413v68h191v338h68v-338h364v338h68v-338h194v-68h-194v-495h-68v495h-364v-41q0 -171 -55 -276.5t-192 -184.5l-33 59q118 68 165 160t47 242v41h-191z" />
    <glyph glyph-name="cid5366" unicode="&#x2f37;" 
d="M452 798l68 8q8 -83 26 -173h326q23 0 40 17t17 40v61h68v-61q0 -51 -36.5 -88t-88.5 -37h-310q106 -411 438 -602l-34 -59q-364 208 -474 661h-354v68h339q-15 75 -25 165z" />
    <glyph glyph-name="cid5366" unicode="&#x5f0b;" 
d="M452 798l68 8q8 -83 26 -173h326q23 0 40 17t17 40v61h68v-61q0 -51 -36.5 -88t-88.5 -37h-310q106 -411 438 -602l-34 -59q-364 208 -474 661h-354v68h339q-15 75 -25 165z" />
    <glyph glyph-name="cid1798" unicode="&#x2f38;" 
d="M174 746v68h677q44 0 76 -32t32 -76v-120q0 -44 -32 -76t-76 -32h-560q-17 0 -28.5 -12t-11.5 -28v-116q0 -17 11.5 -28.5t28.5 -11.5h601q44 0 76 -32t32 -76v-155q0 -44 -32 -76t-76 -32h-567v68h567q17 0 28.5 11.5t11.5 28.5v155q0 17 -11.5 28.5t-28.5 11.5h-601
q-44 0 -76 32t-32 76v116q0 44 32 76t76 32h560q17 0 28.5 12t11.5 28v120q0 16 -11.5 28t-28.5 12h-677z" />
    <glyph glyph-name="cid1798" unicode="&#x5f13;" 
d="M174 746v68h677q44 0 76 -32t32 -76v-120q0 -44 -32 -76t-76 -32h-560q-17 0 -28.5 -12t-11.5 -28v-116q0 -17 11.5 -28.5t28.5 -11.5h601q44 0 76 -32t32 -76v-155q0 -44 -32 -76t-76 -32h-567v68h567q17 0 28.5 11.5t11.5 28.5v155q0 17 -11.5 28.5t-28.5 11.5h-601
q-44 0 -76 32t-32 76v116q0 44 32 76t76 32h560q17 0 28.5 12t11.5 28v120q0 16 -11.5 28t-28.5 12h-677z" />
    <glyph glyph-name="cid5986" unicode="&#x2f39;" 
d="M232 734v68h641q52 0 89 -37t37 -89v-626q0 -52 -37 -89t-89 -37h-641v68h641q24 0 41 17t17 41v283h-667v68h667v275q0 24 -17 41t-41 17h-641z" />
    <glyph glyph-name="cid5986" unicode="&#x5f50;" 
d="M232 734v68h641q52 0 89 -37t37 -89v-626q0 -52 -37 -89t-89 -37h-641v68h641q24 0 41 17t17 41v283h-667v68h667v275q0 24 -17 41t-41 17h-641z" />
    <glyph glyph-name="cid5614" unicode="&#x2f3a;" 
d="M918 813l39 -56q-244 -170 -606 -252l-15 67q349 77 582 241zM918 553l39 -55q-246 -172 -606 -251l-15 66q351 78 582 240zM961 295l38 -56q-280 -195 -691 -286l-14 67q402 89 667 275z" />
    <glyph glyph-name="cid5614" unicode="&#x5f61;" 
d="M918 813l39 -56q-244 -170 -606 -252l-15 67q349 77 582 241zM918 553l39 -55q-246 -172 -606 -251l-15 66q351 78 582 240zM961 295l38 -56q-280 -195 -691 -286l-14 67q402 89 667 275z" />
    <glyph glyph-name="cid5600" unicode="&#x2f3b;" 
d="M706 253l-46 51l314 281v-675h-68v522zM658 459l-46 51l341 306l46 -52z" />
    <glyph glyph-name="cid5600" unicode="&#x5f73;" 
d="M706 253l-46 51l314 281v-675h-68v522zM658 459l-46 51l341 306l46 -52z" />
    <glyph glyph-name="cid3983" unicode="&#x2f3c;" 
d="M856 -6v-68h-361q-52 0 -89 37t-37 89v754h68v-754q0 -24 17 -41t41 -17h361zM224 698l68 -2q-15 -422 -90 -761l-66 15q73 322 88 748zM882 695l68 4l50 -764l-68 -4zM595 758l68 9l85 -590l-68 -9z" />
    <glyph glyph-name="cid3983" unicode="&#x5fc3;" 
d="M856 -6v-68h-361q-52 0 -89 37t-37 89v754h68v-754q0 -24 17 -41t41 -17h361zM224 698l68 -2q-15 -422 -90 -761l-66 15q73 322 88 748zM882 695l68 4l50 -764l-68 -4zM595 758l68 9l85 -590l-68 -9z" />
    <glyph glyph-name="cid1765" unicode="&#x2f3d;" 
d="M999 -49l-49 -46q-128 137 -238 295q-212 -154 -496 -242l-20 65q275 85 478 233q-89 137 -159 276l-400 -44l-7 68l374 41q-43 90 -84 196l63 26q42 -108 93 -214l286 32q21 2 36 14.5t15 28.5v80h68v-80q0 -41 -33.5 -73t-78.5 -38q-48 -6 -137 -15.5t-123 -13.5
q67 -129 141 -242q101 84 182 185l53 -42q-85 -107 -197 -199q105 -154 233 -291z" />
    <glyph glyph-name="cid1765" unicode="&#x6208;" 
d="M999 -49l-49 -46q-128 137 -238 295q-212 -154 -496 -242l-20 65q275 85 478 233q-89 137 -159 276l-400 -44l-7 68l374 41q-43 90 -84 196l63 26q42 -108 93 -214l286 32q21 2 36 14.5t15 28.5v80h68v-80q0 -41 -33.5 -73t-78.5 -38q-48 -6 -137 -15.5t-123 -13.5
q67 -129 141 -242q101 84 182 185l53 -42q-85 -107 -197 -199q105 -154 233 -291z" />
    <glyph glyph-name="cid3437" unicode="&#x2f3f;" 
d="M332 -90v68h162q24 0 40.5 17t16.5 40v149h-439v68h439v177h-410v68h410v207l-368 -15l-1 68l768 31l2 -68l-333 -14v-209h360v-68h-360v-177h380v-68h-380v-149q0 -53 -36.5 -89t-88.5 -36h-162z" />
    <glyph glyph-name="cid3437" unicode="&#x624b;" 
d="M332 -90v68h162q24 0 40.5 17t16.5 40v149h-439v68h439v177h-410v68h410v207l-368 -15l-1 68l768 31l2 -68l-333 -14v-209h360v-68h-360v-177h380v-68h-380v-149q0 -53 -36.5 -89t-88.5 -36h-162z" />
    <glyph glyph-name="cid4518" unicode="&#x2f40;" 
d="M519 823h68v-130h399v-68h-399v-130h339q-119 -189 -292 -326l365 -202l-33 -59l-392 216q-184 -129 -444 -212l-20 65q238 75 402 181l-338 188l33 59l368 -204q134 100 226 226h-592v68h310v130h-400v68h400v130z" />
    <glyph glyph-name="cid4518" unicode="&#x652f;" 
d="M519 823h68v-130h399v-68h-399v-130h339q-119 -189 -292 -326l365 -202l-33 -59l-392 216q-184 -129 -444 -212l-20 65q238 75 402 181l-338 188l33 59l368 -204q134 100 226 226h-592v68h310v130h-400v68h400v130z" />
    <glyph glyph-name="cid6409" unicode="&#x2f41;" 
d="M515 823h68v-124h391v-68h-391v-136h352q-136 -187 -304 -318l369 -210l-33 -59l-395 225q-192 -136 -442 -221l-22 65q233 78 402 191l-300 171l33 59l329 -188q132 100 227 217h-593v68h309v328z" />
    <glyph glyph-name="cid6409" unicode="&#x6534;" 
d="M515 823h68v-124h391v-68h-391v-136h352q-136 -187 -304 -318l369 -210l-33 -59l-395 225q-192 -136 -442 -221l-22 65q233 78 402 191l-300 171l33 59l329 -188q132 100 227 217h-593v68h309v328z" />
    <glyph glyph-name="cid3795" unicode="&#x2f42;" 
d="M508 818h68v-118h412v-68h-112q-79 -238 -227 -405l350 -268l-40 -53l-357 273q-194 -191 -498 -271l-16 67q277 71 460 246l-387 296l41 53l392 -301q134 148 211 363h-708v68h411v118z" />
    <glyph glyph-name="cid3795" unicode="&#x6587;" 
d="M508 818h68v-118h412v-68h-112q-79 -238 -227 -405l350 -268l-40 -53l-357 273q-194 -191 -498 -271l-16 67q277 71 460 246l-387 296l41 53l392 -301q134 148 211 363h-708v68h411v118z" />
    <glyph glyph-name="cid1526" unicode="&#x2f43;" 
d="M97 45l-9 68l622 89v621h68v-612l212 31l9 -68l-221 -32v-235h-68v225zM170 683l29 61l409 -203l-29 -61zM170 449l29 60l409 -203l-29 -61z" />
    <glyph glyph-name="cid1526" unicode="&#x6597;" 
d="M97 45l-9 68l622 89v621h68v-612l212 31l9 -68l-221 -32v-235h-68v225zM170 683l29 61l409 -203l-29 -61zM170 449l29 60l409 -203l-29 -61z" />
    <glyph glyph-name="cid2240" unicode="&#x2f44;" 
d="M954 812v-68h-650q-24 0 -40 -17.5t-18 -42.5l-11 -182h764v-69h-199v-528h-68v528h-502l-32 -523l-68 4l48 773q3 52 39.5 88.5t86.5 36.5h650z" />
    <glyph glyph-name="cid2240" unicode="&#x65a4;" 
d="M954 812v-68h-650q-24 0 -40 -17.5t-18 -42.5l-11 -182h764v-69h-199v-528h-68v528h-502l-32 -523l-68 4l48 773q3 52 39.5 88.5t86.5 36.5h650z" />
    <glyph glyph-name="cid1626" unicode="&#x2f45;" 
d="M126 652v68h403v102h68v-102h403v-68h-629q0 -74 -7 -167h452q52 0 89 -36.5t37 -88.5v-323q0 -52 -37 -89t-89 -37h-135v68h135q24 0 41 16.5t17 41.5v323q0 23 -17 40t-41 17h-459q-30 -263 -137 -508l-63 27q145 335 146 716h-177z" />
    <glyph glyph-name="cid1626" unicode="&#x65b9;" 
d="M126 652v68h403v102h68v-102h403v-68h-629q0 -74 -7 -167h452q52 0 89 -36.5t37 -88.5v-323q0 -52 -37 -89t-89 -37h-135v68h135q24 0 41 16.5t17 41.5v323q0 23 -17 40t-41 17h-459q-30 -263 -137 -508l-63 27q145 335 146 716h-177z" />
    <glyph glyph-name="cid3821" unicode="&#x2f46;" 
d="M165 724v68h771v-68h-358q-9 -135 -34 -239h430v-68h-302v-383q0 -24 17 -41t41 -17h270v-68h-270q-52 0 -89 37t-37 89v383h-78q-50 -171 -146.5 -291.5t-248.5 -221.5l-37 57q136 91 224 198t136 258h-327v68h346q26 104 37 239h-345z" />
    <glyph glyph-name="cid3821" unicode="&#x65e0;" 
d="M165 724v68h771v-68h-358q-9 -135 -34 -239h430v-68h-302v-383q0 -24 17 -41t41 -17h270v-68h-270q-52 0 -89 37t-37 89v383h-78q-50 -171 -146.5 -291.5t-248.5 -221.5l-37 57q136 91 224 198t136 258h-327v68h346q26 104 37 239h-345z" />
    <glyph glyph-name="cid3248" unicode="&#x2f47;" 
d="M873 -94h-489q-52 0 -89 37t-37 89v641q0 52 37 89t89 37h489q52 0 89.5 -37t37.5 -89v-641q0 -52 -37.5 -89t-89.5 -37zM327 673v-289h604v289q0 24 -16.5 41t-41.5 17h-489q-24 0 -40.5 -17t-16.5 -41zM384 -26h489q25 0 41.5 17t16.5 41v284h-604v-284q0 -24 16.5 -41
t40.5 -17z" />
    <glyph glyph-name="cid3248" unicode="&#x65e5;" 
d="M873 -94h-489q-52 0 -89 37t-37 89v641q0 52 37 89t89 37h489q52 0 89.5 -37t37.5 -89v-641q0 -52 -37.5 -89t-89.5 -37zM327 673v-289h604v289q0 24 -16.5 41t-41.5 17h-489q-24 0 -40.5 -17t-16.5 -41zM384 -26h489q25 0 41.5 17t16.5 41v284h-604v-284q0 -24 16.5 -41
t40.5 -17z" />
    <glyph glyph-name="cid4350" unicode="&#x2f48;" 
d="M873 -37h-496q-52 0 -88.5 37t-36.5 89v574q0 53 36 89t89 36h496q52 0 89 -36.5t37 -88.5v-574q0 -52 -37 -89t-89 -37zM377 31h496q25 0 41.5 17t16.5 41v574q0 23 -16.5 40t-41.5 17h-496q-24 0 -40.5 -17t-16.5 -40v-257h509v-68h-509v-249q0 -24 16.5 -41t40.5 -17z
" />
    <glyph glyph-name="cid4350" unicode="&#x66f0;" 
d="M873 -37h-496q-52 0 -88.5 37t-36.5 89v574q0 53 36 89t89 36h496q52 0 89 -36.5t37 -88.5v-574q0 -52 -37 -89t-89 -37zM377 31h496q25 0 41.5 17t16.5 41v574q0 23 -16.5 40t-41.5 17h-496q-24 0 -40.5 -17t-16.5 -40v-257h509v-68h-509v-249q0 -24 16.5 -41t40.5 -17z
" />
    <glyph glyph-name="cid4357" unicode="&#x2f49;" 
d="M278 -91l-68 4l52 772q3 51 39.5 87.5t86.5 36.5h486q52 0 89 -37t37 -89v-649q0 -52 -37 -89t-89 -37h-80v68h80q24 0 41 17t17 41v147h-636zM315 460l-14 -211h631v211h-617zM330 681l-11 -153h613v155q0 24 -17 41t-41 17h-486q-23 0 -39.5 -17.5t-18.5 -42.5z" />
    <glyph glyph-name="cid4357" unicode="&#x6708;" 
d="M278 -91l-68 4l52 772q3 51 39.5 87.5t86.5 36.5h486q52 0 89 -37t37 -89v-649q0 -52 -37 -89t-89 -37h-80v68h80q24 0 41 17t17 41v147h-636zM315 460l-14 -211h631v211h-617zM330 681l-11 -153h613v155q0 24 -17 41t-41 17h-486q-23 0 -39.5 -17.5t-18.5 -42.5z" />
    <glyph glyph-name="cid2849" unicode="&#x2f4a;" 
d="M505 825h68v-144h410v-69h-233l250 -651l-64 -24l-258 675h-105v-707h-68v707h-101q-85 -406 -263 -668l-57 38q167 246 251 630h-238v69h408v144z" />
    <glyph glyph-name="cid2849" unicode="&#x6728;" 
d="M505 825h68v-144h410v-69h-233l250 -651l-64 -24l-258 675h-105v-707h-68v707h-101q-85 -406 -263 -668l-57 38q167 246 251 630h-238v69h408v144z" />
    <glyph glyph-name="cid3124" unicode="&#x2f4b;" 
d="M512 578h68q-1 -88 -15 -163l435 -461l-49 -46l-405 428q-87 -291 -409 -426l-25 63q195 80 296 228t104 377zM246 808l66 -17l-26 -94h671l-89 -238l-64 24l54 146h-660z" />
    <glyph glyph-name="cid3124" unicode="&#x6b20;" 
d="M512 578h68q-1 -88 -15 -163l435 -461l-49 -46l-405 428q-87 -291 -409 -426l-25 63q195 80 296 228t104 377zM246 808l66 -17l-26 -94h671l-89 -238l-64 24l54 146h-660z" />
    <glyph glyph-name="cid4536" unicode="&#x2f4c;" 
d="M570 824h68v-303h354v-68h-354v-477h362v-68h-872v68h118v723h68v-723h256v848z" />
    <glyph glyph-name="cid4536" unicode="&#x6b62;" 
d="M570 824h68v-303h354v-68h-354v-477h362v-68h-872v68h118v723h68v-723h256v848z" />
    <glyph glyph-name="cid1400" unicode="&#x2f4d;" 
d="M223 301l39 57l377 -255q169 117 226 385h-611l88 245h-199v68h856v-68h-583l-65 -177h595q-40 -230 -136 -369.5t-256.5 -204.5t-409.5 -70l-2 68q272 6 431 84z" />
    <glyph glyph-name="cid1400" unicode="&#x6b79;" 
d="M223 301l39 57l377 -255q169 117 226 385h-611l88 245h-199v68h856v-68h-583l-65 -177h595q-40 -230 -136 -369.5t-256.5 -204.5t-409.5 -70l-2 68q272 6 431 84z" />
    <glyph glyph-name="cid6589" unicode="&#x2f4e;" 
d="M216 265l29 61l357 -170q121 85 190 201h-561v68h670q-85 -179 -237 -299l335 -159l-30 -60l-367 174q-188 -120 -473 -172l-11 67q252 45 416 137zM262 449l-66 16l59 241q13 51 44 82t81 31h344q52 0 89 -37t37 -89v-123q0 -24 16.5 -41t41.5 -17h50v-68h-50
q-52 0 -89 37t-37 89v123q0 24 -17 41t-41 17h-344q-43 0 -58 -61q-50 -196 -60 -241z" />
    <glyph glyph-name="cid6589" unicode="&#x6bb3;" 
d="M216 265l29 61l357 -170q121 85 190 201h-561v68h670q-85 -179 -237 -299l335 -159l-30 -60l-367 174q-188 -120 -473 -172l-11 67q252 45 416 137zM262 449l-66 16l59 241q13 51 44 82t81 31h344q52 0 89 -37t37 -89v-123q0 -24 16.5 -41t41.5 -17h50v-68h-50
q-52 0 -89 37t-37 89v123q0 24 -17 41t-41 17h-344q-43 0 -58 -61q-50 -196 -60 -241z" />
    <glyph glyph-name="cid3826" unicode="&#x2f4f;" 
d="M100 406v68h87v203q0 52 37 89t89 37h448q52 0 89 -37t37 -89v-203h96v-68h-96v-264h112v-68h-112v-41q0 -52 -37 -89t-89 -37h-128v68h128q24 0 41 17t17 41v41h-334q-79 -91 -305 -165l-22 64q149 49 220 101h-65q-52 0 -89 37t-37 89v206h-87zM572 398
q0 -166 -43 -256h290v264h-247v-8zM255 677v-203h249v261h-191q-25 0 -41.5 -17t-16.5 -41zM761 735h-189v-261h247v203q0 24 -17 41t-41 17zM255 200q0 -24 16.5 -41t41.5 -17h133q58 82 58 256v8h-249v-206z" />
    <glyph glyph-name="cid3826" unicode="&#x6bcb;" 
d="M100 406v68h87v203q0 52 37 89t89 37h448q52 0 89 -37t37 -89v-203h96v-68h-96v-264h112v-68h-112v-41q0 -52 -37 -89t-89 -37h-128v68h128q24 0 41 17t17 41v41h-334q-79 -91 -305 -165l-22 64q149 49 220 101h-65q-52 0 -89 37t-37 89v206h-87zM572 398
q0 -166 -43 -256h290v264h-247v-8zM255 677v-203h249v261h-191q-25 0 -41.5 -17t-16.5 -41zM761 735h-189v-261h247v203q0 24 -17 41t-41 17zM255 200q0 -24 16.5 -41t41.5 -17h133q58 82 58 256v8h-249v-206z" />
    <glyph glyph-name="cid1073" unicode="&#x2f50;" 
d="M982 -25v-68h-255q-52 0 -89 37t-37 89v779h68v-283l300 145l30 -61l-330 -158v-422q0 -24 16.5 -41t41.5 -17h255zM517 -25v-68h-246q-52 0 -88.5 37t-36.5 89v779h68v-211h303v-68h-303v-500q0 -24 17 -41t40 -17h246z" />
    <glyph glyph-name="cid1073" unicode="&#x6bd4;" 
d="M982 -25v-68h-255q-52 0 -89 37t-37 89v779h68v-283l300 145l30 -61l-330 -158v-422q0 -24 16.5 -41t41.5 -17h255zM517 -25v-68h-246q-52 0 -88.5 37t-36.5 89v779h68v-211h303v-68h-303v-500q0 -24 17 -41t40 -17h246z" />
    <glyph glyph-name="cid2736" unicode="&#x2f51;" 
d="M146 696l-4 68l803 39l3 -68l-368 -18v-206h394v-68h-394v-195h409v-68h-409v-149q0 -24 17 -41t41 -17h361v-68h-361q-52 0 -89 37t-37 89v149h-410v68h410v195h-395v68h395v203z" />
    <glyph glyph-name="cid2736" unicode="&#x6bdb;" 
d="M146 696l-4 68l803 39l3 -68l-368 -18v-206h394v-68h-394v-195h409v-68h-409v-149q0 -24 17 -41t41 -17h361v-68h-361q-52 0 -89 37t-37 89v149h-410v68h410v195h-395v68h395v203z" />
    <glyph glyph-name="cid3430" unicode="&#x2f52;" 
d="M487 4v-68h-199q-52 0 -89 37t-37 89v598q0 51 37 87t89 38l672 22l2 -68l-287 -10q33 -149 93 -311h232v-68h-206q82 -203 204 -410l-59 -35q-133 228 -217 445h-492v-288q0 -25 17 -41.5t41 -16.5h199zM230 660v-242h466q-58 165 -89 309l-318 -10q-24 -1 -41.5 -17
t-17.5 -40z" />
    <glyph glyph-name="cid3430" unicode="&#x6c0f;" 
d="M487 4v-68h-199q-52 0 -89 37t-37 89v598q0 51 37 87t89 38l672 22l2 -68l-287 -10q33 -149 93 -311h232v-68h-206q82 -203 204 -410l-59 -35q-133 228 -217 445h-492v-288q0 -25 17 -41.5t41 -16.5h199zM230 660v-242h466q-58 165 -89 309l-318 -10q-24 -1 -41.5 -17
t-17.5 -40z" />
    <glyph glyph-name="cid3095" unicode="&#x2f53;" 
d="M233 818l66 -19l-19 -66h678v-68h-768zM209 506v68h691v-68h-691zM154 337v68h657q52 0 87 -30t43 -81l59 -371l-68 -11l-59 371q-4 24 -21 39t-41 15h-657z" />
    <glyph glyph-name="cid3095" unicode="&#x6c14;" 
d="M233 818l66 -19l-19 -66h678v-68h-768zM209 506v68h691v-68h-691zM154 337v68h657q52 0 87 -30t43 -81l59 -371l-68 -11l-59 371q-4 24 -21 39t-41 15h-657z" />
    <glyph glyph-name="cid3491" unicode="&#x2f54;" 
d="M931 684l48 -47l-219 -221l240 -427l-59 -33l-332 592v-514q0 -52 -37 -89t-89 -37h-77v68h77q24 0 41 17t17 41v791h68v-139l117 -209zM146 569v68h347q-79 -439 -313 -678l-48 48q209 213 280 562h-266z" />
    <glyph glyph-name="cid3491" unicode="&#x6c34;" 
d="M931 684l48 -47l-219 -221l240 -427l-59 -33l-332 592v-514q0 -52 -37 -89t-89 -37h-77v68h77q24 0 41 17t17 41v791h68v-139l117 -209zM146 569v68h347q-79 -439 -313 -678l-48 48q209 213 280 562h-266z" />
    <glyph glyph-name="cid2053" unicode="&#x2f55;" 
d="M1000 -44l-46 -50l-424 385q-47 -126 -143.5 -222.5t-258.5 -163.5l-26 63q81 33 144.5 76.5t107.5 90t75.5 106t50 116t29 130.5t13.5 137.5t3 147.5v41h68v-41q0 -261 -40 -411zM729 333l-47 48q145 144 210 294l63 -27q-71 -163 -226 -315zM408 384l-53 -42l-231 287
l53 42z" />
    <glyph glyph-name="cid2053" unicode="&#x706b;" 
d="M1000 -44l-46 -50l-424 385q-47 -126 -143.5 -222.5t-258.5 -163.5l-26 63q81 33 144.5 76.5t107.5 90t75.5 106t50 116t29 130.5t13.5 137.5t3 147.5v41h68v-41q0 -261 -40 -411zM729 333l-47 48q145 144 210 294l63 -27q-71 -163 -226 -315zM408 384l-53 -42l-231 287
l53 42z" />
    <glyph glyph-name="cid4611" unicode="&#x2f56;" 
d="M628 -93h-68v827h-138q-23 0 -39.5 -18t-18.5 -43l-78 -764l-68 7l78 765v-1q5 52 40 87t86 35h526v-68h-82l133 -816l-68 -11l-135 827h-168v-827z" />
    <glyph glyph-name="cid4611" unicode="&#x722a;" 
d="M628 -93h-68v827h-138q-23 0 -39.5 -18t-18.5 -43l-78 -764l-68 7l78 765v-1q5 52 40 87t86 35h526v-68h-82l133 -816l-68 -11l-135 827h-168v-827z" />
    <glyph glyph-name="cid1715" unicode="&#x2f57;" 
d="M253 482l45 52l295 -239q103 120 174 277l62 -27q-73 -163 -184 -292l355 -287l-44 -52l-357 288q-181 -190 -438 -293l-25 62q239 95 411 273zM358 819l63 -25q-83 -201 -231 -346l-48 48q139 136 216 323zM697 783l57 36l231 -333l-57 -37z" />
    <glyph glyph-name="cid1715" unicode="&#x7236;" 
d="M253 482l45 52l295 -239q103 120 174 277l62 -27q-73 -163 -184 -292l355 -287l-44 -52l-357 288q-181 -190 -438 -293l-25 62q239 95 411 273zM358 819l63 -25q-83 -201 -231 -346l-48 48q139 136 216 323zM697 783l57 36l231 -333l-57 -37z" />
    <glyph glyph-name="cid4713" unicode="&#x2f58;" 
d="M264 340l35 59l299 -184q126 94 217 202l52 -45q-91 -107 -206 -196l338 -207l-35 -58l-362 222q-197 -138 -446 -221l-22 64q223 74 404 196zM246 761l31 60l327 -170q123 75 217 168l48 -48q-84 -82 -195 -156l324 -167l-32 -61l-359 186q-202 -119 -453 -187l-19 66
q218 59 400 159z" />
    <glyph glyph-name="cid4713" unicode="&#x723b;" 
d="M264 340l35 59l299 -184q126 94 217 202l52 -45q-91 -107 -206 -196l338 -207l-35 -58l-362 222q-197 -138 -446 -221l-22 64q223 74 404 196zM246 761l31 60l327 -170q123 75 217 168l48 -48q-84 -82 -195 -156l324 -167l-32 -61l-359 186q-202 -119 -453 -187l-19 66
q218 59 400 159z" />
    <glyph glyph-name="cid5789" unicode="&#x2f59;" 
d="M205 249v68h726v190h-470q-52 0 -89 37t-37 89v179h68v-179q0 -24 17 -41t41 -17h470v244h68v-913h-68v343h-450q-13 -113 -72 -192.5t-176 -145.5l-33 59q98 55 149 121t64 158h-208z" />
    <glyph glyph-name="cid5789" unicode="&#x723f;" 
d="M205 249v68h726v190h-470q-52 0 -89 37t-37 89v179h68v-179q0 -24 17 -41t41 -17h470v244h68v-913h-68v343h-450q-13 -113 -72 -192.5t-176 -145.5l-33 59q98 55 149 121t64 158h-208z" />
    <glyph glyph-name="cid3019" unicode="&#x2f5a;" 
d="M731 817h68v-213h201v-68h-694v-217h507q52 0 89 -37t37 -89v-285h-68v285q0 24 -17 41t-41 17h-509q-7 -104 -41.5 -184.5t-103.5 -157.5l-51 46q70 78 100 161.5t30 199.5v507h68v-219h425v213z" />
    <glyph glyph-name="cid3019" unicode="&#x7247;" 
d="M731 817h68v-213h201v-68h-694v-217h507q52 0 89 -37t37 -89v-285h-68v285q0 24 -17 41t-41 17h-509q-7 -104 -41.5 -184.5t-103.5 -157.5l-51 46q70 78 100 161.5t30 199.5v507h68v-219h425v213z" />
    <glyph glyph-name="cid4073" unicode="&#x2f5b;" 
d="M192 729v68h807v-68h-167v-293h157v-68h-157v-337q0 -52 -37 -89t-89 -37h-137v68h137q24 0 41 17t17 41v337h-248q-46 -138 -130.5 -247t-204.5 -206l-43 53q109 89 186 185t120 215h-206l54 311l66 -11l-41 -232h447v293h-572z" />
    <glyph glyph-name="cid4073" unicode="&#x7259;" 
d="M192 729v68h807v-68h-167v-293h157v-68h-157v-337q0 -52 -37 -89t-89 -37h-137v68h137q24 0 41 17t17 41v337h-248q-46 -138 -130.5 -247t-204.5 -206l-43 53q109 89 186 185t120 215h-206l54 311l66 -11l-41 -232h447v293h-572z" />
    <glyph glyph-name="cid2916" unicode="&#x2f5c;" 
d="M126 221v68h403v293h-329l55 229l66 -15l-36 -146h244v171h68v-171h354v-68h-354v-293h403v-68h-403v-314h-68v314h-403z" />
    <glyph glyph-name="cid2916" unicode="&#x725b;" 
d="M126 221v68h403v293h-329l55 229l66 -15l-36 -146h244v171h68v-171h354v-68h-354v-293h403v-68h-403v-314h-68v314h-403z" />
    <glyph glyph-name="cid3209" unicode="&#x2f5d;" 
d="M90 508v68h400q15 89 25 241l68 -3q-10 -147 -24 -238h433v-68h-376l383 -563l-57 -38l-397 583q-41 -202 -138.5 -339t-287.5 -238l-31 61q173 92 262.5 219t127.5 315h-388zM787 790h68v-152h-68v152z" />
    <glyph glyph-name="cid3209" unicode="&#x72ac;" 
d="M90 508v68h400q15 89 25 241l68 -3q-10 -147 -24 -238h433v-68h-376l383 -563l-57 -38l-397 583q-41 -202 -138.5 -339t-287.5 -238l-31 61q173 92 262.5 219t127.5 315h-388zM787 790h68v-152h-68v152z" />
    <glyph glyph-name="cid4041" unicode="&#x2f5e;" 
d="M512 795l63 29l49 -106h376v-69h-412l-238 -270h250l174 201l52 -44l-481 -557h478q24 0 41 17t17 41v162h68v-162q0 -52 -37 -89t-89 -37h-626l345 400h-346l300 338h-356v69h407z" />
    <glyph glyph-name="cid4041" unicode="&#x7384;" 
d="M512 795l63 29l49 -106h376v-69h-412l-238 -270h250l174 201l52 -44l-481 -557h478q24 0 41 17t17 41v162h68v-162q0 -52 -37 -89t-89 -37h-626l345 400h-346l300 338h-356v69h407z" />
    <glyph glyph-name="cid4310" unicode="&#x2f5f;" 
d="M127 723v68h846v-68h-389v-294h373v-68h-373v-387h415v-68h-897v68h414v387h-373v68h373v294h-389zM815 250h68v-205h-68v205z" />
    <glyph glyph-name="cid4310" unicode="&#x7389;" 
d="M127 723v68h846v-68h-389v-294h373v-68h-373v-387h415v-68h-897v68h414v387h-373v68h373v294h-389zM815 250h68v-205h-68v205z" />
    <glyph glyph-name="cid1832" unicode="&#x2f60;" 
d="M679 387h68v-342q0 -52 -37 -89t-90 -37h-243l109 813h-142q-24 0 -40.5 -18t-18.5 -44l-89 -754l-68 8l89 752q4 52 39.5 88t87.5 36h595v-68h-90l150 -798l-66 -13l-152 811h-226l-100 -745h165q24 0 41.5 17t17.5 41v342z" />
    <glyph glyph-name="cid1832" unicode="&#x74dc;" 
d="M679 387h68v-342q0 -52 -37 -89t-90 -37h-243l109 813h-142q-24 0 -40.5 -18t-18.5 -44l-89 -754l-68 8l89 752q4 52 39.5 88t87.5 36h595v-68h-90l150 -798l-66 -13l-152 811h-226l-100 -745h165q24 0 41.5 17t17.5 41v342z" />
    <glyph glyph-name="cid3728" unicode="&#x2f61;" 
d="M92 723v68h894v-68h-664l-16 -152h408q52 0 88.5 -36.5t36.5 -88.5v-413q0 -24 17 -41t41 -17h103v-68h-103q-52 0 -89 37t-37 89v413q0 23 -16.5 40t-40.5 17h-415l-55 -525h276v-68h-351l84 813h-161zM412 360l53 42l199 -256l-54 -43z" />
    <glyph glyph-name="cid3728" unicode="&#x74e6;" 
d="M92 723v68h894v-68h-664l-16 -152h408q52 0 88.5 -36.5t36.5 -88.5v-413q0 -24 17 -41t41 -17h103v-68h-103q-52 0 -89 37t-37 89v413q0 23 -16.5 40t-40.5 17h-415l-55 -525h276v-68h-351l84 813h-161zM412 360l53 42l199 -256l-54 -43z" />
    <glyph glyph-name="cid1733" unicode="&#x2f62;" 
d="M1000 698v-68h-112v-594q0 -52 -37 -89t-89 -37h-404q-52 0 -89 37t-37 89v594h-112v68h112v127h68v-127h520v127h68v-127h112zM762 -22q25 0 41.5 17t16.5 41v248h-520v-248q0 -24 16.5 -41t41.5 -17h404zM300 630v-278h520v278h-520z" />
    <glyph glyph-name="cid1733" unicode="&#x7518;" 
d="M1000 698v-68h-112v-594q0 -52 -37 -89t-89 -37h-404q-52 0 -89 37t-37 89v594h-112v68h112v127h68v-127h520v127h68v-127h112zM762 -22q25 0 41.5 17t16.5 41v248h-520v-248q0 -24 16.5 -41t41.5 -17h404zM300 630v-278h520v278h-520z" />
    <glyph glyph-name="cid3379" unicode="&#x2f63;" 
d="M533 821h68v-167h375v-68h-375v-244h351v-68h-351v-292h399v-68h-866v68h399v292h-351v68h351v244h-350l56 212l67 -17l-34 -127h261v167z" />
    <glyph glyph-name="cid3379" unicode="&#x751f;" 
d="M533 821h68v-167h375v-68h-375v-244h351v-68h-351v-292h399v-68h-866v68h399v292h-351v68h351v244h-350l56 212l67 -17l-34 -127h261v167z" />
    <glyph glyph-name="cid4264" unicode="&#x2f64;" 
d="M256 -94l-68 4l37 769q3 52 39 88t87 36h523q52 0 89 -37t37 -89v-641q0 -52 -37 -89t-89 -37h-62v68h62q24 0 41 17t17 41v148h-301v-266h-68v266h-294zM874 735h-243v-213h301v155q0 24 -17 41t-41 17zM631 454v-202h301v202h-301zM282 454l-9 -202h290v202h-281z
M293 675l-8 -153h278v213h-212q-24 0 -40.5 -17.5t-17.5 -42.5z" />
    <glyph glyph-name="cid4264" unicode="&#x7528;" 
d="M256 -94l-68 4l37 769q3 52 39 88t87 36h523q52 0 89 -37t37 -89v-641q0 -52 -37 -89t-89 -37h-62v68h62q24 0 41 17t17 41v148h-301v-266h-68v266h-294zM874 735h-243v-213h301v155q0 24 -17 41t-41 17zM631 454v-202h301v202h-301zM282 454l-9 -202h290v202h-281z
M293 675l-8 -153h278v213h-212q-24 0 -40.5 -17.5t-17.5 -42.5z" />
    <glyph glyph-name="cid3650" unicode="&#x2f65;" 
d="M876 -69h-560q-51 0 -87.5 36.5t-36.5 88.5v599q0 52 36.5 88.5t87.5 36.5h560q51 0 87.5 -36.5t36.5 -88.5v-599q0 -52 -36.5 -88.5t-87.5 -36.5zM260 655v-268h302v325h-246q-23 0 -39.5 -17t-16.5 -40zM876 712h-246v-325h302v268q0 23 -16.5 40t-39.5 17zM876 -1
q23 0 39.5 17t16.5 40v263h-302v-320h246zM316 -1h246v320h-302v-263q0 -23 16.5 -40t39.5 -17z" />
    <glyph glyph-name="cid3650" unicode="&#x7530;" 
d="M876 -69h-560q-51 0 -87.5 36.5t-36.5 88.5v599q0 52 36.5 88.5t87.5 36.5h560q51 0 87.5 -36.5t36.5 -88.5v-599q0 -52 -36.5 -88.5t-87.5 -36.5zM260 655v-268h302v325h-246q-23 0 -39.5 -17t-16.5 -40zM876 712h-246v-325h302v268q0 23 -16.5 40t-39.5 17zM876 -1
q23 0 39.5 17t16.5 40v263h-302v-320h246zM316 -1h246v320h-302v-263q0 -23 16.5 -40t39.5 -17z" />
    <glyph glyph-name="cid7110" unicode="&#x2f66;" 
d="M174 540h68v-266q0 -10 -0.5 -29t-0.5 -28q94 -193 269 -224v716h-410v68h881l-78 -176l-63 28l36 80h-298v-314h366v-68h-366v-341l422 1v-68l-423 -1q-215 0 -347 187q-20 -104 -93 -202l-53 42q51 67 71 139t19 190v266z" />
    <glyph glyph-name="cid7110" unicode="&#x758b;" 
d="M174 540h68v-266q0 -10 -0.5 -29t-0.5 -28q94 -193 269 -224v716h-410v68h881l-78 -176l-63 28l36 80h-298v-314h366v-68h-366v-341l422 1v-68l-423 -1q-215 0 -347 187q-20 -104 -93 -202l-53 42q51 67 71 139t19 190v266z" />
    <glyph glyph-name="cid7008" unicode="&#x2f67;" 
d="M605 822h68v-81h326v-68h-658q-24 0 -40.5 -17t-17.5 -42l-18 -705l-68 2l7 299h-106v68h108l6 218h-114v68h115l2 52q1 52 37.5 88.5t88.5 36.5h264v81z" />
    <glyph glyph-name="cid7008" unicode="&#x7592;" 
d="M605 822h68v-81h326v-68h-658q-24 0 -40.5 -17t-17.5 -42l-18 -705l-68 2l7 299h-106v68h108l6 218h-114v68h115l2 52q1 52 37.5 88.5t88.5 36.5h264v81z" />
    <glyph glyph-name="cid994" unicode="&#x2f69;" 
d="M873 -87h-535q-52 0 -89 37.5t-37 89.5v553q0 52 37 88.5t89 36.5h80v104h68v-104h387q52 0 89 -36.5t37 -88.5v-553q0 -52 -37 -89.5t-89 -37.5zM281 593v-243h649v243q0 24 -16.5 40.5t-40.5 16.5h-535q-24 0 -40.5 -16.5t-16.5 -40.5zM338 -18h535q24 0 40.5 16.5
t16.5 41.5v242h-649v-242q0 -25 16.5 -41.5t40.5 -16.5z" />
    <glyph glyph-name="cid994" unicode="&#x767d;" 
d="M873 -87h-535q-52 0 -89 37.5t-37 89.5v553q0 52 37 88.5t89 36.5h80v104h68v-104h387q52 0 89 -36.5t37 -88.5v-553q0 -52 -37 -89.5t-89 -37.5zM281 593v-243h649v243q0 24 -16.5 40.5t-40.5 16.5h-535q-24 0 -40.5 -16.5t-16.5 -40.5zM338 -18h535q24 0 40.5 16.5
t16.5 41.5v242h-649v-242q0 -25 16.5 -41.5t40.5 -16.5z" />
    <glyph glyph-name="cid3011" unicode="&#x2f6a;" 
d="M578 823h68v-87h192q52 0 89 -37t37 -89v-64h-68v64q0 24 -16.5 41t-41.5 17h-192v-202h308q-109 -210 -242 -336l288 -165l-33 -59l-310 177q-140 -110 -367 -177l-18 64q202 60 325 148l-304 175l33 59l329 -189q103 91 186 235h-567l-26 -488l-68 4l38 698
q4 51 40 87.5t85 36.5h235v87zM286 608l-8 -142h300v202h-235q-22 0 -38.5 -17.5t-18.5 -42.5z" />
    <glyph glyph-name="cid3011" unicode="&#x76ae;" 
d="M578 823h68v-87h192q52 0 89 -37t37 -89v-64h-68v64q0 24 -16.5 41t-41.5 17h-192v-202h308q-109 -210 -242 -336l288 -165l-33 -59l-310 177q-140 -110 -367 -177l-18 64q202 60 325 148l-304 175l33 59l329 -189q103 91 186 235h-567l-26 -488l-68 4l38 698
q4 51 40 87.5t85 36.5h235v87zM286 608l-8 -142h300v202h-235q-22 0 -38.5 -17.5t-18.5 -42.5z" />
    <glyph glyph-name="cid2808" unicode="&#x2f6b;" 
d="M999 -28v-68h-917v68h79v617q0 52 37 89t89 37h507q52 0 88.5 -37t36.5 -89v-617h80zM454 647v-675h167v675h-167zM794 647h-105v-675h162v617q0 24 -17 41t-40 17zM229 589v-617h157v675h-99q-24 0 -41 -17t-17 -41z" />
    <glyph glyph-name="cid2808" unicode="&#x76bf;" 
d="M999 -28v-68h-917v68h79v617q0 52 37 89t89 37h507q52 0 88.5 -37t36.5 -89v-617h80zM454 647v-675h167v675h-167zM794 647h-105v-675h162v617q0 24 -17 41t-40 17zM229 589v-617h157v675h-99q-24 0 -41 -17t-17 -41z" />
    <glyph glyph-name="cid2850" unicode="&#x2f6c;" 
d="M873 -93h-515q-52 0 -89 37.5t-37 89.5v632q0 52 37 89.5t89 37.5h515q52 0 89 -37.5t37 -89.5v-632q0 -52 -37 -89.5t-89 -37.5zM300 666v-155h631v155q0 25 -17 41.5t-41 16.5h-515q-24 0 -41 -16.5t-17 -41.5zM300 443v-209h631v209h-631zM358 -24h515q24 0 41 16.5
t17 41.5v132h-631v-132q0 -25 17 -41.5t41 -16.5z" />
    <glyph glyph-name="cid2850" unicode="&#x76ee;" 
d="M873 -93h-515q-52 0 -89 37.5t-37 89.5v632q0 52 37 89.5t89 37.5h515q52 0 89 -37.5t37 -89.5v-632q0 -52 -37 -89.5t-89 -37.5zM300 666v-155h631v155q0 25 -17 41.5t-41 16.5h-515q-24 0 -41 -16.5t-17 -41.5zM300 443v-209h631v209h-631zM358 -24h515q24 0 41 16.5
t17 41.5v132h-631v-132q0 -25 17 -41.5t41 -16.5z" />
    <glyph glyph-name="cid2737" unicode="&#x2f6d;" 
d="M271 646l61 31l110 -217h254l110 275h-583v68h683l-137 -343h231l-65 -245l-66 17l43 160h-220v-360q0 -52 -37 -88.5t-89 -36.5h-98v68h98q24 0 41 17t17 40v360h-116q-42 -143 -138.5 -269t-221.5 -206l-36 57q111 69 197 180t127 238h-305v68h234z" />
    <glyph glyph-name="cid2737" unicode="&#x77db;" 
d="M271 646l61 31l110 -217h254l110 275h-583v68h683l-137 -343h231l-65 -245l-66 17l43 160h-220v-360q0 -52 -37 -88.5t-89 -36.5h-98v68h98q24 0 41 17t17 40v360h-116q-42 -143 -138.5 -269t-221.5 -206l-36 57q111 69 197 180t127 238h-305v68h234z" />
    <glyph glyph-name="cid3407" unicode="&#x2f6e;" 
d="M975 386v-68h-344l368 -363l-48 -48l-406 400q-51 -139 -156.5 -240.5t-266.5 -155.5l-22 65q279 93 376 342h-358v68h380q26 96 26 204v31h-361l68 195l64 -23l-37 -104h703v-68h-369v-31q0 -106 -23 -204h406z" />
    <glyph glyph-name="cid3407" unicode="&#x77e2;" 
d="M975 386v-68h-344l368 -363l-48 -48l-406 400q-51 -139 -156.5 -240.5t-266.5 -155.5l-22 65q279 93 376 342h-358v68h380q26 96 26 204v31h-361l68 195l64 -23l-37 -104h703v-68h-369v-31q0 -106 -23 -204h406z" />
    <glyph glyph-name="cid3398" unicode="&#x2f6f;" 
d="M811 -91h-416q-52 0 -89 37t-37 89v273q-52 -82 -112 -150l-51 44q193 226 257 517h-251v68h887v-68h-567q-20 -101 -58 -201q14 2 21 2h416q52 0 88.5 -37t36.5 -89v-359q0 -52 -36.5 -89t-88.5 -37zM395 -23h416q23 0 40 17t17 41v359q0 24 -17 41t-40 17h-416
q-24 0 -41 -17t-17 -41v-359q0 -24 17 -41t41 -17z" />
    <glyph glyph-name="cid3398" unicode="&#x77f3;" 
d="M811 -91h-416q-52 0 -89 37t-37 89v273q-52 -82 -112 -150l-51 44q193 226 257 517h-251v68h887v-68h-567q-20 -101 -58 -201q14 2 21 2h416q52 0 88.5 -37t36.5 -89v-359q0 -52 -36.5 -89t-88.5 -37zM395 -23h416q23 0 40 17t17 41v359q0 24 -17 41t-40 17h-416
q-24 0 -41 -17t-17 -41v-359q0 -24 17 -41t41 -17z" />
    <glyph glyph-name="cid3413" unicode="&#x2f70;" 
d="M106 452v68h890v-68h-401v-422q0 -52 -37 -89t-89 -37h-73v68h73q24 0 41 17t17 41v422h-421zM149 715v68h805v-68h-805zM772 383l64 22l164 -458l-65 -23zM244 396l68 -5q-24 -270 -157 -466l-57 39q122 182 146 432z" />
    <glyph glyph-name="cid3413" unicode="&#x793a;" 
d="M106 452v68h890v-68h-401v-422q0 -52 -37 -89t-89 -37h-73v68h73q24 0 41 17t17 41v422h-421zM149 715v68h805v-68h-805zM772 383l64 22l164 -458l-65 -23zM244 396l68 -5q-24 -270 -157 -466l-57 39q122 182 146 432z" />
    <glyph glyph-name="cid1923" unicode="&#x2f72;" 
d="M151 693l-3 68l782 40l3 -68l-359 -19v-200h410v-68h-282l297 -489l-58 -35l-319 524h-48v-540h-68v540h-46q-106 -313 -324 -521l-46 50q199 189 298 471h-291v68h409v197z" />
    <glyph glyph-name="cid1923" unicode="&#x79be;" 
d="M151 693l-3 68l782 40l3 -68l-359 -19v-200h410v-68h-282l297 -489l-58 -35l-319 524h-48v-540h-68v540h-46q-106 -313 -324 -521l-46 50q199 189 298 471h-291v68h409v197z" />
    <glyph glyph-name="cid4049" unicode="&#x2f73;" 
d="M552 810h68v-103h248q52 0 89 -37t37 -89v-89h-68v89q0 24 -17 41t-41 17h-563q-24 0 -41 -17t-17 -41v-89h-68v89q0 52 37 89t89 37h247v103zM363 508l68 -5q-15 -171 -65 -314t-153 -278l-53 42q96 125 142 259t61 296zM727 482l65 24l208 -571l-64 -24z" />
    <glyph glyph-name="cid4049" unicode="&#x7a74;" 
d="M552 810h68v-103h248q52 0 89 -37t37 -89v-89h-68v89q0 24 -17 41t-41 17h-563q-24 0 -41 -17t-17 -41v-89h-68v89q0 52 37 89t89 37h247v103zM363 508l68 -5q-15 -171 -65 -314t-153 -278l-53 42q96 125 142 259t61 296zM727 482l65 24l208 -571l-64 -24z" />
    <glyph glyph-name="cid2539" unicode="&#x2f74;" 
d="M519 821h68v-128h373v-68h-816v68h375v128zM106 -88v69h894v-69h-894zM812 565l69 -11q-44 -289 -125 -520l-64 22q76 217 120 509zM226 551l67 17l122 -515l-66 -16z" />
    <glyph glyph-name="cid2539" unicode="&#x7acb;" 
d="M519 821h68v-128h373v-68h-816v68h375v128zM106 -88v69h894v-69h-894zM812 565l69 -11q-44 -289 -125 -520l-64 22q76 217 120 509zM226 551l67 17l122 -515l-66 -16z" />
    <glyph glyph-name="cid4592" unicode="&#x2f75;" 
d="M655 -93v68h112q24 0 41 17t17 41v572h-258l71 210l64 -22l-41 -120h338v-68h-106v-572q0 -52 -37 -89t-89 -37h-112zM185 815l65 -22l-42 -120h310v-68h-196v-700h-68v700h-140z" />
    <glyph glyph-name="cid4592" unicode="&#x7af9;" 
d="M655 -93v68h112q24 0 41 17t17 41v572h-258l71 210l64 -22l-41 -120h338v-68h-106v-572q0 -52 -37 -89t-89 -37h-112zM185 815l65 -22l-42 -120h310v-68h-196v-700h-68v700h-140z" />
    <glyph glyph-name="cid2780" unicode="&#x2f76;" 
d="M508 819h68v-361h404v-68h-272l291 -418l-56 -39l-318 457h-49v-481h-68v481h-47q-106 -274 -326 -455l-43 54q195 158 295 401h-284v68h405v361zM857 806l61 -32q-77 -150 -202 -278l-48 48q116 118 189 262zM169 770l55 40l195 -269l-55 -41z" />
    <glyph glyph-name="cid2780" unicode="&#x7c73;" 
d="M508 819h68v-361h404v-68h-272l291 -418l-56 -39l-318 457h-49v-481h-68v481h-47q-106 -274 -326 -455l-43 54q195 158 295 401h-284v68h405v361zM857 806l61 -32q-77 -150 -202 -278l-48 48q116 118 189 262zM169 770l55 40l195 -269l-55 -41z" />
    <glyph glyph-name="cid7399" unicode="&#x2f77;" 
d="M420 -93v68h57q24 0 40.5 17t16.5 41v197h-368l306 272h-288l308 319l50 -48l-196 -203h202l184 163l46 -52l-430 -383h476q24 0 41 17t17 41v102h68v-102q0 -52 -37 -89t-89 -37h-221v-197q0 -52 -37 -89t-89 -37h-57zM375 209l54 -43q-109 -141 -266 -238l-37 57
q75 46 133 97t116 127zM702 163l46 49l252 -235l-46 -50z" />
    <glyph glyph-name="cid7399" unicode="&#x7cf8;" 
d="M420 -93v68h57q24 0 40.5 17t16.5 41v197h-368l306 272h-288l308 319l50 -48l-196 -203h202l184 163l46 -52l-430 -383h476q24 0 41 17t17 41v102h68v-102q0 -52 -37 -89t-89 -37h-221v-197q0 -52 -37 -89t-89 -37h-57zM375 209l54 -43q-109 -141 -266 -238l-37 57
q75 46 133 97t116 127zM702 163l46 49l252 -235l-46 -50z" />
    <glyph glyph-name="cid7262" unicode="&#x2f78;" 
d="M124 341v68h404v220h-355l44 183l66 -15l-24 -100h704v-68h-367v-220h403v-68h-403v-360h242q23 0 40 17t17 41v194h68v-194q0 -52 -36.5 -89t-88.5 -37h-553q-52 0 -88.5 37t-36.5 89v194h68v-194q0 -24 17 -41t40 -17h243v360h-404z" />
    <glyph glyph-name="cid7262" unicode="&#x7f36;" 
d="M124 341v68h404v220h-355l44 183l66 -15l-24 -100h704v-68h-367v-220h403v-68h-403v-360h242q23 0 40 17t17 41v194h68v-194q0 -52 -36.5 -89t-88.5 -37h-553q-52 0 -88.5 37t-36.5 89v194h68v-194q0 -24 17 -41t40 -17h243v360h-404z" />
    <glyph glyph-name="cid3753" unicode="&#x2f79;" 
d="M805 -93v68h69q24 0 40.5 17t16.5 41v631q0 25 -16.5 41.5t-40.5 16.5h-564q-24 0 -40.5 -16.5t-16.5 -41.5v-759h-69v759q0 52 37 89.5t89 37.5h564q52 0 89 -37.5t37 -89.5v-631q0 -52 -37 -89t-89 -37h-69zM597 598l60 30l102 -215q39 101 60 212l66 -13
q-28 -147 -86 -282l115 -241l-61 -30l-92 192q-51 -100 -126 -200l-55 40q85 114 144 239zM284 585l59 33l109 -200q38 100 59 207l66 -13q-26 -140 -82 -272l95 -172l-59 -33l-71 129q-55 -108 -133 -213l-55 40q90 122 147 247z" />
    <glyph glyph-name="cid3753" unicode="&#x7f51;" 
d="M805 -93v68h69q24 0 40.5 17t16.5 41v631q0 25 -16.5 41.5t-40.5 16.5h-564q-24 0 -40.5 -16.5t-16.5 -41.5v-759h-69v759q0 52 37 89.5t89 37.5h564q52 0 89 -37.5t37 -89.5v-631q0 -52 -37 -89t-89 -37h-69zM597 598l60 30l102 -215q39 101 60 212l66 -13
q-28 -147 -86 -282l115 -241l-61 -30l-92 192q-51 -100 -126 -200l-55 40q85 114 144 239zM284 585l59 33l109 -200q38 100 59 207l66 -13q-26 -140 -82 -272l95 -172l-59 -33l-71 129q-55 -108 -133 -213l-55 40q90 122 147 247z" />
    <glyph glyph-name="cid4123" unicode="&#x2f7a;" 
d="M774 817l61 -31l-60 -112h189v-68h-386v-181h348v-68h-348v-174h421v-69h-421v-209h-68v209h-420v69h420v174h-347v68h347v181h-385v68h189l-60 112l61 31l76 -143h307z" />
    <glyph glyph-name="cid4123" unicode="&#x7f8a;" 
d="M774 817l61 -31l-60 -112h189v-68h-386v-181h348v-68h-348v-174h421v-69h-421v-209h-68v209h-420v69h420v174h-347v68h347v181h-385v68h189l-60 112l61 31l76 -143h307z" />
    <glyph glyph-name="cid4309" unicode="&#x2f7b;" 
d="M120 734v68h288q52 0 89 -37t37 -89v-641q0 -52 -37 -89t-89 -37h-152v68h152q24 0 41 17t17 41v641q0 24 -17 41t-41 17h-288zM115 467v68h297v-68h-297zM133 79l-29 61l301 145l29 -61zM586 734v68h288q52 0 89 -37t37 -89v-641q0 -52 -37 -89t-89 -37h-152v68h152
q24 0 41 17t17 41v641q0 24 -17 41t-41 17h-288zM581 467v68h298v-68h-298zM600 79l-30 61l301 145l30 -61z" />
    <glyph glyph-name="cid4309" unicode="&#x7fbd;" 
d="M120 734v68h288q52 0 89 -37t37 -89v-641q0 -52 -37 -89t-89 -37h-152v68h152q24 0 41 17t17 41v641q0 24 -17 41t-41 17h-288zM115 467v68h297v-68h-297zM133 79l-29 61l301 145l29 -61zM586 734v68h288q52 0 89 -37t37 -89v-641q0 -52 -37 -89t-89 -37h-152v68h152
q24 0 41 17t17 41v641q0 24 -17 41t-41 17h-288zM581 467v68h298v-68h-298zM600 79l-30 61l301 145l30 -61z" />
    <glyph glyph-name="cid2490" unicode="&#x2f7c;" 
d="M505 815h68v-100h382v-68h-382v-173h228v114h68v-114h130v-68h-629v-228q277 26 579 156l26 -62q-324 -137 -605 -163v-76q0 -24 17 -40.5t41 -16.5h557v-69h-557q-52 0 -89 37t-37 89v179q-65 -150 -169 -282l-53 43q157 197 217 433h-208v68h416v173h-373v68h373v100z
" />
    <glyph glyph-name="cid2490" unicode="&#x8001;" 
d="M505 815h68v-100h382v-68h-382v-173h228v114h68v-114h130v-68h-629v-228q277 26 579 156l26 -62q-324 -137 -605 -163v-76q0 -24 17 -40.5t41 -16.5h557v-69h-557q-52 0 -89 37t-37 89v179q-65 -150 -169 -282l-53 43q157 197 217 433h-208v68h416v173h-373v68h373v100z
" />
    <glyph glyph-name="cid1591" unicode="&#x2f7d;" 
d="M128 741v68h871v-68h-381l-38 -140h271q52 0 89 -37t37 -89v-444q0 -52 -37 -89t-89 -37h-54v68h54q24 0 41 17t17 41v444q0 24 -17 41t-41 17h-127v-622h-68v622h-185v-622h-68v622h-127q-24 0 -41 -17t-17 -41v-565h-68v565q0 52 37 89t89 37h233l38 140h-419z" />
    <glyph glyph-name="cid1591" unicode="&#x800c;" 
d="M128 741v68h871v-68h-381l-38 -140h271q52 0 89 -37t37 -89v-444q0 -52 -37 -89t-89 -37h-54v68h54q24 0 41 17t17 41v444q0 24 -17 41t-41 17h-127v-622h-68v622h-185v-622h-68v622h-127q-24 0 -41 -17t-17 -41v-565h-68v565q0 52 37 89t89 37h233l38 140h-419z" />
    <glyph glyph-name="cid7115" unicode="&#x2f7e;" 
d="M506 821h68v-93h359v-68h-359v-129h326v-68h-326v-127h388v-68h-300l338 -286l-44 -51l-382 324v-344h-68v338q-141 -182 -393 -322l-33 59q226 126 354 282h-316v68h388v127h-326v68h326v129h-359v68h359v93z" />
    <glyph glyph-name="cid7115" unicode="&#x8012;" 
d="M506 821h68v-93h359v-68h-359v-129h326v-68h-326v-127h388v-68h-300l338 -286l-44 -51l-382 324v-344h-68v338q-141 -182 -393 -322l-33 59q226 126 354 282h-316v68h388v127h-326v68h326v129h-359v68h359v93z" />
    <glyph glyph-name="cid1593" unicode="&#x2f7f;" 
d="M887 -92h-68v151h-705v68h111v605h-111v68h885v-68h-112v-605h112v-68h-112v-151zM293 506v-161h526v161h-526zM293 732v-158h526v158h-526zM293 277v-150h526v150h-526z" />
    <glyph glyph-name="cid1593" unicode="&#x8033;" 
d="M887 -92h-68v151h-705v68h111v605h-111v68h885v-68h-112v-605h112v-68h-112v-151zM293 506v-161h526v161h-526zM293 732v-158h526v158h-526zM293 277v-150h526v150h-526z" />
    <glyph glyph-name="cid6686" unicode="&#x2f80;" 
d="M999 578v-68h-59v-45q0 -53 -36.5 -89.5t-88.5 -36.5h-234v-83h364v-68h-364v-96h418v-68h-418v-114h-68v114h-419v68h419v96h-365v68h365v83h-349v68h349v103h-419v68h419v107h-349v68h349v71h68v-71h234q53 0 89 -36.5t36 -88.5v-50h59zM815 685h-234v-107h291v50
q0 24 -17 40.5t-40 16.5zM815 407q23 0 40 17t17 41v45h-291v-103h234z" />
    <glyph glyph-name="cid6686" unicode="&#x807f;" 
d="M999 578v-68h-59v-45q0 -53 -36.5 -89.5t-88.5 -36.5h-234v-83h364v-68h-364v-96h418v-68h-418v-114h-68v114h-419v68h419v96h-365v68h365v83h-349v68h349v103h-419v68h419v107h-349v68h349v71h68v-71h234q53 0 89 -36.5t36 -88.5v-50h59zM815 685h-234v-107h291v50
q0 24 -17 40.5t-40 16.5zM815 407q23 0 40 17t17 41v45h-291v-103h234z" />
    <glyph glyph-name="cid3261" unicode="&#x2f81;" 
d="M577 824h68q-2 -81 -9 -127h237q52 0 89 -37t37 -89v-534q0 -52 -37 -89t-89 -37h-72v68h72q25 0 41.5 16.5t16.5 41.5v534q0 24 -16.5 41t-41.5 17h-251q-2 -6 -2 -7l253 -236l-46 -49l-234 218q-62 -121 -238 -211l-31 61q92 47 145.5 100t78.5 124h-216
q-25 0 -41.5 -17t-16.5 -41v-663h-68v663q0 52 36.5 89t89.5 37h234q9 51 11 127zM573 453l68 -7q-8 -63 -22 -110l254 -236l-46 -50l-234 218q-32 -63 -90 -113.5t-148 -96.5l-31 61q123 62 179.5 138t69.5 196z" />
    <glyph glyph-name="cid3261" unicode="&#x8089;" 
d="M577 824h68q-2 -81 -9 -127h237q52 0 89 -37t37 -89v-534q0 -52 -37 -89t-89 -37h-72v68h72q25 0 41.5 16.5t16.5 41.5v534q0 24 -16.5 41t-41.5 17h-251q-2 -6 -2 -7l253 -236l-46 -49l-234 218q-62 -121 -238 -211l-31 61q92 47 145.5 100t78.5 124h-216
q-25 0 -41.5 -17t-16.5 -41v-663h-68v663q0 52 36.5 89t89.5 37h234q9 51 11 127zM573 453l68 -7q-8 -63 -22 -110l254 -236l-46 -50l-234 218q-32 -63 -90 -113.5t-148 -96.5l-31 61q123 62 179.5 138t69.5 196z" />
    <glyph glyph-name="cid1249" unicode="&#x2f82;" 
d="M999 -24v-68h-709q-52 0 -89 37t-37 89v641q0 52 37 89t89 37h709v-68h-332v-191h218q44 0 75.5 -32t31.5 -76v-157q0 -44 -31.5 -76t-75.5 -32h-218v-193h332zM885 474h-653v-237h653q16 0 27.5 11.5t11.5 28.5v157q0 17 -11.5 28.5t-27.5 11.5zM232 34q0 -24 17 -41
t41 -17h309v193h-367v-135zM232 675v-133h367v191h-309q-24 0 -41 -17t-17 -41z" />
    <glyph glyph-name="cid1249" unicode="&#x81e3;" 
d="M999 -24v-68h-709q-52 0 -89 37t-37 89v641q0 52 37 89t89 37h709v-68h-332v-191h218q44 0 75.5 -32t31.5 -76v-157q0 -44 -31.5 -76t-75.5 -32h-218v-193h332zM885 474h-653v-237h653q16 0 27.5 11.5t11.5 28.5v157q0 17 -11.5 28.5t-27.5 11.5zM232 34q0 -24 17 -41
t41 -17h309v193h-367v-135zM232 675v-133h367v191h-309q-24 0 -41 -17t-17 -41z" />
    <glyph glyph-name="cid4657" unicode="&#x2f83;" 
d="M470 822h69v-112h334q52 0 89 -37t37 -89v-550q0 -52 -37 -89t-89 -37h-542q-52 0 -88.5 37t-36.5 89v550q0 52 36.5 89t88.5 37h139v112zM274 400v-182h657v182h-657zM274 584v-116h657v116q0 24 -17 41t-41 17h-542q-23 0 -40 -17t-17 -41zM331 -24h542q24 0 41 17
t17 41v116h-657v-116q0 -24 17 -41t40 -17z" />
    <glyph glyph-name="cid4657" unicode="&#x81ea;" 
d="M470 822h69v-112h334q52 0 89 -37t37 -89v-550q0 -52 -37 -89t-89 -37h-542q-52 0 -88.5 37t-36.5 89v550q0 52 36.5 89t88.5 37h139v112zM274 400v-182h657v182h-657zM274 584v-116h657v116q0 24 -17 41t-41 17h-542q-23 0 -40 -17t-17 -41zM331 -24h542q24 0 41 17
t17 41v116h-657v-116q0 -24 17 -41t40 -17z" />
    <glyph glyph-name="cid4544" unicode="&#x2f84;" 
d="M117 725v69h869v-69h-670l-51 -251h525q24 0 41 17t17 41v103h68v-103q0 -52 -37 -89t-89 -37h-210v-147h363v-68h-363v-214h419v-69h-905v69h418v214h-362v68h362v147h-331l65 319h-129z" />
    <glyph glyph-name="cid4544" unicode="&#x81f3;" 
d="M117 725v69h869v-69h-670l-51 -251h525q24 0 41 17t17 41v103h68v-103q0 -52 -37 -89t-89 -37h-210v-147h363v-68h-363v-214h419v-69h-905v69h418v214h-362v68h362v147h-331l65 319h-129z" />
    <glyph glyph-name="cid2297" unicode="&#x2f85;" 
d="M688 337v68h244v274q0 24 -17 41t-41 17h-191v68h191q52 0 89 -37t37 -89v-629q0 -52 -37 -89t-89 -37h-534q-52 0 -89 37t-37 89v629q0 52 37 89t89 37h180v-68h-180q-24 0 -41 -17t-17 -41v-274h243v-68h-243v-287q0 -24 17 -41t41 -17h534q24 0 41 17t17 41v287h-244z
" />
    <glyph glyph-name="cid2297" unicode="&#x81fc;" 
d="M688 337v68h244v274q0 24 -17 41t-41 17h-191v68h191q52 0 89 -37t37 -89v-629q0 -52 -37 -89t-89 -37h-534q-52 0 -89 37t-37 89v629q0 52 37 89t89 37h180v-68h-180q-24 0 -41 -17t-17 -41v-274h243v-68h-243v-287q0 -24 17 -41t41 -17h534q24 0 41 17t17 41v287h-244z
" />
    <glyph glyph-name="cid3353" unicode="&#x2f86;" 
d="M167 717l-2 68l766 24l2 -68l-350 -11v-193h417v-68h-417v-162h222q44 0 75.5 -31.5t31.5 -75.5v-183q0 -44 -31.5 -76t-75.5 -32h-512q-44 0 -75.5 32t-31.5 76v183q0 44 31.5 75.5t75.5 31.5h222v162h-417v68h417v191zM293 -23h512q16 0 27.5 11.5t11.5 28.5v183
q0 16 -11 27.5t-28 11.5h-512q-17 0 -28 -11.5t-11 -27.5v-183q0 -17 11.5 -28.5t27.5 -11.5z" />
    <glyph glyph-name="cid3353" unicode="&#x820c;" 
d="M167 717l-2 68l766 24l2 -68l-350 -11v-193h417v-68h-417v-162h222q44 0 75.5 -31.5t31.5 -75.5v-183q0 -44 -31.5 -76t-75.5 -32h-512q-44 0 -75.5 32t-31.5 76v183q0 44 31.5 75.5t75.5 31.5h222v162h-417v68h417v191zM293 -23h512q16 0 27.5 11.5t11.5 28.5v183
q0 16 -11 27.5t-28 11.5h-512q-17 0 -28 -11.5t-11 -27.5v-183q0 -17 11.5 -28.5t27.5 -11.5z" />
    <glyph glyph-name="cid5656" unicode="&#x2f87;" 
d="M820 -89h-68v264h-210l29 330l68 -6l-24 -256h137v357h-196v68h196v153h68v-153h171v-68h-171v-357h179v-68h-179v-264zM207 819l59 -33l-55 -96h279q-7 -154 -34.5 -276t-76.5 -214t-106.5 -159.5t-137.5 -131.5l-42 53q142 115 214 245l-225 233l50 47l208 -215
q64 146 78 350h-323z" />
    <glyph glyph-name="cid5656" unicode="&#x821b;" 
d="M820 -89h-68v264h-210l29 330l68 -6l-24 -256h137v357h-196v68h196v153h68v-153h171v-68h-171v-357h179v-68h-179v-264zM207 819l59 -33l-55 -96h279q-7 -154 -34.5 -276t-76.5 -214t-106.5 -159.5t-137.5 -131.5l-42 53q142 115 214 245l-225 233l50 47l208 -215
q64 146 78 350h-323z" />
    <glyph glyph-name="cid4570" unicode="&#x2f88;" 
d="M382 824h68v-94h296q52 0 89 -37t37 -89v-247h128v-68h-128v-249q0 -52 -37 -88.5t-89 -36.5h-98v68h98q24 0 41 16.5t17 40.5v249h-553l-27 -378l-68 5l26 373h-96v68h101l18 250q5 52 40 87.5t86 35.5h51v94zM273 601l-17 -244h548v247q0 24 -16.5 41t-41.5 17h-415
q-23 0 -39 -17.5t-19 -43.5zM499 599h68v-187h-68v187zM499 234h68v-186h-68v186z" />
    <glyph glyph-name="cid4570" unicode="&#x821f;" 
d="M382 824h68v-94h296q52 0 89 -37t37 -89v-247h128v-68h-128v-249q0 -52 -37 -88.5t-89 -36.5h-98v68h98q24 0 41 16.5t17 40.5v249h-553l-27 -378l-68 5l26 373h-96v68h101l18 250q5 52 40 87.5t86 35.5h51v94zM273 601l-17 -244h548v247q0 24 -16.5 41t-41.5 17h-415
q-23 0 -39 -17.5t-19 -43.5zM499 599h68v-187h-68v187zM499 234h68v-186h-68v186z" />
    <glyph glyph-name="cid7388" unicode="&#x2f89;" 
d="M554 -22v-68h-202q-52 0 -89 36.5t-37 88.5v635q0 52 37 89t89 37h502q52 0 88.5 -37t36.5 -89v-207q0 -53 -36.5 -89t-88.5 -36h-291l191 -170l210 137l36 -57l-193 -126l188 -166l-46 -51l-491 433h-164v-303q0 -23 17 -40t41 -17h202zM294 670v-74h617v74q0 24 -17 41
t-40 17h-502q-24 0 -41 -17t-17 -41zM854 406q23 0 40 17t17 40v65h-617v-122h560z" />
    <glyph glyph-name="cid7388" unicode="&#x826e;" 
d="M554 -22v-68h-202q-52 0 -89 36.5t-37 88.5v635q0 52 37 89t89 37h502q52 0 88.5 -37t36.5 -89v-207q0 -53 -36.5 -89t-88.5 -36h-291l191 -170l210 137l36 -57l-193 -126l188 -166l-46 -51l-491 433h-164v-303q0 -23 17 -40t41 -17h202zM294 670v-74h617v74q0 24 -17 41
t-40 17h-502q-24 0 -41 -17t-17 -41zM854 406q23 0 40 17t17 40v65h-617v-122h560z" />
    <glyph glyph-name="cid3300" unicode="&#x2f8a;" 
d="M282 824l61 -29l-43 -87h608l-91 -176h17q52 0 88.5 -37.5t36.5 -89.5v-109q0 -52 -36.5 -89t-88.5 -37h-604v-139q0 -23 17 -40t40 -17h712v-68h-712q-52 0 -88.5 37t-36.5 88v374q0 52 36.5 89.5t88.5 37.5h452l56 108h-603zM834 463h-242v-225h242q23 0 40 17t17 41
v109q0 25 -16.5 41.5t-40.5 16.5zM230 405v-167h294v225h-237q-23 0 -40 -16.5t-17 -41.5z" />
    <glyph glyph-name="cid3300" unicode="&#x8272;" 
d="M282 824l61 -29l-43 -87h608l-91 -176h17q52 0 88.5 -37.5t36.5 -89.5v-109q0 -52 -36.5 -89t-88.5 -37h-604v-139q0 -23 17 -40t40 -17h712v-68h-712q-52 0 -88.5 37t-36.5 88v374q0 52 36.5 89.5t88.5 37.5h452l56 108h-603zM834 463h-242v-225h242q23 0 40 17t17 41
v109q0 25 -16.5 41.5t-40.5 16.5zM230 405v-167h294v225h-237q-23 0 -40 -16.5t-17 -41.5z" />
    <glyph glyph-name="cid7152" unicode="&#x2f8c;" 
d="M954 734v-68h-377v-115h304q44 0 76 -32t32 -76v-76h-68v76q0 17 -11.5 28.5t-28.5 11.5h-573q-23 0 -39.5 -17.5t-18.5 -42.5l-30 -513l-68 3l30 514q4 51 40 87.5t86 36.5h201v273h68v-90h377zM999 -22v-68h-377q-52 0 -89 37t-37 89v141l-187 -14l-5 68l192 14v192h68
v-187l410 32l6 -68l-416 -32v-146q0 -24 17 -41t41 -17h377z" />
    <glyph glyph-name="cid7152" unicode="&#x864d;" 
d="M954 734v-68h-377v-115h304q44 0 76 -32t32 -76v-76h-68v76q0 17 -11.5 28.5t-28.5 11.5h-573q-23 0 -39.5 -17.5t-18.5 -42.5l-30 -513l-68 3l30 514q4 51 40 87.5t86 36.5h201v273h68v-90h377zM999 -22v-68h-377q-52 0 -89 37t-37 89v141l-187 -14l-5 68l192 14v192h68
v-187l410 32l6 -68l-416 -32v-146q0 -24 17 -41t41 -17h377z" />
    <glyph glyph-name="cid1291" unicode="&#x2f8d;" 
d="M535 821h68v-126h244q52 0 89 -37t37 -89v-200q0 -52 -37 -89t-89 -37h-244v-267h270q25 0 41.5 17t16.5 41v84h68v-84q0 -52 -37 -89t-89 -37h-739v68h401v267h-243q-52 0 -89 37t-37 89v200q0 52 37 89t89 37h243v126zM847 627h-244v-316h244q24 0 41 16.5t17 41.5v200
q0 24 -17 41t-41 17zM292 311h243v316h-243q-24 0 -41 -17t-17 -41v-200q0 -25 17 -41.5t41 -16.5z" />
    <glyph glyph-name="cid1291" unicode="&#x866b;" 
d="M535 821h68v-126h244q52 0 89 -37t37 -89v-200q0 -52 -37 -89t-89 -37h-244v-267h270q25 0 41.5 17t16.5 41v84h68v-84q0 -52 -37 -89t-89 -37h-739v68h401v267h-243q-52 0 -89 37t-37 89v200q0 52 37 89t89 37h243v126zM847 627h-244v-316h244q24 0 41 16.5t17 41.5v200
q0 24 -17 41t-41 17zM292 311h243v316h-243q-24 0 -41 -17t-17 -41v-200q0 -25 17 -41.5t41 -16.5z" />
    <glyph glyph-name="cid4051" unicode="&#x2f8e;" 
d="M316 813l64 -22l-38 -115h452q48 0 83 -34.5t35 -82.5v-582h88v-68h-916v68h76v582q0 46 31.5 80t77.5 37zM794 608h-115v-631h165v582q0 20 -14.5 34.5t-35.5 14.5zM228 559v-582h162v631h-113q-20 0 -34.5 -14.5t-14.5 -34.5zM458 608v-631h153v631h-153z" />
    <glyph glyph-name="cid4051" unicode="&#x8840;" 
d="M316 813l64 -22l-38 -115h452q48 0 83 -34.5t35 -82.5v-582h88v-68h-916v68h76v582q0 46 31.5 80t77.5 37zM794 608h-115v-631h165v582q0 20 -14.5 34.5t-35.5 14.5zM228 559v-582h162v631h-113q-20 0 -34.5 -14.5t-14.5 -34.5zM458 608v-631h153v631h-153z" />
    <glyph glyph-name="cid3995" unicode="&#x2f8f;" 
d="M433 459v68h567v-68h-96v-425q0 -52 -37 -89t-89 -37h-132v68h132q24 0 40.5 17t16.5 41v425h-402zM347 -89h-68l-2 497l-153 -109l-40 55l261 188zM480 714v68h504v-68h-504zM382 824l40 -55l-298 -215l-40 55z" />
    <glyph glyph-name="cid3995" unicode="&#x884c;" 
d="M433 459v68h567v-68h-96v-425q0 -52 -37 -89t-89 -37h-132v68h132q24 0 40.5 17t16.5 41v425h-402zM347 -89h-68l-2 497l-153 -109l-40 55l261 188zM480 714v68h504v-68h-504zM382 824l40 -55l-298 -215l-40 55z" />
    <glyph glyph-name="cid4169" unicode="&#x2f90;" 
d="M532 822h68v-116h393v-68h-498q-38 -147 -108 -277v-327q0 -24 17 -41t41 -17h139v-68h-139q-52 0 -89 37t-37 89v216q-73 -104 -177 -208l-48 48q117 115 200.5 247t130.5 301h-326v68h433v116zM920 553l50 -48l-219 -230l248 -296l-52 -45l-443 532l51 44l151 -181z
" />
    <glyph glyph-name="cid4169" unicode="&#x8863;" 
d="M532 822h68v-116h393v-68h-498q-38 -147 -108 -277v-327q0 -24 17 -41t41 -17h139v-68h-139q-52 0 -89 37t-37 89v216q-73 -104 -177 -208l-48 48q117 115 200.5 247t130.5 301h-326v68h433v116zM920 553l50 -48l-219 -230l248 -296l-52 -45l-443 532l51 44l151 -181z
" />
    <glyph glyph-name="cid2200" unicode="&#x2f93;" 
d="M639 -83h-68v176h-300l-7 -182l-68 3l22 538q3 52 39 88t87 36h454l48 94h-602l73 155l61 -29l-27 -58h606l-82 -162q51 -1 88 -37.5t37 -87.5v-412q0 -52 -37 -89t-89 -37h-65v68h65q24 0 41 17t17 41v54h-293v-176zM280 307l-6 -146h297v146h-291zM639 307v-146h293
v146h-293zM874 508h-235v-133h293v76q0 23 -17 40t-41 17zM286 449l-3 -74h288v133h-227q-23 0 -39.5 -17t-18.5 -42z" />
    <glyph glyph-name="cid2200" unicode="&#x89d2;" 
d="M639 -83h-68v176h-300l-7 -182l-68 3l22 538q3 52 39 88t87 36h454l48 94h-602l73 155l61 -29l-27 -58h606l-82 -162q51 -1 88 -37.5t37 -87.5v-412q0 -52 -37 -89t-89 -37h-65v68h65q24 0 41 17t17 41v54h-293v-176zM280 307l-6 -146h297v146h-291zM639 307v-146h293
v146h-293zM874 508h-235v-133h293v76q0 23 -17 40t-41 17zM286 449l-3 -74h288v133h-227q-23 0 -39.5 -17t-18.5 -42z" />
    <glyph glyph-name="cid4093" unicode="&#x2f94;" 
d="M817 -90h-538q-44 0 -75.5 31t-31.5 75v150q0 44 32 75.5t75 31.5h538q43 0 75 -31.5t32 -75.5v-150q0 -44 -31.5 -75t-75.5 -31zM279 -22h538q16 0 27.5 11t11.5 27v150q0 16 -11 27.5t-28 11.5h-538q-17 0 -28 -11.5t-11 -27.5v-150q0 -16 11.5 -27t27.5 -11zM514 821
h68v-87h418v-68h-904v68h418v87zM160 501v68h776v-68h-776zM160 352v68h776v-68h-776z" />
    <glyph glyph-name="cid4093" unicode="&#x8a00;" 
d="M817 -90h-538q-44 0 -75.5 31t-31.5 75v150q0 44 32 75.5t75 31.5h538q43 0 75 -31.5t32 -75.5v-150q0 -44 -31.5 -75t-75.5 -31zM279 -22h538q16 0 27.5 11t11.5 27v150q0 16 -11 27.5t-28 11.5h-538q-17 0 -28 -11.5t-11 -27.5v-150q0 -16 11.5 -27t27.5 -11zM514 821
h68v-87h418v-68h-904v68h418v87zM160 501v68h776v-68h-776zM160 352v68h776v-68h-776z" />
    <glyph glyph-name="cid1825" unicode="&#x2f95;" 
d="M757 -93h-421q-52 0 -89 36.5t-37 89.5v179q0 52 37 89t89 37h421q52 0 89 -37t37 -89v-179q0 -53 -37 -89.5t-89 -36.5zM336 -25h421q24 0 41 17t17 41v179q0 25 -17 41.5t-41 16.5h-421q-24 0 -41 -16.5t-17 -41.5v-179q0 -24 17 -41t41 -17zM553 685l50 -46l-25 -27
l422 -306l-40 -55l-431 311q-176 -173 -418 -301l-31 61q280 148 473 363zM397 825l52 -46q-128 -143 -310 -239l-31 61q171 90 289 224zM631 770l42 53l300 -232l-42 -53z" />
    <glyph glyph-name="cid1825" unicode="&#x8c37;" 
d="M757 -93h-421q-52 0 -89 36.5t-37 89.5v179q0 52 37 89t89 37h421q52 0 89 -37t37 -89v-179q0 -53 -37 -89.5t-89 -36.5zM336 -25h421q24 0 41 17t17 41v179q0 25 -17 41.5t-41 16.5h-421q-24 0 -41 -16.5t-17 -41.5v-179q0 -24 17 -41t41 -17zM553 685l50 -46l-25 -27
l422 -306l-40 -55l-431 311q-176 -173 -418 -301l-31 61q280 148 473 363zM397 825l52 -46q-128 -143 -310 -239l-31 61q171 90 289 224zM631 770l42 53l300 -232l-42 -53z" />
    <glyph glyph-name="cid1528" unicode="&#x2f96;" 
d="M806 276h-494q-52 0 -89 37t-37 89v133q0 52 37 89t89 37h494q52 0 89 -37t37 -89v-133q0 -52 -37 -89t-89 -37zM312 344h494q24 0 40.5 17t16.5 41v133q0 24 -16.5 41t-40.5 17h-494q-24 0 -41 -17t-17 -41v-133q0 -24 17 -41t41 -17zM809 222l65 -20l-72 -224h197v-68
h-881v68h198l-72 224l65 20l77 -244h345zM984 810v-68h-850v68h850z" />
    <glyph glyph-name="cid1528" unicode="&#x8c46;" 
d="M806 276h-494q-52 0 -89 37t-37 89v133q0 52 37 89t89 37h494q52 0 89 -37t37 -89v-133q0 -52 -37 -89t-89 -37zM312 344h494q24 0 40.5 17t16.5 41v133q0 24 -16.5 41t-40.5 17h-494q-24 0 -41 -17t-17 -41v-133q0 -24 17 -41t41 -17zM809 222l65 -20l-72 -224h197v-68
h-881v68h198l-72 224l65 20l77 -244h345zM984 810v-68h-850v68h850z" />
    <glyph glyph-name="cid7445" unicode="&#x2f97;" 
d="M1000 6l-60 -30l-215 455l-56 -38q15 -60 15 -117q0 -115 -59 -210.5t-171 -161.5l-35 59q182 106 196 285q-161 -191 -483 -286l-20 64q360 107 496 330q-10 49 -33 100q-135 -180 -443 -274l-20 65q308 92 428 278q-17 29 -44 66q-141 -113 -356 -175l-20 64
q279 83 414 241h-388v69h833v-69h-359q-33 -46 -73 -85q64 -86 100 -175l270 182l38 -57l-174 -117z" />
    <glyph glyph-name="cid7445" unicode="&#x8c55;" 
d="M1000 6l-60 -30l-215 455l-56 -38q15 -60 15 -117q0 -115 -59 -210.5t-171 -161.5l-35 59q182 106 196 285q-161 -191 -483 -286l-20 64q360 107 496 330q-10 49 -33 100q-135 -180 -443 -274l-20 65q308 92 428 278q-17 29 -44 66q-141 -113 -356 -175l-20 64
q279 83 414 241h-388v69h833v-69h-359q-33 -46 -73 -85q64 -86 100 -175l270 182l38 -57l-174 -117z" />
    <glyph glyph-name="cid7504" unicode="&#x2f98;" 
d="M549 -86l-16 66q127 33 195 76t93 107l-333 -46l-9 68l359 51q2 26 2 42v60l-352 -49l-9 68l361 51v96l-352 -45l-9 68l66 8v135h68v-126l107 13v113h69v-104l169 22l9 -68l-59 -8v-234q0 -150 -78 -231t-281 -133zM999 807v-68h-523v68h523z" />
    <glyph glyph-name="cid7504" unicode="&#x8c78;" 
d="M549 -86l-16 66q127 33 195 76t93 107l-333 -46l-9 68l359 51q2 26 2 42v60l-352 -49l-9 68l361 51v96l-352 -45l-9 68l66 8v135h68v-126l107 13v113h69v-104l169 22l9 -68l-59 -8v-234q0 -150 -78 -231t-281 -133zM999 807v-68h-523v68h523z" />
    <glyph glyph-name="cid1285" unicode="&#x2f9a;" 
d="M528 825h68v-90h341v-68h-341v-154h403v-68h-271v-412q0 -52 -37 -89t-89 -37h-62v68h62q24 0 41 17t17 41v412h-194q-3 -179 -48 -301t-143 -239l-52 44q89 107 130.5 219.5t44.5 276.5h-274v68h404v154h-342v68h342v90zM807 369l65 20l113 -368l-65 -20zM237 383l68 -9
q-26 -194 -136 -346l-55 41q100 137 123 314z" />
    <glyph glyph-name="cid1285" unicode="&#x8d64;" 
d="M528 825h68v-90h341v-68h-341v-154h403v-68h-271v-412q0 -52 -37 -89t-89 -37h-62v68h62q24 0 41 17t17 41v412h-194q-3 -179 -48 -301t-143 -239l-52 44q89 107 130.5 219.5t44.5 276.5h-274v68h404v154h-342v68h342v90zM807 369l65 20l113 -368l-65 -20zM237 383l68 -9
q-26 -194 -136 -346l-55 41q100 137 123 314z" />
    <glyph glyph-name="cid4668" unicode="&#x2f9b;" 
d="M224 324h68v-108q0 -44 -4 -73q81 -144 245 -159v400h68v-118h341v-68h-341v-216l398 1v-68l-435 -1q-185 0 -297 137q-26 -72 -96 -142l-47 48q54 54 77.5 112.5t22.5 146.5v108zM520 822h68v-102h320v-68h-320v-174h407v-68h-881v68h406v174h-320v68h320v102z" />
    <glyph glyph-name="cid4668" unicode="&#x8d70;" 
d="M224 324h68v-108q0 -44 -4 -73q81 -144 245 -159v400h68v-118h341v-68h-341v-216l398 1v-68l-435 -1q-185 0 -297 137q-26 -72 -96 -142l-47 48q54 54 77.5 112.5t22.5 146.5v108zM520 822h68v-102h320v-68h-320v-174h407v-68h-881v68h406v174h-320v68h320v102z" />
    <glyph glyph-name="cid4672" unicode="&#x2f9c;" 
d="M223 339h68l1 -114q0 -23 -1 -34q38 -90 101.5 -142t139.5 -64v455h-193q-52 0 -89 37t-37 89v129q0 52 37 89t89 37h481q52 0 89 -37t37 -89v-129q0 -52 -37 -89t-89 -37h-219v-160h361v-68h-361v-230l399 1v-68l-428 -1q-87 0 -164.5 42t-132.5 123q-26 -94 -103 -174
l-50 48q54 56 78 118t24 154zM339 508h481q24 0 41 17t17 41v129q0 24 -17 41t-41 17h-481q-24 0 -41 -17t-17 -41v-129q0 -24 17 -41t41 -17z" />
    <glyph glyph-name="cid4672" unicode="&#x8db3;" 
d="M223 339h68l1 -114q0 -23 -1 -34q38 -90 101.5 -142t139.5 -64v455h-193q-52 0 -89 37t-37 89v129q0 52 37 89t89 37h481q52 0 89 -37t37 -89v-129q0 -52 -37 -89t-89 -37h-219v-160h361v-68h-361v-230l399 1v-68l-428 -1q-87 0 -164.5 42t-132.5 123q-26 -94 -103 -174
l-50 48q54 56 78 118t24 154zM339 508h481q24 0 41 17t17 41v129q0 24 -17 41t-41 17h-481q-24 0 -41 -17t-17 -41v-129q0 -24 17 -41t41 -17z" />
    <glyph glyph-name="cid3366" unicode="&#x2f9d;" 
d="M437 821h69v-65h280q52 0 88.5 -36t36.5 -89v-413h89v-68h-89v-118q0 -52 -36.5 -89t-88.5 -37h-198v68h198q23 0 40 17t17 41v118h-284q-116 -160 -426 -239l-17 67q240 59 354 172h-340v68h97v413q0 52 37 88.5t89 36.5h84v65zM295 509v-115h548v115h-548zM295 631v-54
h548v54q0 23 -17 40t-40 17h-433q-24 0 -41 -17t-17 -40zM295 326v-108h548v108h-548z" />
    <glyph glyph-name="cid3366" unicode="&#x8eab;" 
d="M437 821h69v-65h280q52 0 88.5 -36t36.5 -89v-413h89v-68h-89v-118q0 -52 -36.5 -89t-88.5 -37h-198v68h198q23 0 40 17t17 41v118h-284q-116 -160 -426 -239l-17 67q240 59 354 172h-340v68h97v413q0 52 37 88.5t89 36.5h84v65zM295 509v-115h548v115h-548zM295 631v-54
h548v54q0 23 -17 40t-40 17h-433q-24 0 -41 -17t-17 -40zM295 326v-108h548v108h-548z" />
    <glyph glyph-name="cid7803" unicode="&#x2f9e;" 
d="M525 825h68v-67h378v-68h-378v-79h225q44 0 75.5 -32t31.5 -76v-177q0 -44 -31.5 -75.5t-75.5 -31.5h-225v-86h407v-68h-407v-160h-68v160h-407v68h407v86h-225q-44 0 -76 31.5t-32 75.5v177q0 44 32 76t76 32h225v79h-378v68h378v67zM260 503v-55h265v95h-225
q-17 0 -28.5 -11.5t-11.5 -28.5zM818 543h-225v-95h264v55q0 17 -11.5 28.5t-27.5 11.5zM300 287h225v93h-265v-54q0 -17 11.5 -28t28.5 -11zM818 287q16 0 27.5 11.5t11.5 27.5v54h-264v-93h225z" />
    <glyph glyph-name="cid7803" unicode="&#x8eca;" 
d="M525 825h68v-67h378v-68h-378v-79h225q44 0 75.5 -32t31.5 -76v-177q0 -44 -31.5 -75.5t-75.5 -31.5h-225v-86h407v-68h-407v-160h-68v160h-407v68h407v86h-225q-44 0 -76 31.5t-32 75.5v177q0 44 32 76t76 32h225v79h-378v68h378v67zM260 503v-55h265v95h-225
q-17 0 -28.5 -11.5t-11.5 -28.5zM818 543h-225v-95h264v55q0 17 -11.5 28.5t-27.5 11.5zM300 287h225v93h-265v-54q0 -17 11.5 -28t28.5 -11zM818 287q16 0 27.5 11.5t11.5 27.5v54h-264v-93h225z" />
    <glyph glyph-name="cid3980" unicode="&#x2f9f;" 
d="M816 624l62 -24l-74 -189h195v-68h-403v-182h373v-68h-373v-188h-68v188h-374v68h374v182h-404v68h195l-74 189l62 24l84 -213h340zM528 820h68v-92h373v-68h-815v68h374v92z" />
    <glyph glyph-name="cid3980" unicode="&#x8f9b;" 
d="M816 624l62 -24l-74 -189h195v-68h-403v-182h373v-68h-373v-188h-68v188h-374v68h374v182h-404v68h195l-74 189l62 24l84 -213h340zM528 820h68v-92h373v-68h-815v68h374v92z" />
    <glyph glyph-name="cid1250" unicode="&#x2fa0;" 
d="M608 -24v-68h-135q-52 0 -88.5 37t-36.5 89v313h-130l-28 -439l-68 3l49 765q4 52 39.5 88t86.5 36h685v-68h-685q-23 0 -39 -17.5t-19 -42.5l-17 -257h777v-68h-310l123 -158l139 106l41 -55l-138 -105l145 -187l-53 -42l-344 441h-186v-313q0 -24 16.5 -41t40.5 -17
h135zM306 539v68h661v-68h-661z" />
    <glyph glyph-name="cid1250" unicode="&#x8fb0;" 
d="M608 -24v-68h-135q-52 0 -88.5 37t-36.5 89v313h-130l-28 -439l-68 3l49 765q4 52 39.5 88t86.5 36h685v-68h-685q-23 0 -39 -17.5t-19 -42.5l-17 -257h777v-68h-310l123 -158l139 106l41 -55l-138 -105l145 -187l-53 -42l-344 441h-186v-313q0 -24 16.5 -41t40.5 -17
h135zM306 539v68h661v-68h-661z" />
    <glyph glyph-name="cid4191" unicode="&#x2fa2;" 
d="M875 151h-646v-134q0 -17 11.5 -28t27.5 -11h732v-68h-732q-44 0 -76 31.5t-32 75.5v340q0 44 32 75.5t76 31.5h607q44 0 76 -31.5t32 -75.5v-99q0 -44 -32 -75.5t-76 -31.5zM305 818h529q44 0 75.5 -31.5t31.5 -75.5v-77q0 -44 -31.5 -75.5t-75.5 -31.5h-529
q-43 0 -74.5 31.5t-31.5 75.5v77q0 44 31 75.5t75 31.5zM834 750h-529q-16 0 -27 -11.5t-11 -27.5v-77q0 -16 11 -27.5t27 -11.5h529q16 0 27.5 11.5t11.5 27.5v77q0 16 -11.5 27.5t-27.5 11.5zM229 357v-138h312v177h-273q-16 0 -27.5 -11t-11.5 -28zM875 396h-266v-177
h266q17 0 28.5 11.5t11.5 27.5v99q0 16 -11.5 27.5t-28.5 11.5z" />
    <glyph glyph-name="cid4191" unicode="&#x9091;" 
d="M875 151h-646v-134q0 -17 11.5 -28t27.5 -11h732v-68h-732q-44 0 -76 31.5t-32 75.5v340q0 44 32 75.5t76 31.5h607q44 0 76 -31.5t32 -75.5v-99q0 -44 -32 -75.5t-76 -31.5zM305 818h529q44 0 75.5 -31.5t31.5 -75.5v-77q0 -44 -31.5 -75.5t-75.5 -31.5h-529
q-43 0 -74.5 31.5t-31.5 75.5v77q0 44 31 75.5t75 31.5zM834 750h-529q-16 0 -27 -11.5t-11 -27.5v-77q0 -16 11 -27.5t27 -11.5h529q16 0 27.5 11.5t11.5 27.5v77q0 16 -11.5 27.5t-27.5 11.5zM229 357v-138h312v177h-273q-16 0 -27.5 -11t-11.5 -28zM875 396h-266v-177
h266q17 0 28.5 11.5t11.5 27.5v99q0 16 -11.5 27.5t-28.5 11.5z" />
    <glyph glyph-name="cid4276" unicode="&#x2fa3;" 
d="M850 -90h-574q-52 0 -89 36.5t-37 88.5v442q0 52 37 89t89 37h131l-1 132h-280v68h874v-68h-288v-132h138q52 0 89 -37t37 -89v-442q0 -52 -37 -88.5t-89 -36.5zM218 477v-313h690v93h-137q-52 -1 -89.5 35.5t-37.5 89.5v153h-170q-15 -205 -220 -309l-31 61
q169 86 182 248h-129q-24 0 -41 -17t-17 -41zM276 -22h574q24 0 41 17t17 40v61h-690v-61q0 -23 17 -40t41 -17zM850 535h-138v-153q0 -23 17 -40.5t40 -16.5h139v152q0 24 -17 41t-41 17zM474 735l1 -132h169v132h-170z" />
    <glyph glyph-name="cid4276" unicode="&#x9149;" 
d="M850 -90h-574q-52 0 -89 36.5t-37 88.5v442q0 52 37 89t89 37h131l-1 132h-280v68h874v-68h-288v-132h138q52 0 89 -37t37 -89v-442q0 -52 -37 -88.5t-89 -36.5zM218 477v-313h690v93h-137q-52 -1 -89.5 35.5t-37.5 89.5v153h-170q-15 -205 -220 -309l-31 61
q169 86 182 248h-129q-24 0 -41 -17t-17 -41zM276 -22h574q24 0 41 17t17 40v61h-690v-61q0 -23 17 -40t41 -17zM850 535h-138v-153q0 -23 17 -40.5t40 -16.5h139v152q0 24 -17 41t-41 17zM474 735l1 -132h169v132h-170z" />
    <glyph glyph-name="cid2522" unicode="&#x2fa5;" 
d="M999 -27v-68h-871v68h401v148h-344v68h344v105h-205q-52 0 -89 36.5t-37 88.5v266q0 52 37 89t89 37h481q52 0 89 -37t37 -89v-266q0 -52 -37 -88.5t-89 -36.5h-208v-105h345v-68h-345v-148h402zM805 743h-208v-161h266v103q0 24 -17 41t-41 17zM266 685v-103h263v161
h-205q-24 0 -41 -17t-17 -41zM805 362q24 0 41 16.5t17 40.5v94h-266v-151h208zM324 362h205v151h-263v-94q0 -24 17 -40.5t41 -16.5z" />
    <glyph glyph-name="cid2522" unicode="&#x91cc;" 
d="M999 -27v-68h-871v68h401v148h-344v68h344v105h-205q-52 0 -89 36.5t-37 88.5v266q0 52 37 89t89 37h481q52 0 89 -37t37 -89v-266q0 -52 -37 -88.5t-89 -36.5h-208v-105h345v-68h-345v-148h402zM805 743h-208v-161h266v103q0 24 -17 41t-41 17zM266 685v-103h263v161
h-205q-24 0 -41 -17t-17 -41zM805 362q24 0 41 16.5t17 40.5v94h-266v-151h208zM324 362h205v151h-263v-94q0 -24 17 -40.5t41 -16.5z" />
    <glyph glyph-name="cid2241" unicode="&#x2fa6;" 
d="M935 347v-68h-351v-305h135l88 226l64 -24l-78 -202h190v-68h-867v68h191l-78 202l62 24l88 -226h137v305h-352v68h352v150h-269v69h605v-69h-268v-150h351zM999 452l-64 -24l-92 248q-9 24 -26 40t-37 16h-460q-21 0 -38 -16t-26 -40l-92 -248l-64 24l91 248
q16 43 50 71.5t79 28.5h460q44 0 78 -28.5t50 -71.5z" />
    <glyph glyph-name="cid2241" unicode="&#x91d1;" 
d="M935 347v-68h-351v-305h135l88 226l64 -24l-78 -202h190v-68h-867v68h191l-78 202l62 24l88 -226h137v305h-352v68h352v150h-269v69h605v-69h-268v-150h351zM999 452l-64 -24l-92 248q-9 24 -26 40t-37 16h-460q-21 0 -38 -16t-26 -40l-92 -248l-64 24l91 248
q16 43 50 71.5t79 28.5h460q44 0 78 -28.5t50 -71.5z" />
    <glyph glyph-name="cid1714" unicode="&#x2fa9;" 
d="M402 818h68v-81h394q37 0 63 -26t26 -63v-51q0 -37 -26 -63.5t-63 -26.5h-622v-49h627q37 0 63.5 -26.5t26.5 -62.5v-55q0 -37 -26.5 -63t-63.5 -26h-271v-100h402v-68h-402v-149h-68v149h-402v68h402v100h-267q-37 0 -63 26t-26 63v334q0 37 26 63t63 26h139v81z
M869 390h-627v-76q0 -9 6 -15t15 -6h606q9 0 15.5 6t6.5 15v55q0 8 -6.5 14.5t-15.5 6.5zM242 648v-72h622q9 0 15 6t6 15v51q0 9 -6 15t-15 6h-601q-9 0 -15 -6t-6 -15z" />
    <glyph glyph-name="cid1714" unicode="&#x961c;" 
d="M402 818h68v-81h394q37 0 63 -26t26 -63v-51q0 -37 -26 -63.5t-63 -26.5h-622v-49h627q37 0 63.5 -26.5t26.5 -62.5v-55q0 -37 -26.5 -63t-63.5 -26h-271v-100h402v-68h-402v-149h-68v149h-402v68h402v100h-267q-37 0 -63 26t-26 63v334q0 37 26 63t63 26h139v81z
M869 390h-627v-76q0 -9 6 -15t15 -6h606q9 0 15.5 6t6.5 15v55q0 8 -6.5 14.5t-15.5 6.5zM242 648v-72h622q9 0 15 6t6 15v51q0 9 -6 15t-15 6h-601q-9 0 -15 -6t-6 -15z" />
    <glyph glyph-name="cid2542" unicode="&#x2faa;" 
d="M122 -41l-26 63l417 171v147h-324v68h324v101h-403v68h403v104h-324v68h324v72h68v-72h226q44 0 75.5 -32t31.5 -76v-64h83v-68h-83v-61q0 -44 -31.5 -76t-75.5 -32h-226v-38l146 -110l192 123l37 -57l-171 -110l215 -162l-41 -55l-378 285v-181q0 -52 -37 -89t-89 -37
h-64v68h64q24 0 41 17t17 41v85zM807 681h-226v-104h265v64q0 17 -11.5 28.5t-27.5 11.5zM807 408q16 0 27.5 11.5t11.5 28.5v61h-265v-101h226zM128 207v68h311v-68h-311z" />
    <glyph glyph-name="cid2542" unicode="&#x96b6;" 
d="M122 -41l-26 63l417 171v147h-324v68h324v101h-403v68h403v104h-324v68h324v72h68v-72h226q44 0 75.5 -32t31.5 -76v-64h83v-68h-83v-61q0 -44 -31.5 -76t-75.5 -32h-226v-38l146 -110l192 123l37 -57l-171 -110l215 -162l-41 -55l-378 285v-181q0 -52 -37 -89t-89 -37
h-64v68h64q24 0 41 17t17 41v85zM807 681h-226v-104h265v64q0 17 -11.5 28.5t-27.5 11.5zM807 408q16 0 27.5 11.5t11.5 28.5v61h-265v-101h226zM128 207v68h311v-68h-311z" />
    <glyph glyph-name="cid7545" unicode="&#x2fab;" 
d="M623 809h68v-111h308v-68h-308v-163h308v-68h-308v-163h308v-68h-308v-157h308v-68h-676v-36h-68v746l-107 -97l-46 49l221 203v-110h300v111zM323 399v-163h300v163h-300zM323 630v-163h300v163h-300zM323 168v-157h300v157h-300z" />
    <glyph glyph-name="cid7545" unicode="&#x96b9;" 
d="M623 809h68v-111h308v-68h-308v-163h308v-68h-308v-163h308v-68h-308v-157h308v-68h-676v-36h-68v746l-107 -97l-46 49l221 203v-110h300v111zM323 399v-163h300v163h-300zM323 630v-163h300v163h-300zM323 168v-157h300v157h-300z" />
    <glyph glyph-name="cid4303" unicode="&#x2fac;" 
d="M132 738v68h867v-68h-399v-109h250q52 0 89 -37t37 -89v-472q0 -52 -37 -88.5t-89 -36.5h-64v68h64q24 0 41 17t17 40v472q0 24 -17 41t-41 17h-250v-657h-68v657h-251q-24 0 -41 -17t-17 -41v-599h-68v599q0 52 37 89t89 37h251v109h-400zM658 345v68h195v-68h-195z
M658 123v68h195v-68h-195zM282 123v68h194v-68h-194zM282 345v68h194v-68h-194z" />
    <glyph glyph-name="cid4303" unicode="&#x96e8;" 
d="M132 738v68h867v-68h-399v-109h250q52 0 89 -37t37 -89v-472q0 -52 -37 -88.5t-89 -36.5h-64v68h64q24 0 41 17t17 40v472q0 24 -17 41t-41 17h-250v-657h-68v657h-251q-24 0 -41 -17t-17 -41v-599h-68v599q0 52 37 89t89 37h251v109h-400zM658 345v68h195v-68h-195z
M658 123v68h195v-68h-195zM282 123v68h194v-68h-194zM282 345v68h194v-68h-194z" />
    <glyph glyph-name="cid1636" unicode="&#x2fae;" 
d="M651 821h68v-107h281v-68h-281v-237h281v-68h-281v-221h281v-68h-281v-144h-68v913zM398 821h68v-913h-68v144h-280v68h280v221h-280v68h280v237h-280v68h280v107z" />
    <glyph glyph-name="cid1636" unicode="&#x975e;" 
d="M651 821h68v-107h281v-68h-281v-237h281v-68h-281v-221h281v-68h-281v-144h-68v913zM398 821h68v-913h-68v144h-280v68h280v221h-280v68h280v237h-280v68h280v107z" />
    <glyph glyph-name="cid2795" unicode="&#x2faf;" 
d="M132 727v68h868v-68h-421l-35 -106h288q52 0 89 -37t37 -89v-459q0 -52 -37 -89t-89 -37h-532q-52 0 -89 37t-37 89v459q0 52 37 89t89 37h172l36 106h-376zM832 553h-79v-575h79q24 0 41 16.5t17 41.5v459q0 24 -17 41t-41 17zM300 -22h78v575h-78q-24 0 -41 -17
t-17 -41v-459q0 -25 17 -41.5t41 -16.5zM446 343v-152h239v152h-239zM446 123v-145h239v145h-239zM446 553v-142h239v142h-239z" />
    <glyph glyph-name="cid2795" unicode="&#x9762;" 
d="M132 727v68h868v-68h-421l-35 -106h288q52 0 89 -37t37 -89v-459q0 -52 -37 -89t-89 -37h-532q-52 0 -89 37t-37 89v459q0 52 37 89t89 37h172l36 106h-376zM832 553h-79v-575h79q24 0 41 16.5t17 41.5v459q0 24 -17 41t-41 17zM300 -22h78v575h-78q-24 0 -41 -17
t-17 -41v-459q0 -25 17 -41.5t41 -16.5zM446 343v-152h239v152h-239zM446 123v-145h239v145h-239zM446 553v-142h239v142h-239z" />
    <glyph glyph-name="cid1770" unicode="&#x2fb0;" 
d="M771 822h68v-82h160v-68h-160v-55q0 -44 -32 -76t-76 -32h-136v-57h237q44 0 76 -31.5t32 -75.5v-63q0 -44 -32 -76t-76 -32h-237v-68h404v-68h-404v-133h-68v133h-405v68h405v68h-238q-44 0 -76 32t-32 76v63q0 44 32 75.5t76 31.5h238v57h-137q-44 0 -76 32t-32 76v55
h-160v68h160v82h68v-82h421v82zM731 577q17 0 28.5 11.5t11.5 28.5v55h-421v-55q0 -17 12 -28.5t28 -11.5h341zM289 243h238v141h-238q-17 0 -28.5 -11.5t-11.5 -27.5v-63q0 -16 11.5 -27.5t28.5 -11.5zM832 384h-237v-141h237q17 0 28.5 11.5t11.5 27.5v63q0 16 -11.5 27.5
t-28.5 11.5z" />
    <glyph glyph-name="cid1770" unicode="&#x9769;" 
d="M771 822h68v-82h160v-68h-160v-55q0 -44 -32 -76t-76 -32h-136v-57h237q44 0 76 -31.5t32 -75.5v-63q0 -44 -32 -76t-76 -32h-237v-68h404v-68h-404v-133h-68v133h-405v68h405v68h-238q-44 0 -76 32t-32 76v63q0 44 32 75.5t76 31.5h238v57h-137q-44 0 -76 32t-32 76v55
h-160v68h160v82h68v-82h421v82zM731 577q17 0 28.5 11.5t11.5 28.5v55h-421v-55q0 -17 12 -28.5t28 -11.5h341zM289 243h238v141h-238q-17 0 -28.5 -11.5t-11.5 -27.5v-63q0 -16 11.5 -27.5t28.5 -11.5zM832 384h-237v-141h237q17 0 28.5 11.5t11.5 27.5v63q0 16 -11.5 27.5
t-28.5 11.5z" />
    <glyph glyph-name="cid2289" unicode="&#x2fb2;" 
d="M144 -94v68h274v166h-268v69h268v176h-268v68h268v189h-268v68h268v112h68v-848h176v848h68v-112h270v-68h-270v-189h270v-68h-270v-176h270v-69h-270v-166h270v-68h-856z" />
    <glyph glyph-name="cid2289" unicode="&#x97ed;" 
d="M144 -94v68h274v166h-268v69h268v176h-268v68h268v189h-268v68h268v112h68v-848h176v848h68v-112h270v-68h-270v-189h270v-68h-270v-176h270v-69h-270v-166h270v-68h-856z" />
    <glyph glyph-name="cid4219" unicode="&#x2fb3;" 
d="M829 -88h-514q-44 0 -75.5 31.5t-31.5 75.5v248q0 44 31.5 75.5t75.5 31.5h514q44 0 75.5 -31.5t31.5 -75.5v-248q0 -44 -31.5 -75.5t-75.5 -31.5zM793 644l64 -22l-44 -121h187v-68h-856v68h187l-44 120l64 24l53 -144h337zM276 267v-90h592v90q0 17 -11 28t-28 11h-514
q-17 0 -28 -11t-11 -28zM315 -20h514q17 0 28 11t11 28v89h-592v-89q0 -17 11 -28t28 -11zM538 822h68v-84h363v-68h-793v68h362v84z" />
    <glyph glyph-name="cid4219" unicode="&#x97f3;" 
d="M829 -88h-514q-44 0 -75.5 31.5t-31.5 75.5v248q0 44 31.5 75.5t75.5 31.5h514q44 0 75.5 -31.5t31.5 -75.5v-248q0 -44 -31.5 -75.5t-75.5 -31.5zM793 644l64 -22l-44 -121h187v-68h-856v68h187l-44 120l64 24l53 -144h337zM276 267v-90h592v90q0 17 -11 28t-28 11h-514
q-17 0 -28 -11t-11 -28zM315 -20h514q17 0 28 11t11 28v89h-592v-89q0 -17 11 -28t28 -11zM538 822h68v-84h363v-68h-793v68h362v84z" />
    <glyph glyph-name="cid7936" unicode="&#x2fb5;" 
d="M406 468h89v113h-173v68h413v-68h-172v-113h88q37 0 63 -26.5t26 -62.5v-91q0 -37 -26 -63.5t-63 -26.5h-88v-146h114q16 0 27.5 11.5t11.5 28.5v53h68v-53q0 -44 -31.5 -76t-75.5 -32h-398v68h216v146h-89q-37 0 -63 26.5t-26 63.5v91q0 36 26 62.5t63 26.5zM184 -95
l-68 5l56 766q3 51 39 86.5t87 35.5h473q52 0 89 -36.5t37 -88.5v-642q0 -24 17 -41t41 -17h45v-68h-45q-52 0 -89 37t-37 89v642q0 23 -16.5 40t-41.5 17h-473q-23 0 -39.5 -17.5t-18.5 -42.5q-9 -118 -56 -765zM385 288q0 -9 6 -15.5t15 -6.5h89v134h-89q-9 0 -15 -6
t-6 -15v-91zM651 400h-88v-134h88q9 0 15 6.5t6 15.5v91q0 9 -6 15t-15 6z" />
    <glyph glyph-name="cid7936" unicode="&#x98a8;" 
d="M406 468h89v113h-173v68h413v-68h-172v-113h88q37 0 63 -26.5t26 -62.5v-91q0 -37 -26 -63.5t-63 -26.5h-88v-146h114q16 0 27.5 11.5t11.5 28.5v53h68v-53q0 -44 -31.5 -76t-75.5 -32h-398v68h216v146h-89q-37 0 -63 26.5t-26 63.5v91q0 36 26 62.5t63 26.5zM184 -95
l-68 5l56 766q3 51 39 86.5t87 35.5h473q52 0 89 -36.5t37 -88.5v-642q0 -24 17 -41t41 -17h45v-68h-45q-52 0 -89 37t-37 89v642q0 23 -16.5 40t-41.5 17h-473q-23 0 -39.5 -17.5t-18.5 -42.5q-9 -118 -56 -765zM385 288q0 -9 6 -15.5t15 -6.5h89v134h-89q-9 0 -15 -6
t-6 -15v-91zM651 400h-88v-134h88q9 0 15 6.5t6 15.5v91q0 9 -6 15t-15 6z" />
    <glyph glyph-name="cid7924" unicode="&#x2fb6;" 
d="M479 680h68v-309h205q-34 -127 -34 -194q0 -200 229 -200q11 0 47 2l4 -68q-36 -2 -51 -2q-297 0 -297 268q0 59 15 126h-118v-388h-68v388h-181q-6 -110 -34.5 -203.5t-94.5 -184.5l-55 40q104 141 116 348h-112v68h114v209l-69 -8l-7 68l234 29l7 -68l-97 -12v-218h179
v309zM151 743v68h613q-34 -127 -34 -187q0 -189 218 -189q12 0 46 2l4 -68q-34 -2 -50 -2q-286 0 -286 257q0 58 14 119h-525zM976 345l23 -64l-220 -87l-24 65zM999 101l-23 -64l-221 86l24 64zM999 553l-23 -64l-221 82l24 64zM976 786l23 -64l-220 -82l-24 64z" />
    <glyph glyph-name="cid7924" unicode="&#x98db;" 
d="M479 680h68v-309h205q-34 -127 -34 -194q0 -200 229 -200q11 0 47 2l4 -68q-36 -2 -51 -2q-297 0 -297 268q0 59 15 126h-118v-388h-68v388h-181q-6 -110 -34.5 -203.5t-94.5 -184.5l-55 40q104 141 116 348h-112v68h114v209l-69 -8l-7 68l234 29l7 -68l-97 -12v-218h179
v309zM151 743v68h613q-34 -127 -34 -187q0 -189 218 -189q12 0 46 2l4 -68q-34 -2 -50 -2q-286 0 -286 257q0 58 14 119h-525zM976 345l23 -64l-220 -87l-24 65zM999 101l-23 -64l-221 86l24 64zM999 553l-23 -64l-221 82l24 64zM976 786l23 -64l-220 -82l-24 64z" />
    <glyph glyph-name="cid3402" unicode="&#x2fb7;" 
d="M524 669h68v-111h216q44 0 75 -31t31 -76v-147q0 -44 -31 -76t-75 -32h-210l168 -98l162 90l33 -59l-126 -70l163 -94l-35 -59l-503 290h-190v-163q0 -25 17 -41.5t41 -16.5h134v-68h-134q-52 0 -89 37t-37 89v400q0 52 37 88.5t89 36.5h196v111zM999 549l-61 -30
l-86 177q-27 54 -76 54h-429q-47 0 -76 -55v1l-86 -177l-61 30l87 176q45 93 136 93h429q93 0 136 -93zM808 264q16 0 27 11.5t11 28.5v41h-576v-81h538zM270 433v-19h576v37q0 16 -11 27.5t-27 11.5h-480q-24 0 -41 -17t-17 -40z" />
    <glyph glyph-name="cid3402" unicode="&#x98df;" 
d="M524 669h68v-111h216q44 0 75 -31t31 -76v-147q0 -44 -31 -76t-75 -32h-210l168 -98l162 90l33 -59l-126 -70l163 -94l-35 -59l-503 290h-190v-163q0 -25 17 -41.5t41 -16.5h134v-68h-134q-52 0 -89 37t-37 89v400q0 52 37 88.5t89 36.5h196v111zM999 549l-61 -30
l-86 177q-27 54 -76 54h-429q-47 0 -76 -55v1l-86 -177l-61 30l87 176q45 93 136 93h429q93 0 136 -93zM808 264q16 0 27 11.5t11 28.5v41h-576v-81h538zM270 433v-19h576v37q0 16 -11 27.5t-27 11.5h-480q-24 0 -41 -17t-17 -40z" />
    <glyph glyph-name="cid3438" unicode="&#x2fb8;" 
d="M779 824h68v-99h152v-68h-400v-91h218q52 0 89 -37t37 -89v-407q0 -52 -37 -89t-89 -37h-504q-52 0 -89 37t-37 89v407q0 52 37 89t89 37h218v91h-401v68h153v99h68v-99h428v99zM255 304v-134h620v134h-620zM313 -25h504q24 0 41 17t17 41v69h-620v-69q0 -24 17 -41
t41 -17zM255 440v-68h620v68q0 24 -17 41t-41 17h-504q-24 0 -41 -17t-17 -41z" />
    <glyph glyph-name="cid3438" unicode="&#x9996;" 
d="M779 824h68v-99h152v-68h-400v-91h218q52 0 89 -37t37 -89v-407q0 -52 -37 -89t-89 -37h-504q-52 0 -89 37t-37 89v407q0 52 37 89t89 37h218v91h-401v68h153v99h68v-99h428v99zM255 304v-134h620v134h-620zM313 -25h504q24 0 41 17t17 41v69h-620v-69q0 -24 17 -41
t41 -17zM255 440v-68h620v68q0 24 -17 41t-41 17h-504q-24 0 -41 -17t-17 -41z" />
    <glyph glyph-name="cid3920" unicode="&#x2fb9;" 
d="M780 -93h-463q-44 0 -76 31.5t-32 75.5v227q0 44 32 75.5t76 31.5h463q45 0 76 -31.5t31 -75.5v-227q0 -44 -31 -75.5t-76 -31.5zM198 748v68h700v-68h-315v-118h399v-68h-301l318 -206l-36 -58l-380 246v-171h-68v170q-141 -139 -400 -247l-25 62q214 90 344 204h-320
v68h401v118h-317zM317 -25h463q16 0 27.5 11.5t11.5 27.5v84h-542v-84q0 -16 11.5 -27.5t28.5 -11.5zM277 241v-75h542v75q0 17 -11.5 28t-27.5 11h-463q-17 0 -28.5 -11.5t-11.5 -27.5z" />
    <glyph glyph-name="cid3920" unicode="&#x9999;" 
d="M780 -93h-463q-44 0 -76 31.5t-32 75.5v227q0 44 32 75.5t76 31.5h463q45 0 76 -31.5t31 -75.5v-227q0 -44 -31 -75.5t-76 -31.5zM198 748v68h700v-68h-315v-118h399v-68h-301l318 -206l-36 -58l-380 246v-171h-68v170q-141 -139 -400 -247l-25 62q214 90 344 204h-320
v68h401v118h-317zM317 -25h463q16 0 27.5 11.5t11.5 27.5v84h-542v-84q0 -16 11.5 -27.5t28.5 -11.5zM277 241v-75h542v75q0 17 -11.5 28t-27.5 11h-463q-17 0 -28.5 -11.5t-11.5 -27.5z" />
    <glyph glyph-name="cid1824" unicode="&#x2fbb;" 
d="M292 -90h-68v381q0 44 32 76t76 32h471q44 0 75.5 -32t31.5 -76v-273q0 -44 -31.5 -76t-75.5 -32h-58v69h58q17 0 28 11.5t11 27.5v12h-550v-120zM205 374h-69v49q0 41 27.5 71.5t68.5 35.5v182q0 44 32 75.5t76 31.5h446q44 0 76 -31.5t32 -75.5v-181q43 -2 74 -33.5
t31 -74.5v-49h-69v49q0 17 -11 28t-28 11h-647q-16 0 -27.5 -11t-11.5 -28v-49zM300 712v-29h285q37 0 63.5 -26t26.5 -63v-63h151v181q0 16 -11.5 27.5t-28.5 11.5h-446q-17 0 -28.5 -11.5t-11.5 -27.5zM292 184v-86h550v86h-550zM292 291v-39h550v39q0 17 -11.5 28.5
t-27.5 11.5h-471q-17 0 -28.5 -11.5t-11.5 -28.5zM585 615h-285v-84h307v63q0 9 -6.5 15t-15.5 6z" />
    <glyph glyph-name="cid1824" unicode="&#x9aa8;" 
d="M292 -90h-68v381q0 44 32 76t76 32h471q44 0 75.5 -32t31.5 -76v-273q0 -44 -31.5 -76t-75.5 -32h-58v69h58q17 0 28 11.5t11 27.5v12h-550v-120zM205 374h-69v49q0 41 27.5 71.5t68.5 35.5v182q0 44 32 75.5t76 31.5h446q44 0 76 -31.5t32 -75.5v-181q43 -2 74 -33.5
t31 -74.5v-49h-69v49q0 17 -11 28t-28 11h-647q-16 0 -27.5 -11t-11.5 -28v-49zM300 712v-29h285q37 0 63.5 -26t26.5 -63v-63h151v181q0 16 -11.5 27.5t-28.5 11.5h-446q-17 0 -28.5 -11.5t-11.5 -27.5zM292 184v-86h550v86h-550zM292 291v-39h550v39q0 17 -11.5 28.5
t-27.5 11.5h-471q-17 0 -28.5 -11.5t-11.5 -28.5zM585 615h-285v-84h307v63q0 9 -6.5 15t-15.5 6z" />
    <glyph glyph-name="cid1754" unicode="&#x2fbc;" 
d="M907 558v-61q0 -36 -27 -62.5t-64 -26.5h-518q-37 0 -64.5 26.5t-27.5 62.5v61q0 37 27 63t65 26h518q38 0 64.5 -26t26.5 -63zM836 157v-78q0 -37 -27 -63t-64 -26h-364q-37 0 -64 26t-27 63v78q0 37 27 63t64 26h364q37 0 64 -26t27 -63zM209 -95h-68v332q0 52 37 89
t89 37h592q52 0 89 -37t37 -89v-203q0 -52 -37 -89t-89 -37h-45v68h45q24 0 41 17t17 41v203q0 24 -17 41t-41 17h-592q-24 0 -41 -17t-17 -41v-332zM523 823h68v-63h409v-68h-886v68h409v63zM839 497v61q0 9 -7 15t-16 6h-518q-10 0 -16.5 -6t-6.5 -15v-61q0 -9 6.5 -15
t16.5 -6h518q9 0 16 6t7 15zM768 79v78q0 9 -6.5 15t-16.5 6h-364q-10 0 -16.5 -6t-6.5 -15v-78q0 -9 6.5 -15t16.5 -6h364q10 0 16.5 6t6.5 15z" />
    <glyph glyph-name="cid1754" unicode="&#x9ad8;" 
d="M907 558v-61q0 -36 -27 -62.5t-64 -26.5h-518q-37 0 -64.5 26.5t-27.5 62.5v61q0 37 27 63t65 26h518q38 0 64.5 -26t26.5 -63zM836 157v-78q0 -37 -27 -63t-64 -26h-364q-37 0 -64 26t-27 63v78q0 37 27 63t64 26h364q37 0 64 -26t27 -63zM209 -95h-68v332q0 52 37 89
t89 37h592q52 0 89 -37t37 -89v-203q0 -52 -37 -89t-89 -37h-45v68h45q24 0 41 17t17 41v203q0 24 -17 41t-41 17h-592q-24 0 -41 -17t-17 -41v-332zM523 823h68v-63h409v-68h-886v68h409v63zM839 497v61q0 9 -7 15t-16 6h-518q-10 0 -16.5 -6t-6.5 -15v-61q0 -9 6.5 -15
t16.5 -6h518q9 0 16 6t7 15zM768 79v78q0 9 -6.5 15t-16.5 6h-364q-10 0 -16.5 -6t-6.5 -15v-78q0 -9 6.5 -15t16.5 -6h364q10 0 16.5 6t6.5 15z" />
    <glyph glyph-name="cid7660" unicode="&#x2fbd;" 
d="M488 179h68v-147q0 -52 -37 -89t-89 -37h-314l42 316h-72v68h62v425q0 44 32 76t76 32h284v-68h-284q-17 0 -28.5 -11.5t-11.5 -28.5v-73h324v-68h-324v-110h324v-68h-324v-106h361v-68h-350l-32 -248h235q24 0 41 17t17 41v147zM944 275l55 -39q-158 -221 -393 -326
l-28 62q223 102 366 303zM927 540l53 -43q-134 -172 -335 -254l-26 62q184 76 308 235zM917 813l52 -44q-125 -152 -311 -223l-24 65q169 64 283 202z" />
    <glyph glyph-name="cid7660" unicode="&#x9adf;" 
d="M488 179h68v-147q0 -52 -37 -89t-89 -37h-314l42 316h-72v68h62v425q0 44 32 76t76 32h284v-68h-284q-17 0 -28.5 -11.5t-11.5 -28.5v-73h324v-68h-324v-110h324v-68h-324v-106h361v-68h-350l-32 -248h235q24 0 41 17t17 41v147zM944 275l55 -39q-158 -221 -393 -326
l-28 62q223 102 366 303zM927 540l53 -43q-134 -172 -335 -254l-26 62q184 76 308 235zM917 813l52 -44q-125 -152 -311 -223l-24 65q169 64 283 202z" />
    <glyph glyph-name="cid7888" unicode="&#x2fbe;" 
d="M757 -91v68h116q24 0 41 17t17 40v787h68v-787q0 -52 -37 -88.5t-89 -36.5h-116zM282 -91h-68v910h68v-910zM879 641v-68h-71v-76h79v-68h-225v68h78v76h-71v68h71v75h-78v68h225v-68h-79v-75h71zM540 641v-68h-72v-76h78v-68h-224v68h78v76h-71v68h71v75h-78v68h224v-68
h-78v-75h72z" />
    <glyph glyph-name="cid7888" unicode="&#x9b25;" 
d="M757 -91v68h116q24 0 41 17t17 40v787h68v-787q0 -52 -37 -88.5t-89 -36.5h-116zM282 -91h-68v910h68v-910zM879 641v-68h-71v-76h79v-68h-225v68h78v76h-71v68h71v75h-78v68h225v-68h-79v-75h71zM540 641v-68h-72v-76h78v-68h-224v68h78v76h-71v68h71v75h-78v68h224v-68
h-78v-75h72z" />
    <glyph glyph-name="cid5019" unicode="&#x2fbf;" 
d="M947 254l17 -66q-328 -84 -717 -94v-77q0 -16 11.5 -27.5t28.5 -11.5h694v-69h-694q-44 0 -76 32t-32 76v255h68v-110q377 10 700 92zM931 800h68v-401q0 -45 -31.5 -76t-76.5 -31h-639q-45 0 -76.5 31t-31.5 76v401h68v-401q0 -16 12 -27.5t28 -11.5h639q16 0 28 11.5
t12 27.5v401zM304 741l37 57l233 -154q105 74 199 166l48 -48q-87 -84 -187 -158l229 -150l-37 -57l-252 166q-130 -88 -278 -157l-29 61q138 65 246 136zM607 718h-68v100h68v-100zM607 396h-68v99h68v-99zM365 553h-68v99h68v-99zM837 553h-68v99h68v-99z" />
    <glyph glyph-name="cid5019" unicode="&#x9b2f;" 
d="M947 254l17 -66q-328 -84 -717 -94v-77q0 -16 11.5 -27.5t28.5 -11.5h694v-69h-694q-44 0 -76 32t-32 76v255h68v-110q377 10 700 92zM931 800h68v-401q0 -45 -31.5 -76t-76.5 -31h-639q-45 0 -76.5 31t-31.5 76v401h68v-401q0 -16 12 -27.5t28 -11.5h639q16 0 28 11.5
t12 27.5v401zM304 741l37 57l233 -154q105 74 199 166l48 -48q-87 -84 -187 -158l229 -150l-37 -57l-252 166q-130 -88 -278 -157l-29 61q138 65 246 136zM607 718h-68v100h68v-100zM607 396h-68v99h68v-99zM365 553h-68v99h68v-99zM837 553h-68v99h68v-99z" />
    <glyph glyph-name="cid4704" unicode="&#x2fc0;" 
d="M802 431h-493q-45 0 -76 31.5t-31 76.5v48q0 45 31 76.5t76 31.5h493q44 0 75.5 -32t31.5 -76v-48q0 -44 -31.5 -76t-75.5 -32zM202 -95h-68v354q0 52 37 89t89 37h591q52 0 89 -37t37 -89v-225q0 -52 -37 -89t-89 -37h-45v68h45q24 0 41 17t17 41v225q0 25 -17 41.5
t-41 16.5h-591q-25 0 -41.5 -16.5t-16.5 -41.5v-354zM309 500h493q16 0 27.5 11t11.5 28v48q0 17 -11.5 28t-27.5 11h-493q-17 0 -28 -11t-11 -28v-48q0 -17 11 -28t28 -11zM718 300l61 -31l-44 -85h104v-68h-250v-199h-68v199h-249v68h103l-43 85l61 31l59 -116h206z
M1000 807v-68h-890v68h890z" />
    <glyph glyph-name="cid4704" unicode="&#x9b32;" 
d="M802 431h-493q-45 0 -76 31.5t-31 76.5v48q0 45 31 76.5t76 31.5h493q44 0 75.5 -32t31.5 -76v-48q0 -44 -31.5 -76t-75.5 -32zM202 -95h-68v354q0 52 37 89t89 37h591q52 0 89 -37t37 -89v-225q0 -52 -37 -89t-89 -37h-45v68h45q24 0 41 17t17 41v225q0 25 -17 41.5
t-41 16.5h-591q-25 0 -41.5 -16.5t-16.5 -41.5v-354zM309 500h493q16 0 27.5 11t11.5 28v48q0 17 -11.5 28t-27.5 11h-493q-17 0 -28 -11t-11 -28v-48q0 -17 11 -28t28 -11zM718 300l61 -31l-44 -85h104v-68h-250v-199h-68v199h-249v68h103l-43 85l61 31l59 -116h206z
M1000 807v-68h-890v68h890z" />
    <glyph glyph-name="cid1862" unicode="&#x2fc1;" 
d="M827 305h-280q-85 -261 -430 -396l-25 62q297 117 382 334h-211q-45 0 -76 31.5t-31 76.5v225q0 45 31 76.5t76 31.5h118v77h68v-77h378q44 0 75.5 -32t31.5 -76v-225q0 -44 -31.5 -76t-75.5 -32zM1000 -22v-68h-347q-52 0 -89 37t-37 89v206h68v-206q0 -24 17 -41
t41 -17h347zM733 284l64 -18l-52 -173h116q17 0 28 11.5t11 27.5v67h68v-67q0 -44 -31.5 -75.5t-75.5 -31.5h-206zM827 678h-249v-120h288v80q0 17 -11.5 28.5t-27.5 11.5zM224 638v-80h286v120h-247q-16 0 -27.5 -11.5t-11.5 -28.5zM827 373q16 0 27.5 11.5t11.5 28.5v77
h-289q-2 -64 -13 -117h263zM263 373h231q14 55 15 117h-285v-77q0 -17 11.5 -28.5t27.5 -11.5z" />
    <glyph glyph-name="cid1862" unicode="&#x9b3c;" 
d="M827 305h-280q-85 -261 -430 -396l-25 62q297 117 382 334h-211q-45 0 -76 31.5t-31 76.5v225q0 45 31 76.5t76 31.5h118v77h68v-77h378q44 0 75.5 -32t31.5 -76v-225q0 -44 -31.5 -76t-75.5 -32zM1000 -22v-68h-347q-52 0 -89 37t-37 89v206h68v-206q0 -24 17 -41
t41 -17h347zM733 284l64 -18l-52 -173h116q17 0 28 11.5t11 27.5v67h68v-67q0 -44 -31.5 -75.5t-75.5 -31.5h-206zM827 678h-249v-120h288v80q0 17 -11.5 28.5t-27.5 11.5zM224 638v-80h286v120h-247q-16 0 -27.5 -11.5t-11.5 -28.5zM827 373q16 0 27.5 11.5t11.5 28.5v77
h-289q-2 -64 -13 -117h263zM263 373h231q14 55 15 117h-285v-77q0 -17 11.5 -28.5t27.5 -11.5z" />
    <glyph glyph-name="cid2656" unicode="&#x2fc5;" 
d="M546 823h69v-67h367v-68h-245v-105h154q37 0 63.5 -26t26.5 -63v-65q0 -37 -26.5 -63.5t-63.5 -26.5h-660l-13 -430l-68 2l22 720q2 52 38 88.5t88 36.5h248v67zM665 303h68v-68h266v-68h-266v-149q0 -16 11.5 -27.5t28.5 -11.5h226v-68h-226q-44 0 -76 31.5t-32 75.5
v285zM293 303h68v-68h265v-68h-265v-149q0 -16 11 -27.5t27 -11.5h227v-68h-227q-45 0 -75.5 31t-30.5 76v285zM236 515l-3 -108h186v108h-183zM487 515v-108h182v108h-182zM487 688v-105h182v105h-182zM891 515h-154v-108h154q9 0 15.5 6.5t6.5 15.5v65q0 9 -6.5 15
t-15.5 6zM240 629l-2 -46h181v105h-121q-23 0 -39.5 -17.5t-18.5 -41.5z" />
    <glyph glyph-name="cid2656" unicode="&#x9e7f;" 
d="M546 823h69v-67h367v-68h-245v-105h154q37 0 63.5 -26t26.5 -63v-65q0 -37 -26.5 -63.5t-63.5 -26.5h-660l-13 -430l-68 2l22 720q2 52 38 88.5t88 36.5h248v67zM665 303h68v-68h266v-68h-266v-149q0 -16 11.5 -27.5t28.5 -11.5h226v-68h-226q-44 0 -76 31.5t-32 75.5
v285zM293 303h68v-68h265v-68h-265v-149q0 -16 11 -27.5t27 -11.5h227v-68h-227q-45 0 -75.5 31t-30.5 76v285zM236 515l-3 -108h186v108h-183zM487 515v-108h182v108h-182zM487 688v-105h182v105h-182zM891 515h-154v-108h154q9 0 15.5 6.5t6.5 15.5v65q0 9 -6.5 15
t-15.5 6zM240 629l-2 -46h181v105h-121q-23 0 -39.5 -17.5t-18.5 -41.5z" />
    <glyph glyph-name="cid8305" unicode="&#x2fc6;" 
d="M517 825h68v-66h401v-68h-163q-2 -34 -10 -62l170 -155l-46 -50l-152 139q-30 -53 -81 -96l295 -183l-35 -59l-379 235v-128h-68v119q-83 -63 -166 -113l36 -16l-23 -50h497q-66 -134 -181 -210l293 -89l-21 -64l-354 108q-170 -79 -470 -108l-6 68q234 22 382 69
l-255 79l21 64l334 -103q93 45 145 118h-492l51 109q-86 -49 -173 -87l-27 63q172 78 302 167l-115 108q-44 -77 -136 -138l-38 55q135 93 142 210h-148v68h402v66zM331 691q-1 -31 -9 -60l143 -135l52 42v153h-186zM643 504q105 83 112 187h-170v-151z" />
    <glyph glyph-name="cid8305" unicode="&#x9ea5;" 
d="M517 825h68v-66h401v-68h-163q-2 -34 -10 -62l170 -155l-46 -50l-152 139q-30 -53 -81 -96l295 -183l-35 -59l-379 235v-128h-68v119q-83 -63 -166 -113l36 -16l-23 -50h497q-66 -134 -181 -210l293 -89l-21 -64l-354 108q-170 -79 -470 -108l-6 68q234 22 382 69
l-255 79l21 64l334 -103q93 45 145 118h-492l51 109q-86 -49 -173 -87l-27 63q172 78 302 167l-115 108q-44 -77 -136 -138l-38 55q135 93 142 210h-148v68h402v66zM331 691q-1 -31 -9 -60l143 -135l52 42v153h-186zM643 504q105 83 112 187h-170v-151z" />
    <glyph glyph-name="cid2704" unicode="&#x2fc7;" 
d="M568 825h68v-76h361v-68h-712q-24 0 -40.5 -17.5t-17.5 -41.5l-25 -712l-68 1l25 713q2 52 38 88.5t88 36.5h283v76zM422 639h68v-101h134v-68h-134v-562h-68v562h-135v68h135v101zM797 639h68v-101h135v-68h-135v-562h-68v562h-134v68h134v101zM535 437h68v-531h-68v531
zM910 437h68v-531h-68v531zM685 437h68v-181q0 -106 -12 -185t-47 -162l-63 25q32 76 43 149t11 173v181zM309 437h68v-181q0 -106 -12 -185t-46 -162l-63 25q31 76 42 149t11 173v181z" />
    <glyph glyph-name="cid2704" unicode="&#x9ebb;" 
d="M568 825h68v-76h361v-68h-712q-24 0 -40.5 -17.5t-17.5 -41.5l-25 -712l-68 1l25 713q2 52 38 88.5t88 36.5h283v76zM422 639h68v-101h134v-68h-134v-562h-68v562h-135v68h135v101zM797 639h68v-101h135v-68h-135v-562h-68v562h-134v68h134v101zM535 437h68v-531h-68v531
zM910 437h68v-531h-68v531zM685 437h68v-181q0 -106 -12 -185t-47 -162l-63 25q32 76 43 149t11 173v181zM309 437h68v-181q0 -106 -12 -185t-46 -162l-63 25q31 76 42 149t11 173v181z" />
    <glyph glyph-name="cid3465" unicode="&#x2fc9;" 
d="M137 748v68h803v-68h-367v-95h413v-68h-286l288 -128l-27 -63l-388 173v-142h-68v138q-146 -105 -403 -171l-16 67q194 49 326 126h-320v68h413v95h-368zM171 177l-59 35l68 112q51 84 148 84h458q96 0 147 -84l67 -112l-59 -35l-67 112q-31 51 -88 51h-458
q-57 0 -90 -51zM408 -94v68h39q25 0 41.5 16.5t16.5 41.5v259h68v-259q0 -52 -37 -89t-89 -37h-39zM986 -1l-24 -65l-355 133l24 64zM123 -66l-24 65l353 132l24 -64zM243 206l18 67l206 -59l-19 -66zM822 273l18 -67l-205 -58l-18 66z" />
    <glyph glyph-name="cid3465" unicode="&#x9ecd;" 
d="M137 748v68h803v-68h-367v-95h413v-68h-286l288 -128l-27 -63l-388 173v-142h-68v138q-146 -105 -403 -171l-16 67q194 49 326 126h-320v68h413v95h-368zM171 177l-59 35l68 112q51 84 148 84h458q96 0 147 -84l67 -112l-59 -35l-67 112q-31 51 -88 51h-458
q-57 0 -90 -51zM408 -94v68h39q25 0 41.5 16.5t16.5 41.5v259h68v-259q0 -52 -37 -89t-89 -37h-39zM986 -1l-24 -65l-355 133l24 64zM123 -66l-24 65l353 132l24 -64zM243 206l18 67l206 -59l-19 -66zM822 273l18 -67l-205 -58l-18 66z" />
    <glyph glyph-name="cid1937" unicode="&#x2fca;" 
d="M988 188v-68h-839v68h385v91h-353v69h353v86h-248q-44 0 -76 32t-32 76v173q0 44 32 75.5t76 31.5h568q44 0 76 -31.5t32 -75.5v-173q0 -44 -32 -76t-76 -32h-252v-86h353v-69h-353v-91h386zM854 754h-252v-252h252q16 0 28 12t12 28v173q0 16 -11.5 27.5t-28.5 11.5z
M286 502h248v252h-248q-17 0 -28.5 -11.5t-11.5 -27.5v-173q0 -16 12 -28t28 -12zM888 88l66 17l45 -181l-67 -16zM183 105l66 -17l-44 -180l-67 16zM469 -91h-68v186h68v-186zM736 -91h-68v186h68v-186zM453 558l-63 -27l-68 155l63 28zM736 531l-62 27l69 156l62 -28z" />
    <glyph glyph-name="cid1937" unicode="&#x9ed1;" 
d="M988 188v-68h-839v68h385v91h-353v69h353v86h-248q-44 0 -76 32t-32 76v173q0 44 32 75.5t76 31.5h568q44 0 76 -31.5t32 -75.5v-173q0 -44 -32 -76t-76 -32h-252v-86h353v-69h-353v-91h386zM854 754h-252v-252h252q16 0 28 12t12 28v173q0 16 -11.5 27.5t-28.5 11.5z
M286 502h248v252h-248q-17 0 -28.5 -11.5t-11.5 -27.5v-173q0 -16 12 -28t28 -12zM888 88l66 17l45 -181l-67 -16zM183 105l66 -17l-44 -180l-67 16zM469 -91h-68v186h68v-186zM736 -91h-68v186h68v-186zM453 558l-63 -27l-68 155l63 28zM736 531l-62 27l69 156l62 -28z" />
    <glyph glyph-name="cid6741" unicode="&#x2fcb;" 
d="M615 -91h-68v462h-228q-24 0 -41 -16.5t-17 -41.5v-403h-68v403q0 42 24.5 75t63.5 45l-56 89l57 37l76 -120h189v135h-385v68h117l-80 119l57 39l107 -158h62v180h68v-180h176v180h68v-180h62l107 158l57 -39l-81 -119h118v-68h-385v-135h188l77 120l57 -37l-57 -89
q39 -12 64 -45.5t25 -74.5v-282q0 -51 -37 -88t-89 -37h-53v68h53q24 0 41 17t17 40v282q0 25 -17 41.5t-41 16.5h-228v-462zM794 13h-68v284h68v-284zM436 13h-68v284h68v-284z" />
    <glyph glyph-name="cid6741" unicode="&#x9ef9;" 
d="M615 -91h-68v462h-228q-24 0 -41 -16.5t-17 -41.5v-403h-68v403q0 42 24.5 75t63.5 45l-56 89l57 37l76 -120h189v135h-385v68h117l-80 119l57 39l107 -158h62v180h68v-180h176v180h68v-180h62l107 158l57 -39l-81 -119h118v-68h-385v-135h188l77 120l57 -37l-57 -89
q39 -12 64 -45.5t25 -74.5v-282q0 -51 -37 -88t-89 -37h-53v68h53q24 0 41 17t17 40v282q0 25 -17 41.5t-41 16.5h-228v-462zM794 13h-68v284h68v-284zM436 13h-68v284h68v-284z" />
    <glyph glyph-name="cid1509" unicode="&#x2fcd;" 
d="M373 821h362q37 0 63 -26t26 -63v-267q0 -37 -26.5 -63t-62.5 -26h-362q-37 0 -63 26t-26 63v267q0 37 26 63t63 26zM117 810h68v-422q0 -16 11.5 -28t28.5 -12h138q44 0 75.5 -31.5t31.5 -75.5v-333h-68v235h-133q-10 -83 -46 -137t-93 -97l-40 53q94 70 110 181h-100
v68h302v30q0 17 -11 28t-28 11h-138q-44 0 -76 32t-32 76v422zM943 -95h-68v238h-176v-235h-68v333q0 44 31.5 75.5t75.5 31.5h139q17 0 28.5 12t11.5 28v422h68v-422q0 -44 -32 -76t-76 -32h-139q-16 0 -27.5 -11t-11.5 -28v-30h301v-68h-57v-238zM735 753h-362
q-9 0 -15 -6t-6 -15v-40h404v40q0 9 -6.5 15t-14.5 6zM735 444q8 0 14.5 6t6.5 15v38h-404v-38q0 -9 6 -15t15 -6h362zM352 624v-53h404v53h-404z" />
    <glyph glyph-name="cid1509" unicode="&#x9f0e;" 
d="M373 821h362q37 0 63 -26t26 -63v-267q0 -37 -26.5 -63t-62.5 -26h-362q-37 0 -63 26t-26 63v267q0 37 26 63t63 26zM117 810h68v-422q0 -16 11.5 -28t28.5 -12h138q44 0 75.5 -31.5t31.5 -75.5v-333h-68v235h-133q-10 -83 -46 -137t-93 -97l-40 53q94 70 110 181h-100
v68h302v30q0 17 -11 28t-28 11h-138q-44 0 -76 32t-32 76v422zM943 -95h-68v238h-176v-235h-68v333q0 44 31.5 75.5t75.5 31.5h139q17 0 28.5 12t11.5 28v422h68v-422q0 -44 -32 -76t-76 -32h-139q-16 0 -27.5 -11t-11.5 -28v-30h301v-68h-57v-238zM735 753h-362
q-9 0 -15 -6t-6 -15v-40h404v40q0 9 -6.5 15t-14.5 6zM735 444q8 0 14.5 6t6.5 15v38h-404v-38q0 -9 6 -15t15 -6h362zM352 624v-53h404v53h-404z" />
    <glyph glyph-name="cid1821" unicode="&#x2fce;" 
d="M551 400v68h184v174h-190v68h190v109h68v-109h191v-68h-191v-174h185q-68 -187 -171 -320l182 -193l-50 -46l-175 187q-97 -110 -226 -187l-35 59q122 72 216 176l-169 181l50 46l162 -174q69 88 117 203h-338zM189 466h218q37 0 63.5 -26t26.5 -63v-109
q0 -37 -26.5 -63.5t-63.5 -26.5h-218q-36 0 -62.5 26.5t-26.5 63.5v109q0 37 26.5 63t62.5 26zM496 571v-68h-395v68h163v116h-182v68h182v70h68v-70h183v-68h-183v-116h164zM517 48l11 -68l-437 -69l-11 68l89 14l-45 146l65 20l48 -155l129 20l41 135l65 -20l-32 -103z
M407 398h-218q-9 0 -15 -6t-6 -15v-109q0 -9 6 -15.5t15 -6.5h218q9 0 15.5 6.5t6.5 15.5v109q0 9 -6.5 15t-15.5 6z" />
    <glyph glyph-name="cid1821" unicode="&#x9f13;" 
d="M551 400v68h184v174h-190v68h190v109h68v-109h191v-68h-191v-174h185q-68 -187 -171 -320l182 -193l-50 -46l-175 187q-97 -110 -226 -187l-35 59q122 72 216 176l-169 181l50 46l162 -174q69 88 117 203h-338zM189 466h218q37 0 63.5 -26t26.5 -63v-109
q0 -37 -26.5 -63.5t-63.5 -26.5h-218q-36 0 -62.5 26.5t-26.5 63.5v109q0 37 26.5 63t62.5 26zM496 571v-68h-395v68h163v116h-182v68h182v70h68v-70h183v-68h-183v-116h164zM517 48l11 -68l-437 -69l-11 68l89 14l-45 146l65 20l48 -155l129 20l41 135l65 -20l-32 -103z
M407 398h-218q-9 0 -15 -6t-6 -15v-109q0 -9 6 -15.5t15 -6.5h218q9 0 15.5 6.5t6.5 15.5v109q0 9 -6.5 15t-15.5 6z" />
    <glyph glyph-name="cid3466" unicode="&#x2fcf;" 
d="M478 645v-68h-260v-62q0 -16 11.5 -28t27.5 -12h560q17 0 28.5 11.5t11.5 28.5v62h-260v68h260v62q0 16 -11.5 27.5t-28.5 11.5h-219v69h219q44 0 76 -32t32 -76v-192q0 -44 -32 -76t-76 -32h-560q-45 0 -76 31.5t-31 76.5v192q0 45 31 76.5t76 31.5h220v-69h-220
q-16 0 -27.5 -11.5t-11.5 -27.5v-62h260zM442 -25v-69h-156q-52 0 -89 37.5t-37 89.5v347h68v-347q0 -25 17 -41.5t41 -16.5h156zM789 -25v-69h-155q-52 0 -89 37.5t-37 89.5v347h68v-347q0 -25 17 -41.5t41 -16.5h155zM1000 -25v-69h-45q-52 0 -89 37.5t-37 89.5v347h68
v-347q0 -25 17 -41.5t41 -16.5h45zM442 291v-68h-169v68h169zM442 128v-68h-169v68h169zM789 128v-68h-168v68h168zM789 291v-68h-168v68h168z" />
    <glyph glyph-name="cid3466" unicode="&#x9f20;" 
d="M478 645v-68h-260v-62q0 -16 11.5 -28t27.5 -12h560q17 0 28.5 11.5t11.5 28.5v62h-260v68h260v62q0 16 -11.5 27.5t-28.5 11.5h-219v69h219q44 0 76 -32t32 -76v-192q0 -44 -32 -76t-76 -32h-560q-45 0 -76 31.5t-31 76.5v192q0 45 31 76.5t76 31.5h220v-69h-220
q-16 0 -27.5 -11.5t-11.5 -27.5v-62h260zM442 -25v-69h-156q-52 0 -89 37.5t-37 89.5v347h68v-347q0 -25 17 -41.5t41 -16.5h156zM789 -25v-69h-155q-52 0 -89 37.5t-37 89.5v347h68v-347q0 -25 17 -41.5t41 -16.5h155zM1000 -25v-69h-45q-52 0 -89 37.5t-37 89.5v347h68
v-347q0 -25 17 -41.5t41 -16.5h45zM442 291v-68h-169v68h169zM442 128v-68h-169v68h169zM789 128v-68h-168v68h168zM789 291v-68h-168v68h168z" />
    <glyph glyph-name="cid1072" unicode="&#x2fd0;" 
d="M219 502v201q0 29 21 50t50 21h135v45h68v-45h331q29 0 50 -21t21 -50v-201q0 -29 -21 -50t-50 -21h-534q-29 0 -50 21t-21 50zM179 196v140q0 29 21 50t50 21h626q29 0 50 -21t21 -50v-140q0 -29 -21 -50t-50 -21h-626q-29 0 -50 21t-21 50zM829 -92h-68v125h-374
q-45 -104 -232 -127l-10 68q119 16 160 59h-179v68h874v-68h-171v-125zM287 615v-26h540v26h-540zM287 703v-20h540v20q0 3 -3 3h-534q-3 0 -3 -3zM824 499q3 0 3 3v19h-540v-19q0 -3 3 -3h534zM247 336v-37h282v40h-279q-3 0 -3 -3zM876 339h-279v-40h282v37q0 3 -3 3z
M876 193q3 0 3 3v35h-282v-38h279zM247 196q0 -3 3 -3h279v38h-282v-35z" />
    <glyph glyph-name="cid1072" unicode="&#x9f3b;" 
d="M219 502v201q0 29 21 50t50 21h135v45h68v-45h331q29 0 50 -21t21 -50v-201q0 -29 -21 -50t-50 -21h-534q-29 0 -50 21t-21 50zM179 196v140q0 29 21 50t50 21h626q29 0 50 -21t21 -50v-140q0 -29 -21 -50t-50 -21h-626q-29 0 -50 21t-21 50zM829 -92h-68v125h-374
q-45 -104 -232 -127l-10 68q119 16 160 59h-179v68h874v-68h-171v-125zM287 615v-26h540v26h-540zM287 703v-20h540v20q0 3 -3 3h-534q-3 0 -3 -3zM824 499q3 0 3 3v19h-540v-19q0 -3 3 -3h534zM247 336v-37h282v40h-279q-3 0 -3 -3zM876 339h-279v-40h282v37q0 3 -3 3z
M876 193q3 0 3 3v35h-282v-38h279zM247 196q0 -3 3 -3h279v38h-282v-35z" />
    <glyph glyph-name="cid8247" unicode="&#x2fd3;" 
d="M979 116v-69h-328v-34q0 -16 11.5 -27.5t28.5 -11.5h308v-68h-308q-44 0 -76 31.5t-32 75.5v361q0 44 32 76t76 32h205q8 0 14 6t6 15v47q0 9 -6 15t-14 6h-205q-45 0 -76.5 31t-31.5 76v141h68v-45h328v-68h-328v-28q0 -16 12 -27.5t28 -11.5h205q37 0 62.5 -26
t25.5 -63v-47q0 -37 -25.5 -63t-62.5 -26h-205q-17 0 -28.5 -12t-11.5 -28v-20h328v-68h-328v-50h328v-68h-328v-52h328zM176 -95h-68v427q0 44 31 75.5t75 31.5h206q44 0 75.5 -31.5t31.5 -75.5v-316q0 -44 -31.5 -75.5t-75.5 -31.5l-50 -1v68l50 1q16 0 27.5 11.5
t11.5 27.5v31h-283v-142zM549 551v-68h-467v68h73v94h69v-94h184v94h68v-94h73zM533 763v-68h-435v68h184v59h68v-59h183zM176 209v-94h283v94h-283zM176 332v-55h283v55q0 16 -11.5 27.5t-27.5 11.5h-206q-16 0 -27 -11.5t-11 -27.5z" />
    <glyph glyph-name="cid8247" unicode="&#x9f8d;" 
d="M979 116v-69h-328v-34q0 -16 11.5 -27.5t28.5 -11.5h308v-68h-308q-44 0 -76 31.5t-32 75.5v361q0 44 32 76t76 32h205q8 0 14 6t6 15v47q0 9 -6 15t-14 6h-205q-45 0 -76.5 31t-31.5 76v141h68v-45h328v-68h-328v-28q0 -16 12 -27.5t28 -11.5h205q37 0 62.5 -26
t25.5 -63v-47q0 -37 -25.5 -63t-62.5 -26h-205q-17 0 -28.5 -12t-11.5 -28v-20h328v-68h-328v-50h328v-68h-328v-52h328zM176 -95h-68v427q0 44 31 75.5t75 31.5h206q44 0 75.5 -31.5t31.5 -75.5v-316q0 -44 -31.5 -75.5t-75.5 -31.5l-50 -1v68l50 1q16 0 27.5 11.5
t11.5 27.5v31h-283v-142zM549 551v-68h-467v68h73v94h69v-94h184v94h68v-94h73zM533 763v-68h-435v68h184v59h68v-59h183zM176 209v-94h283v94h-283zM176 332v-55h283v55q0 16 -11.5 27.5t-27.5 11.5h-206q-16 0 -27 -11.5t-11 -27.5z" />
    <glyph glyph-name="cid4851" unicode="&#x2fd5;" 
d="M227 -94h-68v271q0 44 30.5 76t73.5 32h617q43 0 73.5 -32t30.5 -76v-271h-68v128h-175v-124h-68v124h-203v-124h-68v124h-175v-128zM207 562l-63 27l58 127q22 49 60.5 76t84.5 27h449q46 0 84.5 -27t60.5 -76l58 -127l-63 -27l-58 127v-1q-30 63 -82 63h-449
q-52 0 -82 -63v1zM804 545h93q35 0 60.5 -26t25.5 -63v-48q0 -37 -25.5 -63t-60.5 -26h-93q-37 0 -62 26t-25 63v48q0 37 25 63t62 26zM524 545h93q35 0 61 -26t26 -63v-48q0 -37 -26 -63t-61 -26h-93q-36 0 -61 26t-25 63v48q0 37 25 63t61 26zM246 545h93q35 0 61 -26
t26 -63v-48q0 -37 -26 -63t-61 -26h-93q-35 0 -60.5 26t-25.5 63v48q0 37 25.5 63t60.5 26zM313 611v68h517v-68h-517zM470 217v-115h203v115h-203zM227 177v-75h175v115h-139q-15 0 -25.5 -11.5t-10.5 -28.5zM880 217h-139v-115h175v75q0 17 -10.5 28.5t-25.5 11.5z
M339 477h-93q-8 0 -13 -6t-5 -15v-48q0 -9 5 -15t13 -6h93q8 0 13.5 6t5.5 15v48q0 9 -5.5 15t-13.5 6zM897 477h-93q-8 0 -13.5 -6t-5.5 -15v-48q0 -9 5.5 -15t13.5 -6h93q8 0 13 6t5 15v48q0 9 -5 15t-13 6zM617 477h-93q-8 0 -13 -6t-5 -15v-48q0 -9 5 -15t13 -6h93
q8 0 13 6t5 15v48q0 9 -5 15t-13 6z" />
    <glyph glyph-name="cid4851" unicode="&#x9fa0;" 
d="M227 -94h-68v271q0 44 30.5 76t73.5 32h617q43 0 73.5 -32t30.5 -76v-271h-68v128h-175v-124h-68v124h-203v-124h-68v124h-175v-128zM207 562l-63 27l58 127q22 49 60.5 76t84.5 27h449q46 0 84.5 -27t60.5 -76l58 -127l-63 -27l-58 127v-1q-30 63 -82 63h-449
q-52 0 -82 -63v1zM804 545h93q35 0 60.5 -26t25.5 -63v-48q0 -37 -25.5 -63t-60.5 -26h-93q-37 0 -62 26t-25 63v48q0 37 25 63t62 26zM524 545h93q35 0 61 -26t26 -63v-48q0 -37 -26 -63t-61 -26h-93q-36 0 -61 26t-25 63v48q0 37 25 63t61 26zM246 545h93q35 0 61 -26
t26 -63v-48q0 -37 -26 -63t-61 -26h-93q-35 0 -60.5 26t-25.5 63v48q0 37 25.5 63t60.5 26zM313 611v68h517v-68h-517zM470 217v-115h203v115h-203zM227 177v-75h175v115h-139q-15 0 -25.5 -11.5t-10.5 -28.5zM880 217h-139v-115h175v75q0 17 -10.5 28.5t-25.5 11.5z
M339 477h-93q-8 0 -13 -6t-5 -15v-48q0 -9 5 -15t13 -6h93q8 0 13.5 6t5.5 15v48q0 9 -5.5 15t-13.5 6zM897 477h-93q-8 0 -13.5 -6t-5.5 -15v-48q0 -9 5.5 -15t13.5 -6h93q8 0 13 6t5 15v48q0 9 -5 15t-13 6zM617 477h-93q-8 0 -13 -6t-5 -15v-48q0 -9 5 -15t13 -6h93
q8 0 13 6t5 15v48q0 9 -5 15t-13 6z" />
    <glyph glyph-name="cid96" unicode="&#x3000;" 
 />
    <glyph glyph-name="cid97" unicode="&#x3001;" 
d="M162 70l49 48l146 -151l-49 -48z" />
    <glyph glyph-name="cid98" unicode="&#x3002;" 
d="M232 90q-22 0 -37 -15t-15 -37t15 -37t37 -15q21 0 36 15t15 37t-15 37t-36 15zM232 158q49 0 84 -35.5t35 -84.5t-35 -84.5t-84 -35.5t-84.5 35.5t-35.5 84.5t35.5 84.5t84.5 35.5z" />
    <glyph glyph-name="cid104" unicode="&#x3005;" 
d="M502 224l37 57l138 -89l225 267h-374q-110 -171 -240 -311l-50 46q211 230 363 528l61 -31q-39 -77 -91 -164h389l39 -59l-265 -313l169 -108l-37 -57z" />
    <glyph glyph-name="cid7703" unicode="&#x3007;" 
d="M612 674q-133 0 -226.5 -93.5t-93.5 -226.5q0 -134 93 -227t227 -93q133 0 226.5 93.5t93.5 226.5t-93.5 226.5t-226.5 93.5zM612 742q160 0 274 -114t114 -274t-114 -274t-274 -114t-274 114t-114 274t114 274t274 114z" />
    <glyph glyph-name="cid115" unicode="&#x3008;" 
d="M1571 832l62 -26l-180 -425l1 1q-6 -13 -6 -20q0 -6 6 -21l-1 2l182 -407l-63 -28l-183 409q-9 25 -9 45q0 17 9 44z" />
    <glyph glyph-name="cid116" unicode="&#x3009;" 
d="M112 806l62 26l180 -425v2q11 -25 11 -48q0 -22 -10 -45l-182 -408l-63 28l182 407v-1q5 13 5 19q0 9 -6 19z" />
    <glyph glyph-name="cid117" unicode="&#x300a;" 
d="M1262 832l63 -26l-180 -426q-5 -9 -5 -19q0 -8 4 -19v1l182 -407l-62 -28l-182 408q-10 20 -10 45q0 26 11 48v-2zM1410 832l63 -26l-180 -426q-5 -12 -5 -18q0 -4 5 -19l181 -407l-62 -28l-181 408v-1q-11 21 -11 47q0 25 11 47v-2z" />
    <glyph glyph-name="cid118" unicode="&#x300b;" 
d="M273 806l63 26l179 -425v2q11 -22 11 -48q0 -25 -10 -45l-182 -408l-62 28l182 407v-1q4 11 4 19q0 10 -5 19zM125 806l63 26l179 -425v2q11 -22 11 -48q0 -25 -10 -45l-182 -408l-62 28l182 407v-1q4 16 4 19q0 7 -5 19z" />
    <glyph glyph-name="cid119" unicode="&#x300c;" 
d="M1388 -45h-68v901h264v-68h-196v-833z" />
    <glyph glyph-name="cid120" unicode="&#x300d;" 
d="M346 785h69v-901h-265v68h196v833z" />
    <glyph glyph-name="cid121" unicode="&#x300e;" 
d="M1577 854v-190h-149v-743h-190v933h339zM1509 732v54h-203v-797h54v743h149z" />
    <glyph glyph-name="cid122" unicode="&#x300f;" 
d="M84 -114v190h149v743h190v-933h-339zM152 8v-54h203v797h-54v-743h-149z" />
    <glyph glyph-name="cid125" unicode="&#x3010;" 
d="M1272 -87v920h364q-88 -103 -134 -223.5t-46 -236.5q0 -118 46.5 -238.5t134.5 -221.5h-365z" />
    <glyph glyph-name="cid126" unicode="&#x3011;" 
d="M363 833v-920h-363q87 100 133 221.5t46 238.5q0 116 -45.5 236.5t-132.5 223.5h362z" />
    <glyph glyph-name="cid123" unicode="&#x3016;" 
d="M1340 765v-784h154q-106 163 -106 392q0 225 106 392h-154zM1272 -87v920h364q-88 -103 -134 -223.5t-46 -236.5q0 -118 46.5 -238.5t134.5 -221.5h-365z" />
    <glyph glyph-name="cid124" unicode="&#x3017;" 
d="M363 833v-920h-363q87 100 133 221.5t46 238.5q0 116 -45.5 236.5t-132.5 223.5h362zM295 -19v784h-153q50 -81 77.5 -185t27.5 -207q0 -229 -105 -392h153z" />
    <glyph glyph-name="cid401" unicode="&#x306e;" 
d="M574 581l68 4q1 -25 -16.5 -107t-48 -179.5t-82 -168.5t-108.5 -63q-60 9 -108.5 87t-48.5 175q0 33 2 47q19 131 117 220.5t229 108.5q33 5 65 5q154 0 255.5 -94.5t101.5 -226.5q0 -23 -1 -33q-7 -65 -40.5 -124t-76.5 -96.5t-85 -65.5t-71 -40l-28 -13l-24 65
q10 4 26 11t57.5 33t74.5 56t63 79t36 102q0 5 0.5 13.5t0.5 12.5q0 104 -82.5 178.5t-206.5 74.5q-23 0 -56 -5q-105 -19 -188 -93.5t-99 -176.5q-2 -26 -2 -38q0 -70 31 -127t69 -67q39 -2 75 60.5t56.5 145t33 151.5t11.5 89z" />
    <glyph glyph-name="cid1504" unicode="&#x4e01;" 
d="M120 706v68h879v-68h-323v-645q0 -52 -37 -89t-89 -37h-194v68h194q24 0 41 16.5t17 41.5v645h-488z" />
    <glyph glyph-name="cid3070" unicode="&#x4e03;" 
d="M120 470l-6 68l221 15v243h68v-238l591 41l6 -68l-597 -42v-423q0 -24 17 -41t40 -17h537v-68h-537q-52 0 -88.5 37t-36.5 89v419z" />
    <glyph glyph-name="cid3747" unicode="&#x4e07;" 
d="M122 714v68h878v-68h-656q-7 -99 -18 -195h526q52 0 89 -37t37 -89v-331q0 -52 -37 -89t-89 -37h-270v68h270q25 0 41.5 17t16.5 41v331q0 24 -16.5 41t-41.5 17h-536q-41 -292 -140 -538l-62 26q131 320 161 775h-153z" />
    <glyph glyph-name="cid4458" unicode="&#x4e08;" 
d="M801 812l67 -15q-15 -65 -25 -101h148v-68h-166q-73 -247 -178 -394l353 -261l-40 -55l-355 263q-88 -102 -206 -163.5t-278 -91.5l-13 66q145 27 252.5 82.5t188.5 147.5l-378 281l41 55l380 -282q97 135 162 352h-642v68h661q14 50 28 116z" />
    <glyph glyph-name="cid3288" unicode="&#x4e09;" 
d="M135 696v68h844v-68h-844zM156 367v68h802v-68h-802zM114 -43v68h886v-68h-886z" />
    <glyph glyph-name="cid3336" unicode="&#x4e0a;" 
d="M437 798h69v-206h458v-68h-458v-512h493v-68h-883v68h321v786z" />
    <glyph glyph-name="cid3887" unicode="&#x4e0b;" 
d="M120 712v68h880v-68h-454v-781h-68v781h-358zM663 587l64 22l184 -516l-65 -22z" />
    <glyph glyph-name="cid4696" unicode="&#x4e0c;" 
d="M119 717v68h880v-68h-121v-786h-68v786h-446q-22 -577 -203 -788l-51 44q163 191 185 744h-176z" />
    <glyph glyph-name="cid1154" unicode="&#x4e0d;" 
d="M114 716v68h879v-68h-381q-38 -103 -91 -204h66v-596h-68v591q-136 -259 -358 -465l-46 49q284 266 424 625h-425zM664 476l57 39l279 -414l-57 -39z" />
    <glyph glyph-name="cid4304" unicode="&#x4e0e;" 
d="M999 718v-68h-693l-27 -207h591q52 0 89 -37t37 -89v-246q0 -52 -37 -89t-89 -37h-416v68h416q24 0 40.5 16.5t16.5 41.5v246q0 24 -16.5 41t-40.5 17h-670l58 433l68 -9l-11 -81h684zM854 230v-68h-700v68h700z" />
    <glyph glyph-name="cid4698" unicode="&#x4e10;" 
d="M200 573l66 -13l-49 -255h290v417h-393v68h885v-68h-424v-167h405v-68h-405v-182h308q44 0 75 -32t31 -76v-153q0 -44 -31 -76t-75 -32h-403v68h403q16 0 27 11.5t11 28.5v153q0 17 -11 28.5t-27 11.5h-746z" />
    <glyph glyph-name="cid1304" unicode="&#x4e11;" 
d="M999 4v-68h-881v68h193l60 337h-211v68h223l55 307h-276v68h651q52 0 89 -37t37 -89v-654h60zM439 341l-60 -337h492v337h-432zM813 716h-307l-55 -307h420v249q0 24 -17 41t-41 17z" />
    <glyph glyph-name="cid4613" unicode="&#x4e13;" 
d="M371 820l67 -18l-26 -88h588v-68h-608l-45 -150h653v-68h-673l-40 -138h659l-79 -304l112 -9l-6 -67l-787 58l6 67l605 -44l61 231h-663l60 206h-135v68h155l44 150h-199v68h219z" />
    <glyph glyph-name="cid3151" unicode="&#x4e14;" 
d="M118 -70v68h64v654q0 52 37 89t89 37h501q52 0 89 -37t37 -89v-654h64v-68h-881zM250 652v-143h617v143q0 24 -17 41t-41 17h-501q-24 0 -41 -17t-17 -41zM250 440v-195h617v195h-617zM250 176v-178h617v178h-617z" />
    <glyph glyph-name="cid4701" unicode="&#x4e15;" 
d="M114 718v68h880v-68h-371q-39 -76 -87 -148h51v-572h407v-68h-880v68h405v546q-150 -223 -359 -399l-44 52q265 223 430 521h-432zM664 520l57 37l279 -427l-57 -37z" />
    <glyph glyph-name="cid3415" unicode="&#x4e16;" 
d="M116 631v68h66v96h68v-96h204v98h68v-98h333v98h68v-98h76v-68h-76v-384q0 -44 -31.5 -75.5t-75.5 -31.5h-254q-44 0 -76 31.5t-32 75.5v384h-204v-571q0 -25 17 -41.5t41 -16.5h688v-68h-688q-52 0 -89 36.5t-37 89.5v571h-66zM816 208q16 0 27.5 11t11.5 28v384h-333
v-384q0 -16 11.5 -27.5t28.5 -11.5h254z" />
    <glyph glyph-name="cid3181" unicode="&#x4e18;" 
d="M114 -64v68h68v654q0 52 37 89t89 37h683v-68h-683q-25 0 -41.5 -17t-16.5 -41v-151h749v-68h-188v-435h182v-68h-879zM250 439v-435h493v435h-493z" />
    <glyph glyph-name="cid1124" unicode="&#x4e19;" 
d="M120 715v68h880v-68h-415v-146h274q52 0 89 -36.5t37 -88.5v-393q0 -52 -37 -88.5t-89 -36.5h-68v68h68q24 0 41 17t17 40v393q0 23 -17 40t-41 17h-277q-1 -26 -8 -54l287 -302l-50 -46l-260 273q-68 -165 -265 -260l-30 61q234 114 258 328h-255q-24 0 -41 -17t-17 -40
v-512h-68v512q0 52 37 88.5t89 36.5h258v146h-397z" />
    <glyph glyph-name="cid4156" unicode="&#x4e1a;" 
d="M648 797h68v-794h284v-69h-880v69h279v794h68v-794h181v794zM911 742l68 -11q-68 -409 -183 -646l-60 30q109 229 175 627zM139 732l66 13l128 -631l-66 -13z" />
    <glyph glyph-name="cid1367" unicode="&#x4e1b;" 
d="M758 803l68 -8q-11 -111 -22 -185l195 -480l-63 -26l-153 378q-27 -134 -66 -224t-100 -163l-51 44q81 97 123 241.5t69 422.5zM293 803l68 -8q-11 -110 -22 -186l193 -479l-62 -26l-153 376q-27 -133 -65.5 -223t-99.5 -162l-52 44q81 96 123 240.5t70 423.5zM115 -59
v69h878v-69h-878z" />
    <glyph glyph-name="cid1514" unicode="&#x4e1c;" 
d="M134 652v69h114l26 93l66 -18l-21 -75h656v-69h-675l-69 -246h314v153h69v-153h366v-68h-366v-279q0 -52 -37 -89t-89 -37h-92v68h92q24 0 40.5 17t16.5 41v279h-403l87 314h-95zM234 279l66 -17q-53 -213 -143 -335l-55 40q81 111 132 312zM805 258l62 26l133 -324
l-63 -26z" />
    <glyph glyph-name="cid3508" unicode="&#x4e1d;" 
d="M872 571l55 -39l-236 -338h285v-69h-414l203 292h-195l203 388l61 -31l-151 -289h129zM433 571l55 -39l-236 -338h286v-69h-414l202 292h-194l203 388l61 -31l-151 -289h128zM999 8v-68h-881v68h881z" />
    <glyph glyph-name="cid4703" unicode="&#x4e1e;" 
d="M999 132l-46 -50l-340 312q1 -64 1 -195q0 -52 -37 -89t-89 -37h-54v68h54q24 0 41 17t17 41l-1 395q119 57 194 122h-541v68h695q-137 -163 -280 -234v-64l65 -60l268 241l46 -49l-265 -237zM116 -61v68h880v-68h-880zM143 79l-33 58q214 117 298 350h-255v68h348
q-97 -334 -358 -476z" />
    <glyph glyph-name="cid1513" unicode="&#x4e22;" 
d="M140 696l-1 68l838 21l1 -68l-386 -10v-155h400v-68h-400v-149h407v-68h-717l-52 -262h653q17 0 28 11.5t11 28.5v125h68v-125q0 -44 -31.5 -76t-75.5 -32h-735l65 330h-95v68h406v149h-399v68h399v153z" />
    <glyph glyph-name="cid2566" unicode="&#x4e24;" 
d="M118 716v68h881v-68h-238l-1 -138h103q52 0 88.5 -37t36.5 -89v-402q0 -52 -36.5 -89t-88.5 -37h-69v68h69q23 0 40 17t17 41v402q0 24 -17 41t-40 17h-103q0 -24 -3 -48l153 -329l-62 -29l-112 239q-42 -150 -155 -248l-44 51q152 132 155 364h-268q0 -12 -2 -36
l141 -255l-59 -33l-99 178q-40 -163 -161 -269l-44 51q151 133 156 364h-102q-25 0 -41.5 -16.5t-16.5 -41.5v-520h-69v520q0 52 37.5 89t89.5 37h102v138h-238zM424 716v-138h268l1 138h-269z" />
    <glyph glyph-name="cid4088" unicode="&#x4e25;" 
d="M129 713v69h871v-69h-275v-258h270v-68h-702q-23 0 -39 -18t-19 -44l-41 -405l-68 8l41 405q6 52 41 87t85 35h131v258h-295zM492 713v-258h165v258h-165zM860 666h68v-170h-68v170zM215 666h68v-170h-68v170z" />
    <glyph glyph-name="cid3294" unicode="&#x4e27;" 
d="M520 794h69v-69h391v-68h-391v-234h230v160h68v-160h99v-68h-733v-281q0 -23 16.5 -39.5t39.5 -16.5h192v-68h-192q-51 0 -87.5 36.5t-36.5 87.5v281h-63v68h103v160h68v-160h227v234h-391v68h391v69zM898 318l51 -44l-143 -169l193 -147l-41 -53l-486 371l40 54
l240 -184z" />
    <glyph glyph-name="cid1777" unicode="&#x4e2a;" 
d="M185 402l-57 37l154 236q36 56 72 81.5t98 25.5h222q63 0 99 -25.5t72 -81.5l154 -236l-57 -37l-154 236q-24 38 -49.5 57t-64.5 19h-222q-39 0 -64 -18.5t-49 -57.5zM529 508h68v-577h-68v577z" />
    <glyph glyph-name="cid4071" unicode="&#x4e2b;" 
d="M164 751l44 52l334 -282l-45 -51zM957 798l43 -53l-326 -268q-60 -48 -60 -132v-416h-68v416q0 114 86 186z" />
    <glyph glyph-name="cid5788" unicode="&#x4e2c;" 
d="M704 575v68h227v148h68v-863h-68v188l-210 -54l-16 66l226 58v389h-227z" />
    <glyph glyph-name="cid4559" unicode="&#x4e2d;" 
d="M611 -72h-68v116h-263q-53 0 -89.5 37t-36.5 89v379q0 52 36.5 89.5t89.5 37.5h263v115h68v-115h263q52 0 89 -37.5t37 -89.5v-379q0 -52 -37 -89t-89 -37h-263v-116zM874 607h-263v-495h263q24 0 41 17t17 41v379q0 25 -17 41.5t-41 16.5zM280 112h263v495h-263
q-24 0 -41 -16.5t-17 -41.5v-379q0 -24 17 -41t41 -17z" />
    <glyph glyph-name="cid1662" unicode="&#x4e30;" 
d="M180 654v68h376v69h68v-69h376v-68h-376v-222h376v-68h-376v-231h376v-68h-376v-137h-68v137h-376v68h376v231h-376v68h376v222h-376z" />
    <glyph glyph-name="cid1329" unicode="&#x4e32;" 
d="M250 326h296v89h-283q-36 0 -62.5 26t-26.5 63v115q0 37 26.5 63t62.5 26h283v78h68v-78h282q36 0 62.5 -26t26.5 -63v-115q0 -37 -26.5 -63t-62.5 -26h-282v-89h295q37 0 63.5 -26.5t26.5 -63.5v-124q0 -36 -26.5 -62.5t-63.5 -26.5h-295v-95h-68v95h-296
q-37 0 -63.5 26.5t-26.5 62.5v124q0 37 26.5 63.5t63.5 26.5zM229 112q0 -9 6 -15t15 -6h296v167h-296q-9 0 -15 -6.5t-6 -15.5v-124zM909 258h-295v-167h295q9 0 15 6t6 15v124q0 9 -6 15.5t-15 6.5zM242 504q0 -9 6.5 -15t14.5 -6h283v157h-283q-8 0 -14.5 -6t-6.5 -15
v-115zM896 640h-282v-157h282q8 0 14.5 6t6.5 15v115q0 9 -6.5 15t-14.5 6z" />
    <glyph glyph-name="cid2594" unicode="&#x4e34;" 
d="M893 -74h-307q-44 0 -75.5 31.5t-31.5 75.5v202q0 44 31.5 75.5t75.5 31.5h307q44 0 75.5 -31.5t31.5 -75.5v-202q0 -44 -31.5 -75.5t-75.5 -31.5zM386 -71h-68v858h68v-858zM200 -50h-68v815h68v-815zM893 274h-120v-280h120q17 0 28 11t11 28v202q0 17 -11 28t-28 11z
M586 -6h119v280h-119q-16 0 -27.5 -11t-11.5 -28v-202q0 -17 11.5 -28t27.5 -11zM999 692v-68h-511l58 187l64 -20l-31 -99h420zM995 508v-68h-495v68h495z" />
    <glyph glyph-name="cid3737" unicode="&#x4e38;" 
d="M484 812l66 -15q-13 -58 -25 -101h232q52 0 89 -37t37 -89v-531q0 -16 11.5 -27.5t28.5 -11.5h77v-68h-77q-45 0 -76.5 31t-31.5 76v531q0 24 -17 41t-41 17h-249q-49 -176 -109 -314l276 -229l-44 -52l-261 217q-95 -198 -220 -340l-52 46q124 139 218 340l-150 125
l44 51l134 -112q53 124 93 268h-312v68h331q11 42 28 116z" />
    <glyph glyph-name="cid1413" unicode="&#x4e39;" 
d="M118 267v68h80l24 319q4 51 39.5 87t86.5 36h455q52 0 89 -36.5t37 -88.5v-317h70v-68h-70v-213q0 -52 -37 -89t-89 -37h-95v69h95q24 0 41 16.5t17 40.5v213h-599l-26 -349l-68 6l25 343h-75zM290 649l-23 -314h594v317q0 23 -17 40t-41 17h-455q-22 0 -38.5 -18
t-19.5 -42zM613 432h-68v180h68v-180z" />
    <glyph glyph-name="cid3769" unicode="&#x4e3a;" 
d="M577 802l66 -13q-22 -116 -56 -219h286q52 0 89 -36.5t37 -88.5v-388q0 -52 -37 -89t-89 -37h-224v68h224q24 0 41 17t17 41v388q0 23 -17 40t-41 17h-310q-118 -324 -336 -575l-51 44q199 229 315 531h-341v68h365q38 109 62 232zM740 165h-68v159h68v-159zM325 643h-68
v147h68v-147z" />
    <glyph glyph-name="cid4598" unicode="&#x4e3b;" 
d="M160 604v68h839v-68h-385v-271h375v-68h-375v-259h385v-68h-839v68h386v259h-376v68h376v271h-386zM614 698h-68v119h68v-119z" />
    <glyph glyph-name="cid2529" unicode="&#x4e3d;" 
d="M118 714v68h881v-68h-881zM194 -94h-68v594q0 45 31.5 76t75.5 31h185q45 0 76.5 -31t31.5 -76v-486q0 -44 -32 -76t-76 -32h-63v68h63q16 0 28 12t12 28v486q0 16 -11.5 27.5t-28.5 11.5h-185q-17 0 -28 -11.5t-11 -27.5v-594zM360 131h-68v273h68v-273zM827 131h-68
v273h68v-273zM653 -94h-68v594q0 45 31.5 76t75.5 31h185q45 0 76.5 -31t31.5 -76v-486q0 -44 -32 -76t-76 -32h-63v68h63q17 0 28.5 12t11.5 28v486q0 16 -11.5 27.5t-28.5 11.5h-185q-16 0 -27.5 -11.5t-11.5 -27.5v-594z" />
    <glyph glyph-name="cid2312" unicode="&#x4e3e;" 
d="M516 445h68v-150h404v-68h-404v-118h404v-68h-404v-117h-68v117h-404v68h404v118h-404v68h404v150zM112 519v68h876v-68h-151l162 -143l-44 -51l-221 194h-382q-87 -132 -226 -191l-26 63q99 41 170 128h-158zM240 644h-68v144h68v-144zM933 644h-68v144h68v-144z
M584 644h-68v144h68v-144z" />
    <glyph glyph-name="cid2862" unicode="&#x4e43;" 
d="M151 709v68h846l-195 -310h71q52 0 89 -37t37 -89v-292q0 -52 -37 -89t-89 -37h-312v68h312q24 0 41 17t17 41v292q0 25 -17 41.5t-41 16.5h-194l195 310h-444q-40 -504 -255 -796l-55 40q201 276 242 756h-211z" />
    <glyph glyph-name="cid2290" unicode="&#x4e45;" 
d="M255 816l65 -20l-36 -122h586q-64 -214 -173 -371l303 -341l-51 -46l-295 331q-106 -128 -241.5 -205t-304.5 -121l-16 66q94 25 173 56.5t158.5 82t142.5 115.5t118.5 158t93.5 207h-585z" />
    <glyph glyph-name="cid4711" unicode="&#x4e47;" 
d="M140 676l-1 68l838 23l2 -69l-473 -12v-282h493v-68h-493v-282q0 -24 16.5 -40.5t41.5 -16.5h435v-69h-435q-52 0 -89 37t-37 89v282h-318v68h318v280z" />
    <glyph glyph-name="cid2745" unicode="&#x4e48;" 
d="M449 813l61 -31q-146 -279 -324 -450l-48 49q170 163 311 432zM931 237h69v-191q0 -44 -32 -76t-76 -32h-729q140 146 271.5 335t206.5 344l60 -29q-67 -140 -170 -299.5t-209 -282.5h570q16 0 27.5 11.5t11.5 28.5v191z" />
    <glyph glyph-name="cid4204" unicode="&#x4e49;" 
d="M156 709l48 48l385 -382q142 171 278 418l59 -34q-136 -249 -288 -432l362 -359l-48 -48l-359 355q-207 -236 -447 -354l-30 61q227 111 429 341zM593 594h-68v211h68v-211z" />
    <glyph glyph-name="cid4525" unicode="&#x4e4b;" 
d="M1000 -5v-68h-880v68h221l497 611h-687v68h380v134h68v-134h382l-553 -679h572z" />
    <glyph glyph-name="cid3817" unicode="&#x4e4c;" 
d="M673 421v68h187q17 0 28.5 11t11.5 28v95q0 16 -11.5 27.5t-28.5 11.5h-563q-24 0 -41 -17t-17 -40v-208q0 -25 17 -41.5t41 -16.5h577q52 0 89 -37t37 -89v-164q0 -52 -37 -89t-89 -37h-229v68h229q24 0 41 17t17 41v164q0 24 -17 41t-41 17h-577q-52 0 -89 37t-37 89
v208q0 52 37 88.5t89 36.5h1v64h68v-64h494q45 0 76.5 -31t31.5 -76v-95q0 -44 -32 -75.5t-76 -31.5h-187zM134 98v68h683v-68h-683z" />
    <glyph glyph-name="cid4424" unicode="&#x4e4d;" 
d="M469 -96h-68v694h-225l61 208l66 -19l-36 -121h733v-68h-531v-208h522v-68h-522v-183h522v-68h-522v-167z" />
    <glyph glyph-name="cid1964" unicode="&#x4e4e;" 
d="M153 704v68h840v-68h-383v-412h390v-68h-390v-177q0 -52 -37 -89t-89 -37h-103v68h103q24 0 41 17t17 41v177h-396v68h396v412h-389zM923 402h-68v192h68v-192zM282 402h-68v192h68v-192z" />
    <glyph glyph-name="cid1603" unicode="&#x4e4f;" 
d="M986 -3v-68h-836v68h310l345 417h-625v68h354v114h69v-114h347l-400 -485h436zM160 682l-2 68l839 18l2 -68z" />
    <glyph glyph-name="cid2497" unicode="&#x4e50;" 
d="M537 636h68v-232h378v-68h-378v-279q0 -52 -37 -89t-89 -37h-75v68h75q25 0 41.5 17t16.5 41v279h-285q-44 0 -76 31.5t-32 75.5v216q0 44 31.5 75.5t75.5 32.5l704 19l2 -69l-705 -18q-17 0 -28 -11.5t-11 -28.5v-216q0 -17 11.5 -28t27.5 -11h285v232zM235 257l66 -18
q-55 -204 -144 -316l-53 43q77 97 131 291zM805 234l63 28l132 -304l-63 -27z" />
    <glyph glyph-name="cid3032" unicode="&#x4e52;" 
d="M119 199v68h69v385q0 52 37 89t89 37h670v-68h-670q-24 0 -41 -17t-17 -41v-96h740v-68h-205v-221h208v-68h-880zM256 488v-221h466v221h-466zM250 157l62 -27q-60 -134 -154 -222l-46 50q83 79 138 199z" />
    <glyph glyph-name="cid2963" unicode="&#x4e53;" 
d="M112 199v68h68v385q0 52 37 89t89 37h670v-68h-670q-24 0 -41 -16.5t-17 -41.5v-95h740v-68h-206v-222h209v-68h-879zM248 489v-222h466v222h-466zM799 124l55 39l146 -211l-55 -38z" />
    <glyph glyph-name="cid3140" unicode="&#x4e54;" 
d="M134 694v68h829v-68h-443q-25 -82 -64 -160h532v-68h-236l248 -215l-44 -52l-103 89v-371h-69v431l-136 118h-230q-37 -60 -81 -109v-143q0 -112 -43.5 -179.5t-132.5 -116.5l-33 59q71 38 106 92.5t35 144.5v76q-63 -54 -141 -95l-32 60q145 77 240 211h-227v68h270
q39 71 69 160h-314z" />
    <glyph glyph-name="cid1837" unicode="&#x4e56;" 
d="M129 709v68h859v-68h-395v-122h406v-68h-406v-594h-68v594h-407v68h407v122h-396zM702 437h69v-61h228v-68h-228v-176q0 -24 16.5 -41t41.5 -17h170v-68h-170q-52 0 -89.5 37t-37.5 89v305zM346 437h69v-305q0 -52 -37.5 -89t-89.5 -37h-170v68h170q25 0 41.5 17t16.5 41
v176h-228v68h228v61z" />
    <glyph glyph-name="cid1264" unicode="&#x4e58;" 
d="M120 713v68h858v-68h-395v-107h406v-68h-406v-613h-68v613h-406v68h406v107h-395zM665 492h68v-55h256v-68h-256v-76q0 -17 11.5 -28.5t28.5 -11.5h216v-68h-216q-44 0 -76 32t-32 76v199zM365 492h68v-199q0 -44 -32 -76t-76 -32h-216v68h216q17 0 28.5 11.5t11.5 28.5
v76h-256v68h256v55zM131 -84l-31 60q120 63 202 177l56 -40q-92 -128 -227 -197zM999 -28l-44 -52l-215 187l45 52z" />
    <glyph glyph-name="cid4725" unicode="&#x4e5c;" 
d="M119 573l-5 68l80 6v141h68v-135l694 54l-37 -429q-4 -52 -39.5 -87.5t-86.5 -35.5h-163v68h163q24 0 40 17.5t18 42.5l30 350q-325 -25 -619 -49v-531q0 -24 16.5 -41t41.5 -17h680v-68h-680q-52 0 -89 37t-37 89v526z" />
    <glyph glyph-name="cid2292" unicode="&#x4e5d;" 
d="M390 795l68 -9l-15 -95h297q52 0 89 -37t37 -89v-531q0 -16 11.5 -27.5t28.5 -11.5h93v-69h-93q-44 0 -76 32t-32 76v531q0 24 -16.5 41t-41.5 17h-309q-43 -236 -108 -404.5t-170 -298.5l-53 42q97 121 159 280t103 381h-233v68h245q1 8 7 45.5t9 58.5z" />
    <glyph glyph-name="cid3089" unicode="&#x4e5e;" 
d="M931 171h68v-135q0 -44 -32 -75.5t-76 -31.5l-718 4l507 463h-534v68h708l-506 -463l543 -4q17 0 28.5 11.5t11.5 27.5v135zM214 817l65 -20l-34 -99h745v-68h-837z" />
    <glyph glyph-name="cid4153" unicode="&#x4e5f;" 
d="M121 497l-11 67l82 14v196h69v-185l259 44v168h68v-157l391 66l-18 -431v1q-2 -52 -38 -88.5t-88 -36.5h-114v68h114q24 0 40.5 17.5t17.5 41.5l14 349l-319 -55v-422h-68v411l-259 -44v-467q0 -24 16.5 -41t41.5 -17h680v-68h-680q-52 0 -89.5 37t-37.5 89v455z" />
    <glyph glyph-name="cid3869" unicode="&#x4e60;" 
d="M698 -71v68h176q24 0 40.5 17t16.5 41v594q0 24 -16.5 41t-40.5 17h-738v68h738q52 0 88.5 -37t36.5 -89v-594q0 -52 -36.5 -89t-88.5 -37h-176zM176 451v68h554v-68h-554zM183 23l-14 66q318 75 542 217l37 -57q-235 -148 -565 -226z" />
    <glyph glyph-name="cid3924" unicode="&#x4e61;" 
d="M142 -86v68h31q227 0 357 33t220 120h-560l293 296h-315l338 384l51 -44l-238 -272h231l226 228l48 -48l-472 -476h458q60 78 129 214l61 -31q-51 -100 -94 -167.5t-96.5 -123.5t-109.5 -88.5t-135.5 -54.5t-171.5 -30t-220 -8h-31z" />
    <glyph glyph-name="cid3456" unicode="&#x4e66;" 
d="M433 788h68v-129h237q52 0 88.5 -37t36.5 -89v-186h12q45 0 76 -31.5t31 -75.5v-199q0 -45 -31 -76.5t-76 -31.5h-159v68h159q16 0 27.5 12t11.5 28v199q0 16 -11.5 27.5t-27.5 11.5h-374v-355h-68v355h-321v68h321v244h-276v68h276v129zM738 591h-237v-244h294v186
q0 24 -17 41t-40 17zM999 620l-57 -37l-110 178l57 37z" />
    <glyph glyph-name="cid4726" unicode="&#x4e69;" 
d="M304 788h68v-119h225v-68h-225v-196h103q43 0 75 -31.5t32 -75.5v-261q0 -44 -31.5 -75.5t-75.5 -31.5h-243q-44 0 -76 31.5t-32 75.5v261q0 44 32 75.5t76 31.5h72v383zM232 -2h243q17 0 28 11t11 28v261q0 16 -11 27.5t-28 11.5h-243q-17 0 -28.5 -11.5t-11.5 -27.5
v-261q0 -16 11.5 -27.5t28.5 -11.5zM680 792h68v-734q0 -24 17 -41t41 -17h193v-68h-193q-52 0 -89 37t-37 89v734z" />
    <glyph glyph-name="cid2713" unicode="&#x4e70;" 
d="M531 622h68q0 -252 -29 -361h419v-68h-290l301 -227l-40 -55l-373 282h-40q-44 -101 -143.5 -166t-281.5 -105l-15 67q144 31 229 80.5t129 123.5h-355v68h385q23 65 29.5 147.5t6.5 213.5zM106 701v68h874l-66 -216l-65 21l39 127h-782zM164 518v68h283v-68h-283z
M164 355v68h283v-68h-283z" />
    <glyph glyph-name="cid2681" unicode="&#x4e71;" 
d="M129 704v68h474v-68h-202v-176h217v-68h-217v-129h100q44 0 76 -32t32 -76v-188q0 -44 -32 -75.5t-76 -31.5h-270q-44 0 -75.5 31.5t-31.5 75.5v188q0 44 31.5 76t75.5 32h102v129h-219v68h219v176h-204zM231 -4h270q17 0 28 11t11 28v188q0 17 -11.5 28.5t-27.5 11.5
h-270q-16 0 -27.5 -11.5t-11.5 -28.5v-188q0 -17 11 -28t28 -11zM1000 7v-68h-188q-52 0 -89 37t-37 89v729h68v-729q0 -24 17 -41t41 -17h188z" />
    <glyph glyph-name="cid3268" unicode="&#x4e73;" 
d="M122 128v68h361q42 70 67 131h-417v68h513q-39 -120 -83 -199h89v-68h-108v-81q0 -52 -36.5 -89t-88.5 -37h-271v68h271q24 0 40.5 17t16.5 41v81h-354zM999 0v-68h-160q-52 0 -89 37t-37 89v729h68v-729q0 -24 17 -41t41 -17h160zM122 711v68h512v-68h-512zM141 642h69
v-167h-69v167zM543 642h69v-167h-69v167zM342 642h68v-167h-68v167z" />
    <glyph glyph-name="cid3113" unicode="&#x4e7e;" 
d="M305 791h68v-71h184v-68h-184v-78h71q44 0 76 -31.5t32 -75.5v-192q0 -44 -32 -75.5t-76 -31.5h-71v-85h184v-68h-184v-89h-68v89h-185v68h185v85h-71q-44 0 -75.5 31.5t-31.5 75.5v192q0 44 31.5 75.5t75.5 31.5h71v78h-185v68h185v71zM997 1v-68h-404l268 518h-254v68
h367l-268 -518h291zM664 816l64 -20l-29 -90h301v-68h-393zM195 467v-62h289v62q0 16 -11.5 27.5t-28.5 11.5h-210q-16 0 -27.5 -11t-11.5 -28zM234 236h210q17 0 28.5 11.5t11.5 27.5v62h-289v-62q0 -17 11.5 -28t27.5 -11z" />
    <glyph glyph-name="cid2580" unicode="&#x4e86;" 
d="M186 710v68h813l-278 -337q-28 -33 -28 -62v-322q0 -52 -37 -88.5t-89 -36.5h-194v68h194q24 0 41 17t17 40v322q0 53 42 105l186 226h-667z" />
    <glyph glyph-name="cid4301" unicode="&#x4e88;" 
d="M278 594l55 39l120 -171h297l118 250h-725v68h831l-148 -318h48q52 0 89 -37t37 -89v-197h-68v197q0 25 -17 41.5t-41 16.5h-255v-345q0 -52 -37 -89t-89 -37h-228v68h228q24 0 41 17t17 41v345h-425v68h245z" />
    <glyph glyph-name="cid4506" unicode="&#x4e89;" 
d="M114 301v68h403v130h-359v68h585l43 105h-609l73 145l60 -29l-23 -48h601l-72 -173q52 -1 89 -37.5t37 -88.5v-72h58v-68h-58v-71q0 -52 -37 -89t-89 -37h-231v-48q0 -52 -37 -89t-89 -37h-121v68h121q24 0 41 16.5t17 41.5v48h-359v68h359v129h-403zM816 499h-231v-130
h288v72q0 24 -16.5 41t-40.5 17zM816 172q24 0 40.5 17t16.5 41v71h-288v-129h231z" />
    <glyph glyph-name="cid3417" unicode="&#x4e8b;" 
d="M114 689v68h414v53h68v-53h404v-68h-404v-58h292q29 0 50 -21t21 -50v-57q0 -29 -21 -49.5t-50 -20.5h-292v-47h273q37 0 63 -26.5t26 -63.5v-43h42v-68h-42v-40q0 -36 -26 -62.5t-63 -26.5h-273v-1q0 -52 -37 -89t-89 -37h-158v68h158q24 0 41 17t17 41v1h-391v68h391
v61h-414v68h414v65h-391v68h391v47h-319q-29 0 -50 21t-21 49v57q0 29 21 50t50 21h319v58h-414zM206 503q0 -2 3 -2h319v62h-319q-3 0 -3 -3v-57zM869 318h-273v-65h294v43q0 9 -6 15.5t-15 6.5zM891 503v57q0 3 -3 3h-292v-62h292q3 0 3 2zM869 124q9 0 15 6.5t6 14.5v40
h-294v-61h273z" />
    <glyph glyph-name="cid4695" unicode="&#x4e8d;" 
d="M120 413v68h880v-68h-342v-359q0 -52 -37 -89t-89 -37h-203v68h203q24 0 40.5 17t16.5 41v359h-469zM132 706v68h857v-68h-857z" />
    <glyph glyph-name="cid4287" unicode="&#x4e8e;" 
d="M131 706v68h857v-68h-344v-225h356v-68h-356v-359q0 -52 -37 -89t-89 -37h-171v68h171q24 0 41 17t17 41v359h-456v68h456v225h-445z" />
    <glyph glyph-name="cid2436" unicode="&#x4e8f;" 
d="M120 464v68h880v-68h-707l-29 -164h600q44 0 75.5 -31.5t31.5 -75.5v-160q0 -44 -31.5 -76t-75.5 -32h-642v68h642q16 0 27.5 11.5t11.5 28.5v160q0 17 -11.5 28t-27.5 11h-679l40 232h-105zM131 710v68h857v-68h-857z" />
    <glyph glyph-name="cid4361" unicode="&#x4e91;" 
d="M118 432v68h882v-68h-641l-106 -430h573q24 0 41 17t17 41v198h68v-198q0 -52 -37 -89t-89 -37h-653l117 498h-172zM155 710v68h808v-68h-808z" />
    <glyph glyph-name="cid1978" unicode="&#x4e92;" 
d="M118 715v68h881v-68h-691l-24 -187h660l-43 -526h98v-68h-881v68h714l15 178h-677l69 535h-121zM870 460h-595l-27 -212h604z" />
    <glyph glyph-name="cid4727" unicode="&#x4e93;" 
d="M119 428v68h880v-68h-107v-512h-68v512h-507v-199q0 -114 -44 -183.5t-134 -119.5l-33 59q72 40 107 96t35 148v199h-129zM130 714v68h857v-68h-857z" />
    <glyph glyph-name="cid3828" unicode="&#x4e94;" 
d="M127 713v68h863v-68h-463l-35 -233h288q52 0 89 -37t37 -89v-355h93v-68h-881v68h230l64 413h-259v68h269l36 233h-331zM780 412h-299l-63 -413h420v355q0 24 -17 41t-41 17z" />
    <glyph glyph-name="cid2269" unicode="&#x4e95;" 
d="M106 569v68h150v175h68v-175h451v182h68v-182h144v-68h-144v-280h156v-68h-156v-299h-68v299h-451v-3q0 -112 -47 -180t-143 -117l-32 61q78 39 116 93t38 143v3h-166v68h166v280h-150zM324 569v-280h451v280h-451z" />
    <glyph glyph-name="cid4702" unicode="&#x4e98;" 
d="M850 120h-573q-52 0 -89.5 37t-37.5 89v238q0 52 37.5 89t89.5 37h573q52 0 89 -37t37 -89v-238q0 -52 -37 -89t-89 -37zM219 484v-88h689v88q0 24 -17 41t-41 17h-573q-25 0 -41.5 -17t-16.5 -41zM277 188h573q24 0 41 16.5t17 41.5v82h-689v-82q0 -25 16.5 -41.5
t41.5 -16.5zM118 -67v68h881v-68h-881zM118 713v68h881v-68h-881z" />
    <glyph glyph-name="cid4080" unicode="&#x4e9a;" 
d="M87 713v68h905v-68h-305v-717h312v-68h-919v68h312v717h-305zM460 713v-717h159v717h-159zM878 619l68 -7q-28 -247 -150 -530l-63 27q119 280 145 510zM125 609l66 13l103 -514l-66 -12z" />
    <glyph glyph-name="cid3956" unicode="&#x4e9b;" 
d="M145 752h68v-409l123 8v469h68v-128h164v-69h-164v-267l150 11l6 -68l-445 -31l-5 68l35 2v414zM992 346v-68h-242q-52 0 -89 37t-37 89v419h68v-171l290 86l18 -66l-308 -91v-177q0 -25 17 -41.5t41 -16.5h242zM112 -71v68h880v-68h-880zM170 111v68h766v-68h-766z" />
    <glyph glyph-name="cid4723" unicode="&#x4e9f;" 
d="M217 584h136q36 0 62.5 -26.5t26.5 -62.5v-335q0 -37 -26.5 -63t-62.5 -26h-136q-36 0 -62.5 26t-26.5 63v335q0 36 26.5 62.5t62.5 26.5zM447 65v68h35q16 0 28 11.5t11 27.5v414q117 54 186 123h-513v68h657q-131 -169 -262 -235v-368q1 -45 -30.5 -77t-76.5 -32h-35z
M1000 132l-49 -48l-132 136q-79 -83 -188 -131l-27 63q100 43 169 115l-126 132l50 48l121 -127q57 79 89 183h-258v68h345q-44 -179 -131 -297zM353 516h-136q-9 0 -15 -6t-6 -15v-335q0 -9 6 -15t15 -6h136q9 0 15 6t6 15v335q0 9 -6 15t-15 6zM112 -70v68h880v-68h-880z
" />
    <glyph glyph-name="cid3751" unicode="&#x4ea1;" 
d="M520 820h68v-115h412v-68h-706v-581q0 -24 17 -41t41 -17h601v-68h-601q-52 0 -89 37t-37 89v581h-134v68h428v115z" />
    <glyph glyph-name="cid2375" unicode="&#x4ea2;" 
d="M1000 -21v-68h-97q-44 0 -76 32t-32 76v418q0 24 -16.5 41t-41.5 17h-401q-22 0 -38 -18t-20 -45l-75 -526l-68 9l75 526q8 50 42.5 86t83.5 36h401q52 0 89 -37t37 -89v-418q0 -17 11.5 -28.5t28.5 -11.5h97zM513 819h68v-81h402v-68h-889v68h419v81z" />
    <glyph glyph-name="cid2188" unicode="&#x4ea4;" 
d="M759 601l58 35l169 -278l-59 -35l-84 139q-112 -128 -210 -216l357 -277l-42 -54l-367 285q-228 -191 -463 -279l-24 64q222 85 432 258l-271 211q-53 -74 -111 -132l-48 48q106 106 192 269l60 -31q-33 -62 -56 -98l286 -222q122 110 228 235zM513 820h68v-81h419v-68
h-906v68h419v81z" />
    <glyph glyph-name="cid1884" unicode="&#x4ea5;" 
d="M512 824h68v-80h420v-68h-607l-127 -264q57 0 171 -0.5t171 -0.5q51 60 98 144l61 -33q-98 -180 -245.5 -281t-360.5 -137l-11 66q240 41 390 173l-380 1l158 332h-226v68h420v80zM873 440l58 -35q-92 -157 -216 -265l276 -163l-35 -59l-298 176q-217 -156 -532 -173
l-4 68q245 13 431 119.5t320 331.5z" />
    <glyph glyph-name="cid4199" unicode="&#x4ea6;" 
d="M518 819h68v-81h413v-68h-289v-618q0 -52 -37 -89t-89 -37h-70v68h70q24 0 41 17t17 41v618h-164q-2 -220 -30.5 -421.5t-83.5 -339.5l-63 25q103 256 110 736h-319v68h426v81zM795 552l67 14l126 -587l-66 -15zM211 549l68 -2q-7 -370 -125 -583l-59 33q109 203 116 552
z" />
    <glyph glyph-name="cid1217" unicode="&#x4ea7;" 
d="M186 -89l-68 5l39 424q5 52 40 87.5t86 35.5h13v161h68v-161h419v161h68v-161h148v-68h-716q-23 0 -39.5 -17.5t-18.5 -42.5zM527 819h68v-80h401v-69h-870v69h401v80z" />
    <glyph glyph-name="cid1943" unicode="&#x4ea8;" 
d="M954 553v-80q0 -29 -20.5 -50t-49.5 -21h-661q-29 0 -50 21t-21 50v80q0 29 21 50t50 21h661q29 0 49.5 -21t20.5 -50zM348 -77v68h215q17 0 28.5 14t11.5 34l-1 125q179 53 235 98h-721v69h830q-42 -148 -276 -219q0 -12 0.5 -36t0.5 -37q0 -48 -32 -82t-76 -34h-215z
M525 819h68v-60h406v-68h-880v68h406v60zM886 473v80q0 3 -2 3h-661q-3 0 -3 -3v-80q0 -3 3 -3h661q2 0 2 3z" />
    <glyph glyph-name="cid2841" unicode="&#x4ea9;" 
d="M849 -71h-578q-52 0 -89 36.5t-37 88.5v386q0 52 37 89t89 37h578q52 0 89 -37t37 -89v-386q0 -52 -37 -88.5t-89 -36.5zM271 -3h255v223h-313v-166q0 -23 17 -40t41 -17zM849 -3q24 0 41 17t17 40v166h-313v-223h255zM526 822h68v-83h406v-68h-880v68h406v83zM849 498
h-255v-210h313v152q0 25 -17 41.5t-41 16.5zM213 440v-152h313v210h-255q-24 0 -41 -16.5t-17 -41.5z" />
    <glyph glyph-name="cid3930" unicode="&#x4eab;" 
d="M946 547v-80q0 -29 -21 -49.5t-50 -20.5h-668q-29 0 -50 20.5t-21 49.5v80q0 29 21 50t50 21h668q29 0 50 -21t21 -50zM94 101v68h539q78 40 134 87h-620v68h781q-87 -96 -168 -155h234v-68h-341l-8 -4v-65q0 -48 -32 -81.5t-76 -33.5h-168v68h168q16 0 27.5 13.5
t11.5 33.5v69h-482zM518 819h69v-60h413v-68h-899v68h417v60zM878 467v80q0 3 -3 3h-668q-3 0 -3 -3v-80q0 -2 3 -2h668q3 0 3 2z" />
    <glyph glyph-name="cid2264" unicode="&#x4eac;" 
d="M419 -87v68h54q24 0 41 18.5t17 44.5v234h-302q-37 0 -63 26t-26 63v114q0 37 26 63t63 26h653q37 0 63 -26t26 -63v-114q0 -37 -26 -63t-63 -26h-283v-234q0 -54 -37 -92.5t-89 -38.5h-54zM882 502h-653q-9 0 -15 -6t-6 -15v-114q0 -9 6 -15t15 -6h653q9 0 15 6t6 15
v114q0 9 -6 15t-15 6zM522 822h68v-104h403v-69h-881v69h410v104zM216 198l66 -17q-38 -147 -125 -269l-55 40q76 106 114 246zM844 174l64 22l92 -258l-64 -22z" />
    <glyph glyph-name="cid3669" unicode="&#x4ead;" 
d="M964 534v-63q0 -31 -21 -51.5t-50 -20.5h-670q-29 0 -50 21t-21 51v63q0 30 21 51.5t50 21.5h670q29 0 50 -21.5t21 -51.5zM118 105v68h881v-68h-366v-89q0 -45 -31.5 -77t-75.5 -32h-230v68h230q16 0 27.5 12t11.5 29v89h-447zM524 820h68v-80h407v-68h-881v68h406v80z
M190 208h-68v43q0 37 26 64t63 27h695q37 0 63 -27t26 -64v-43h-68v43q0 10 -6 16.5t-15 6.5h-695q-9 0 -15 -6.5t-6 -16.5v-43zM896 471v63q0 5 -3 5h-670q-3 0 -3 -5v-63q0 -4 3 -4h670q3 0 3 4z" />
    <glyph glyph-name="cid2570" unicode="&#x4eae;" 
d="M966 553v-67q0 -29 -21 -49.5t-50 -20.5h-670q-29 0 -50 20.5t-21 49.5v67q0 29 21 50t50 21h670q29 0 50 -21t21 -50zM984 -21v-68h-64q-44 0 -76 31.5t-32 75.5v105q0 17 -11.5 28.5t-27.5 11.5h-456q-15 0 -25.5 -11t-13.5 -27l-46 -215l-66 12l45 216q9 39 38.5 66
t67.5 27h456q44 0 75.5 -32t31.5 -76v-105q0 -16 11.5 -27.5t28.5 -11.5h64zM192 233h-68v42q0 37 26 63t63 26h695q37 0 62.5 -26t25.5 -63v-42h-68v42q0 9 -6 15t-14 6h-695q-9 0 -15 -6t-6 -15v-42zM526 820h68v-69h406v-68h-880v68h406v69zM898 486v67q0 2 -3 2h-670
q-3 0 -3 -2v-67q0 -2 3 -2h670q3 0 3 2z" />
    <glyph glyph-name="cid3156" unicode="&#x4eb2;" 
d="M824 583h68v-114h103v-69h-391v-123h383v-68h-383v-153q0 -52 -37 -89t-89 -37h-49v68h49q24 0 41 17t17 41v153h-412v68h412v123h-422v69h104v114h68v-114h538v114zM521 819h68v-95h406v-68h-881v68h407v95zM844 135l63 28l93 -205l-63 -28zM207 158l67 -17
q-34 -131 -99 -218l-53 42q54 69 85 193z" />
    <glyph glyph-name="cid4869" unicode="&#x4eb3;" 
d="M119 219v68h854v-68h-448v-71h474v-68h-474v-40q0 -16 11.5 -27t27.5 -11h416v-68h-416q-44 0 -75.5 31t-31.5 75v40h-363v68h363v71h-338zM947 579v-44q0 -29 -21 -49.5t-50 -20.5h-669q-29 0 -50 20.5t-21 49.5v44q0 29 21 49.5t50 20.5h669q29 0 50 -20.5t21 -49.5z
M512 824h68v-60h417v-68h-902v68h417v60zM172 308h-68v23q0 37 26 63t63 26h699q37 0 63 -26t26 -63v-23h-68v23q0 9 -6 15t-15 6h-699q-9 0 -15 -6t-6 -15v-23zM879 535v44q0 2 -3 2h-669q-3 0 -3 -2v-44q0 -2 3 -2h669q3 0 3 2z" />
    <glyph glyph-name="cid4872" unicode="&#x4eb5;" 
d="M672 652l68 -4q-1 -20 -5 -53h86q44 0 76 -32t32 -76v-159q0 -16 11.5 -28t28.5 -12h31v-68h-31q-44 0 -76 32t-32 76v159q0 17 -11.5 28.5t-28.5 11.5h-100q-20 -75 -56 -133l140 -90l-37 -57l-142 92q-60 -71 -151 -124l-33 59q79 45 126 102l-97 63l37 57l100 -65
q24 39 42 96h-182v68h198q4 27 6 57zM245 648h69v-56h126v-68h-126v-80l120 20l11 -68l-131 -22v-57q0 -44 -32 -76t-76 -32h-74v68h74q16 0 27.5 11.5t11.5 28.5v46l-134 -22l-11 68l145 24v91h-139v68h139v56zM511 817h68v-60h406v-68h-879v68h405v60zM383 226l45 -52
q-68 -58 -151 -97v-42q0 -19 13 -32.5t32 -13.5h262v-68h-262q-46 0 -79.5 33.5t-33.5 80.5v15q-43 -14 -92 -25l-15 67q169 35 281 134zM838 205l59 -33l-64 -116l160 -90l-33 -58l-442 249l33 59l223 -126z" />
    <glyph glyph-name="cid4767" unicode="&#x4ebb;" 
d="M787 454l-51 44l264 304v-892h-68v710z" />
    <glyph glyph-name="cid4193" unicode="&#x4ebf;" 
d="M150 546l-50 46l209 220v-902h-68v731zM1000 18v-68h-605q165 259 410 687l27 46h-416v68h531l-83 -147q-25 -44 -84.5 -147.5t-88.5 -153.5t-77.5 -131t-95.5 -154h482z" />
    <glyph glyph-name="cid3401" unicode="&#x4ec0;" 
d="M630 815h68v-366h302v-68h-302v-460h-68v460h-289v68h289v366zM139 539l-49 46l202 218v-886h-68v713z" />
    <glyph glyph-name="cid3237" unicode="&#x4ec1;" 
d="M148 540l-46 50l213 201v-881h-68v722zM386 596v68h606v-68h-606zM378 -9v68h622v-68h-622z" />
    <glyph glyph-name="cid4770" unicode="&#x4ec2;" 
d="M627 796l68 -4q-6 -85 -10 -128h189q52 0 89 -37t37 -89v-474q0 -52 -37 -89t-89 -37h-114v68h114q25 0 41.5 17t16.5 41v474q0 24 -16.5 41t-41.5 17h-196q-47 -396 -199 -672l-59 33q143 259 189 639h-175v68h183q4 46 10 132zM158 545l-44 51l217 192v-854h-68v703z
" />
    <glyph glyph-name="cid4768" unicode="&#x4ec3;" 
d="M393 680v68h606v-68h-161v-627q0 -53 -37.5 -91t-90.5 -38h-120v68h120q25 0 42.5 18t17.5 43v627h-377zM140 542l-48 48l223 221v-899h-68v735z" />
    <glyph glyph-name="cid4732" unicode="&#x4ec4;" 
d="M160 -93l-68 4l43 740q3 53 38 90.5t88 37.5h705v-68h-705q-24 0 -40 -18.5t-18 -44.5zM581 659l66 -15q-30 -125 -51 -193l404 -500l-53 -42l-377 464q-103 -290 -274 -461l-48 47q121 123 201 296.5t132 403.5z" />
    <glyph glyph-name="cid2247" unicode="&#x4ec5;" 
d="M399 578l52 45l248 -299q99 167 147 392h-430v68h512q-59 -300 -187 -511l258 -309l-51 -44l-246 293q-130 -184 -318 -290l-33 58q188 107 310 282zM134 539l-48 48l201 201v-865h-68v701z" />
    <glyph glyph-name="cid3052" unicode="&#x4ec6;" 
d="M154 461l-48 48l286 289v-893h-68v728zM615 805h68v-899h-68v899zM790 642l67 17l142 -594l-66 -16z" />
    <glyph glyph-name="cid1301" unicode="&#x4ec7;" 
d="M569 805l68 -7q-6 -58 -17 -142h163q53 0 90.5 -38t37.5 -90v-497q0 -16 12 -28t29 -12h48v-68h-48q-46 0 -77.5 31t-31.5 77v497q0 25 -17.5 42.5t-42.5 17.5h-172q-61 -409 -187 -682l-63 30q119 254 180 652h-161v68h171zM142 539l-48 48l200 203v-873h-68v707z" />
    <glyph glyph-name="cid4769" unicode="&#x4ec9;" 
d="M999 -3v-68h-62q-46 0 -77.5 31.5t-31.5 76.5v624q0 25 -17 42.5t-42 17.5h-185q-24 0 -40.5 -18t-19.5 -44l-34 -739l-68 3l34 741q6 53 41 89t87 36h185q52 0 89.5 -38t37.5 -90v-624q0 -16 12 -28t29 -12h62zM135 562l-45 51l225 192v-885h-68v738z" />
    <glyph glyph-name="cid2242" unicode="&#x4eca;" 
d="M533 569h68v-154h378q-135 -370 -497 -499l-22 64q305 111 420 366h-738v69h391v154zM185 508l-49 46l153 160q37 39 72 56.5t96 17.5h221q61 0 96 -17.5t72 -56.5l153 -160l-49 -46l-154 160q-25 27 -50 39.5t-68 12.5h-221q-43 0 -68 -12.5t-50 -39.5z" />
    <glyph glyph-name="cid2234" unicode="&#x4ecb;" 
d="M185 432l-56 39l154 217h-1q36 52 72 76t98 24h223q63 0 99 -24t72 -76h-1l154 -217l-55 -39l-155 217q-24 36 -49 53.5t-65 17.5h-223q-40 0 -64 -17t-50 -54zM289 428h68v-195q0 -226 -211 -311l-26 63q169 65 169 248v195zM774 428h68v-513h-68v513z" />
    <glyph glyph-name="cid3247" unicode="&#x4ecd;" 
d="M419 716v68h559l-177 -311h73q52 0 89 -37t37 -89v-288q0 -52 -37 -89t-89 -37h-123v68h123q24 0 41 17t17 41v288q0 24 -17 41t-41 17h-189l176 311h-254q-26 -432 -172 -797l-62 26q139 354 165 771h-119zM152 549l-46 50l213 193v-864h-68v710z" />
    <glyph glyph-name="cid1366" unicode="&#x4ece;" 
d="M712 799h68q0 -176 -11 -308l54 17l176 -564l-65 -20l-167 539q-31 -329 -128 -533l-61 30q136 280 134 839zM250 799h68q0 -184 -13 -333l48 16l184 -537l-65 -22l-171 499q-32 -301 -124 -492l-61 30q137 283 134 839z" />
    <glyph glyph-name="cid2687" unicode="&#x4ed1;" 
d="M185 478l-55 41l153 203q36 48 72.5 70.5t98.5 22.5h221q62 0 98.5 -22.5t72.5 -70.5l153 -203l-55 -41l-154 203q-24 34 -49 50t-66 16h-221q-41 0 -66 -16t-49 -50zM1000 6v-68h-627q-52 0 -88.5 37t-36.5 89v374h68v-374q0 -24 16.5 -41t40.5 -17h627zM377 127l-20 64
q327 103 557 248l36 -57q-235 -149 -573 -255z" />
    <glyph glyph-name="cid1181" unicode="&#x4ed3;" 
d="M187 465l-57 36l134 210q34 51 66 74.5t88 23.5h294q56 0 88 -23.5t66 -74.5l134 -210l-57 -36l-134 209q-22 33 -43.5 50t-53.5 17h-294q-32 0 -53.5 -17t-43.5 -50zM516 160v68h303q9 0 15 6t6 15v157q0 9 -6 15t-15 6h-477q-24 0 -41 -17t-17 -41v-318q0 -23 17 -40
t41 -17h645v-68h-645q-52 0 -89 36.5t-37 88.5v318q0 52 37 89t89 37h477q37 0 63 -26.5t26 -62.5v-157q0 -36 -26 -62.5t-63 -26.5h-303z" />
    <glyph glyph-name="cid4653" unicode="&#x4ed4;" 
d="M363 352v68h351q105 138 160 293h-465v68h556q-62 -210 -166 -361h200v-68h-224v-297q0 -52 -37 -88.5t-89 -36.5h-151v68h151q24 0 41 16.5t17 40.5v297h-344zM140 549l-48 48l200 199v-869h-68v705z" />
    <glyph glyph-name="cid3426" unicode="&#x4ed5;" 
d="M632 795h68v-175h299v-68h-299v-494h271v-68h-610v68h271v494h-300v68h300v175zM132 530l-48 48l199 200v-851h-68v687z" />
    <glyph glyph-name="cid3568" unicode="&#x4ed6;" 
d="M353 510l-11 66l87 15v185h68v-173l165 30v163h68v-151l249 44v-437q0 -52 -37 -89t-89 -37h-63v69h63q24 0 41 16.5t17 40.5v357l-181 -32v-452h-68v440l-165 -30v-473q0 -23 17 -40t41 -17h445v-68h-445q-52 0 -89 36.5t-37 88.5v461zM157 534l-49 48l200 208v-886h-68
v715z" />
    <glyph glyph-name="cid4461" unicode="&#x4ed7;" 
d="M777 810h68v-33q0 -31 -2 -87h157v-68h-162q-21 -221 -103 -379l262 -272l-50 -47l-248 256q-98 -153 -270 -253l-35 59q163 93 256 246l-260 269l50 48l244 -254q67 139 85 327h-414v68h420q2 56 2 87v33zM136 535l-48 48l196 201v-852h-68v686z" />
    <glyph glyph-name="cid1713" unicode="&#x4ed8;" 
d="M366 617v68h463v110h69v-110h101v-68h-101v-556q0 -52 -37 -89t-89 -37h-218v68h218q24 0 40.5 17t16.5 41v556h-463zM146 549l-50 46l197 214v-900h-68v727zM478 468l59 34l177 -320l-58 -33z" />
    <glyph glyph-name="cid3894" unicode="&#x4ed9;" 
d="M678 821h68v-816h128q24 0 41 17t17 41v616h68v-616q0 -52 -37 -89t-89 -37h-323q-52 0 -89 37t-37 89v616h68v-616q0 -24 17 -41t41 -17h127v816zM158 564l-48 48l196 201v-880h-68v714z" />
    <glyph glyph-name="cid4846" unicode="&#x4edd;" 
d="M156 340v68h796v-68h-364v-337h412v-68h-892v68h412v337h-364zM174 461l-53 42l152 198q38 47 73.5 68.5t96.5 21.5h222q61 0 96.5 -21.5t73.5 -68.5l152 -198l-53 -42l-153 197q-25 33 -50.5 49t-65.5 16h-222q-40 0 -65.5 -16t-50.5 -49z" />
    <glyph glyph-name="cid4774" unicode="&#x4ede;" 
d="M756 -76v68h116q25 0 42.5 17.5t17.5 43.5v607q0 25 -17.5 42.5t-42.5 17.5h-128q-19 -275 -85 -484.5t-162 -326.5l-53 45q90 109 152.5 307.5t79.5 458.5h-260v68h456q53 0 90.5 -37t37.5 -91v-607q0 -53 -37.5 -91t-90.5 -38h-116zM159 560l-49 48l200 209v-910h-68
v740zM441 154l-63 28q71 153 96 374l68 -7q-25 -232 -101 -395z" />
    <glyph glyph-name="cid3111" unicode="&#x4edf;" 
d="M365 676l-2 68l613 20l2 -68l-278 -9v-268h300v-68h-300v-422h-68v422h-300v68h300v265zM137 548l-47 48l199 199v-869h-68v705z" />
    <glyph glyph-name="cid4772" unicode="&#x4ee1;" 
d="M146 549l-48 48l200 199v-869h-68v705zM496 818l59 -33l-58 -103h500v-68h-614zM1000 9v-68h-610l418 470h-403v68h556l-418 -470h457z" />
    <glyph glyph-name="cid1405" unicode="&#x4ee3;" 
d="M534 799l66 13q34 -190 57 -284l332 43l10 -68l-324 -42q92 -321 300 -502l-45 -52q-126 109 -201.5 244.5t-121.5 301.5l-275 -35l-9 68l266 34q-25 104 -55 279zM138 545l-48 48l200 203v-886h-68v720zM850 782h68v-141h-68v141z" />
    <glyph glyph-name="cid2615" unicode="&#x4ee4;" 
d="M234 38l13 66l343 -68q70 50 151.5 145t112.5 175h-680v68h357v136h68v-136h340q-17 -94 -96.5 -209.5t-167.5 -195.5l197 -38l-13 -67zM185 460l-55 40l153 205q36 48 72.5 71t98.5 23h221q62 0 98.5 -23t72.5 -71q22 -30 74.5 -99t78.5 -106l-55 -40l-154 204
q-24 34 -49 50t-66 16h-221q-41 0 -66 -16t-49 -50z" />
    <glyph glyph-name="cid4187" unicode="&#x4ee5;" 
d="M730 801l68 -11q-22 -134 -58 -280l260 -562l-62 -30l-227 488q-83 -283 -225 -490l-55 39q211 303 299 846zM386 5v-68h-124q-52 0 -89 37t-37 89v725h68v-725q0 -24 16.5 -41t41.5 -17h124zM322 633l67 13l75 -380l-66 -13z" />
    <glyph glyph-name="cid4771" unicode="&#x4ee8;" 
d="M136 527l-48 50l207 199v-865h-68v704zM377 637v69h600v-69h-600zM362 -65v68h638v-68h-638zM404 302v68h554v-68h-554z" />
    <glyph glyph-name="cid4174" unicode="&#x4eea;" 
d="M353 686l54 42l300 -386q122 195 188 458l66 -16q-72 -287 -210 -499l248 -319l-53 -43l-236 304q-131 -179 -312 -297l-37 57q181 119 306 295zM152 552l-50 46l197 209v-884h-68v712zM717 563h-68v222h68v-222z" />
    <glyph glyph-name="cid4773" unicode="&#x4eeb;" 
d="M158 532l-48 48l215 213v-876h-68v713zM585 802l67 -18q-82 -295 -203 -455l-55 40q116 154 191 433zM931 259h68v-219q0 -44 -31.5 -76t-75.5 -32h-475l404 817l61 -29l-356 -720h366q16 0 27.5 11.5t11.5 28.5v219z" />
    <glyph glyph-name="cid2764" unicode="&#x4eec;" 
d="M159 548l-47 48l200 199v-869h-68v705zM735 -71v69h139q25 0 41.5 16.5t16.5 41.5v602q0 24 -16.5 41t-41.5 17h-289v68h289q52 0 89 -37t37 -89v-602q0 -52 -37 -89.5t-89 -37.5h-139zM441 608h68v-682h-68v682zM441 790h68v-119h-68v119z" />
    <glyph glyph-name="cid10167" unicode="&#x4eee;" 
d="M1000 -50l-51 -46l-193 217q-87 -107 -223 -217l-43 54q132 104 222 213l-234 263l-27 -527l-68 4l40 776q3 52 40 88.5t89 36.5h421v-69h-421q-25 0 -42.5 -17t-18.5 -42l-6 -111h490q-47 -218 -176 -397zM137 474l-53 40l222 291v-900h-69v701zM890 505h-383l247 -279
q95 132 136 279z" />
    <glyph glyph-name="cid4127" unicode="&#x4ef0;" 
d="M156 548l-50 48l195 203v-873h-68v702q-8 -9 -24.5 -25.5t-29.5 -30t-23 -24.5zM616 69v-68h-91q-52 0 -89 37t-37 89v515q0 52 37 89t89 37h132v-69h-132q-24 0 -41 -16.5t-17 -40.5v-515q0 -24 17 -41t41 -17h91zM759 -79h-68v745q0 44 32 76t76 32h93q44 0 75.5 -32
t31.5 -76v-550q0 -44 -31.5 -75.5t-75.5 -31.5h-62v68h62q16 0 27.5 11.5t11.5 27.5v550q0 17 -11.5 28.5t-27.5 11.5h-93q-17 0 -28.5 -12t-11.5 -28v-745z" />
    <glyph glyph-name="cid4568" unicode="&#x4ef2;" 
d="M670 791h68v-96h136q52 0 89 -36.5t37 -89.5v-400q0 -52 -37 -89t-89 -37h-136v-118h-68v118h-134q-52 0 -89 37t-37 89v400q0 53 37 89.5t89 36.5h134v96zM874 627h-136v-516h136q24 0 41 16.5t17 41.5v400q0 24 -17 41t-41 17zM536 111h134v516h-134q-24 0 -41 -17
t-17 -41v-400q0 -25 17 -41.5t41 -16.5zM166 547l-48 48l200 199v-869h-68v705z" />
    <glyph glyph-name="cid4776" unicode="&#x4ef3;" 
d="M676 -3v-68h-118q-52 0 -89 37t-37 89v732h68v-189h190v-68h-190v-475q0 -24 17 -41t41 -17h118zM985 -3v-68h-118q-52 0 -88.5 37t-36.5 89v732h68v-189h189v-68h-189v-475q0 -24 17 -41t40 -17h118zM144 546l-44 51l221 191v-863h-68v713z" />
    <glyph glyph-name="cid4779" unicode="&#x4ef5;" 
d="M358 256v68h290v295h-262l61 197l64 -20l-33 -109h511v-68h-272v-295h282v-68h-282v-329h-69v329h-290zM150 550l-48 47l200 199v-868h-68v704z" />
    <glyph glyph-name="cid2161" unicode="&#x4ef6;" 
d="M362 168v68h290v301h-270l103 252l63 -26l-66 -158h170v211h68v-211h265v-68h-265v-301h280v-68h-280v-262h-68v262h-290zM156 550l-48 47l199 199v-865h-69v701z" />
    <glyph glyph-name="cid2126" unicode="&#x4ef7;" 
d="M157 544l-49 46l191 209v-895h-68v721q-15 -15 -39.5 -43t-34.5 -38zM441 497l-59 35l104 170q26 43 53 63t74 20h156q47 0 74 -20t53 -63l-1 1l105 -170l-57 -37l-106 171q-16 26 -31 38t-37 12h-156q-38 0 -68 -49zM472 444h68v-283q0 -178 -155 -244l-26 62
q113 49 113 182v283zM833 441h68v-533h-68v533z" />
    <glyph glyph-name="cid3241" unicode="&#x4efb;" 
d="M386 666l-4 68l585 27l4 -68l-262 -13v-277h290v-68h-290v-330h271v-68h-606v68h266v330h-291v68h291v274zM135 550l-49 46l191 203v-872h-68v701z" />
    <glyph glyph-name="cid1658" unicode="&#x4efd;" 
d="M720 -79v68h104q23 0 39 16.5t16 41.5v247q0 23 -16.5 40t-38.5 17h-257q-30 -261 -158 -441l-55 38q116 166 144 403h-121v68h447q51 0 87 -36.5t36 -88.5v-247q0 -52 -36.5 -89t-86.5 -37h-104zM139 549l-49 48l190 198v-879h-68v707zM531 818l65 -23
q-75 -207 -192 -357l-53 42q107 138 180 338zM744 783l59 33l197 -347l-58 -33z" />
    <glyph glyph-name="cid1631" unicode="&#x4eff;" 
d="M346 643v68h294v108h68v-108h292v-68h-462q-3 -79 -9 -155h317q52 0 89 -37t37 -89v-310q0 -52 -37 -88.5t-89 -36.5h-107v68h107q24 0 41 17t17 40v310q0 24 -17 41t-41 17h-323q-31 -337 -114 -513l-63 29q103 220 124 707h-124zM142 543l-50 46l191 202v-879h-68v708
q-59 -62 -73 -77z" />
    <glyph glyph-name="cid3090" unicode="&#x4f01;" 
d="M514 589h68v-241h342v-68h-342v-278h396v-68h-879v68h123v405h69v-405h223v587zM131 461l-53 42l163 204q37 47 76 69.5t102 22.5h238q63 0 102 -22.5t76 -69.5l164 -204l-53 -42l-164 204q-27 34 -53.5 50t-71.5 16h-238q-44 0 -71 -16t-54 -50z" />
    <glyph glyph-name="cid4782" unicode="&#x4f09;" 
d="M997 -16v-68h-43q-45 0 -77.5 32t-32.5 78v374q0 26 -17.5 43t-43.5 17h-234q-24 0 -40.5 -17.5t-20.5 -44.5l-34 -492l-68 3l34 493q6 53 41.5 89.5t87.5 36.5h234q53 0 91 -37.5t38 -90.5v-374q0 -17 12.5 -29.5t29.5 -12.5h43zM146 539l-50 46l195 207v-884h-68v713
q-10 -11 -36.5 -39.5t-40.5 -42.5zM651 792h68v-84h280v-68h-629v68h281v84z" />
    <glyph glyph-name="cid4168" unicode="&#x4f0a;" 
d="M345 471v69h213q8 87 9 184h-195v68h438q52 0 89.5 -37t37.5 -89v-126h46v-69h-46v-121q0 -52 -37.5 -89t-89.5 -37h-240q-60 -197 -171 -310l-48 47q94 96 148 263h-127v68h146q21 82 33 179h-206zM107 543l-49 46l211 224v-903h-68v730zM810 292q25 0 41.5 17t16.5 41
v121h-249q-12 -98 -31 -179h222zM810 724h-175q-2 -97 -9 -184h242v126q0 24 -16.5 41t-41.5 17z" />
    <glyph glyph-name="cid3832" unicode="&#x4f0d;" 
d="M338 712v68h650v-68h-339l-35 -236h189q52 0 89 -37t37 -89v-346h70v-68h-671v68h146l61 404h-166v68h176l35 236h-242zM803 408h-199l-60 -404h317v346q0 24 -17 41t-41 17zM124 542l-50 48l195 203v-863h-68v692q-41 -41 -77 -80z" />
    <glyph glyph-name="cid2098" unicode="&#x4f0e;" 
d="M636 791h68v-104h296v-68h-296v-155h269q-73 -199 -213 -330l230 -163l-38 -55l-244 174q-140 -111 -341 -162l-16 66q173 42 303 135l-268 191l38 55l284 -203q106 92 165 224h-493v68h256v155h-296v68h296v104zM137 528l-47 48l199 199v-846h-68v683z" />
    <glyph glyph-name="cid1689" unicode="&#x4f0f;" 
d="M615 819l68 -2q-3 -131 -24 -254h340v-68h-297l290 -542l-61 -31l-291 543q-71 -317 -248 -547l-53 42q170 222 238 535h-241v68h254q22 130 25 256zM139 545l-49 46l195 208v-873h-68v701q-9 -9 -36 -38t-42 -44zM860 777h68v-146h-68v146z" />
    <glyph glyph-name="cid1602" unicode="&#x4f10;" 
d="M514 794l66 13q23 -119 55 -222h365v-68h-344q45 -133 113 -260q100 87 167 181l55 -40q-75 -104 -187 -201q84 -137 192 -239l-48 -50q-111 105 -198 245q-166 -132 -343 -198l-24 64q167 63 332 193q-79 144 -131 305h-232v68h212q-28 94 -50 209zM146 524l-50 47
l196 204v-850h-68v680zM871 785h68v-142h-68v142z" />
    <glyph glyph-name="cid4008" unicode="&#x4f11;" 
d="M653 788h69v-104h278v-68h-278v-692h-69v692h-277v68h277v104zM159 529l-49 46l195 208v-879h-68v708zM524 574l68 -9q-67 -455 -170 -652l-61 31q99 188 163 630zM780 559l67 17l152 -639l-66 -17z" />
    <glyph glyph-name="cid4569" unicode="&#x4f17;" 
d="M196 440l-55 39l143 204q35 49 71.5 72t98.5 23h223q61 0 97 -23t73 -72l144 -204l-56 -39l-143 205v-1q-26 34 -50 50t-65 16h-223q-41 0 -66 -15.5t-49 -49.5zM772 517l68 -8q-10 -84 -29 -168l188 -382l-61 -29l-153 312q-55 -174 -156 -311l-55 40q78 108 127 238.5
t71 307.5zM322 517l68 -8q-10 -86 -29 -169l188 -381l-61 -29l-153 311q-55 -173 -156 -310l-55 40q78 108 127 238.5t71 307.5z" />
    <glyph glyph-name="cid4266" unicode="&#x4f18;" 
d="M998 -2v-68h-153q-52 0 -89 37t-37 89v515h-116q-49 -422 -185 -647l-59 35q128 212 175 612h-175v69h182q8 76 13 175l68 -3q-5 -91 -12 -172h263q25 0 41.5 16.5t16.5 40.5v60h69v-60q0 -52 -37.5 -89t-89.5 -37h-86v-515q0 -24 17 -41t41 -17h153zM162 549l-48 48
l190 192v-864h-68v699z" />
    <glyph glyph-name="cid2052" unicode="&#x4f19;" 
d="M999 -46l-56 -39l-267 377q-33 -124 -97 -209t-177 -169l-41 55q90 67 143 130t89 160.5t49 227t13 329.5h69q-2 -285 -28 -434zM138 546l-46 50l210 198v-870h-68v711zM873 330l-62 29q77 166 95 408l68 -5q-21 -260 -101 -432zM544 348l-66 -13l-87 420l67 13z" />
    <glyph glyph-name="cid2038" unicode="&#x4f1a;" 
d="M112 232v68h887v-68h-699l-47 -231h576q24 0 41 17t17 41v83h68v-83q0 -52 -37 -89t-89 -37h-658l60 299h-119zM173 516l-51 44l134 153q32 37 64.5 54.5t85.5 17.5h292q54 0 86 -17t65 -55l134 -153l-52 -44l-134 153q-41 48 -99 48h-292q-35 0 -56.5 -11.5t-41.5 -36.5
zM144 420v68h823v-68h-823z" />
    <glyph glyph-name="cid4775" unicode="&#x4f1b;" 
d="M1000 -2v-68h-459q-52 0 -89 36.5t-37 88.5v588q0 52 37 89t89 37h459v-68h-459q-24 0 -41 -17t-17 -41v-588q0 -24 17 -40.5t41 -16.5h459zM985 115l-56 -40l-144 195q-85 -110 -191 -201l-44 52q106 89 192 206l-178 242l55 41l165 -223q69 106 122 225l63 -27
q-63 -143 -142 -257zM154 535l-46 50l209 194v-856h-68v700z" />
    <glyph glyph-name="cid3290" unicode="&#x4f1e;" 
d="M524 569h68v-405h407v-68h-407v-172h-68v172h-406v68h406v405zM175 485l-53 42l138 177q34 42 68.5 61.5t93.5 19.5h272q58 0 92.5 -19.5t69.5 -61.5l138 -178l-53 -40l-137 176l1 -2q-26 30 -49.5 43.5t-61.5 13.5h-272q-38 0 -62 -14t-47 -42zM825 470l68 -9
q-18 -131 -82 -250l-61 32q56 105 75 227zM207 459l64 20l78 -237l-64 -20z" />
    <glyph glyph-name="cid3775" unicode="&#x4f1f;" 
d="M623 785h68v-82h308v-68h-308v-105h285v-68h-285v-113h186q44 0 76 -31.5t32 -75.5v-197q0 -44 -32 -76t-76 -32h-78v68h78q17 0 28.5 11.5t11.5 28.5v197q0 16 -11.5 27.5t-28.5 11.5h-186v-360h-68v360h-254v68h254v113h-246v68h246v105h-258v68h258v82zM134 543
l-44 52l208 183v-857h-68v708z" />
    <glyph glyph-name="cid1326" unicode="&#x4f20;" 
d="M557 805l66 -17l-22 -85h399v-68h-417l-29 -110h446v-68h-464l-47 -181h469l-59 -275h86v-68h-561v68h405l44 207h-472l65 249h-94v68h112l28 110h-140v68h158zM148 545l-46 50l199 188v-862h-68v705z" />
    <glyph glyph-name="cid4777" unicode="&#x4f22;" 
d="M396 713v68h604v-68h-70v-264h70v-69h-70v-331q0 -52 -37 -89t-89 -37h-141v68h141q24 0 41 17t17 41v331h-247q-58 -294 -180 -457l-55 41q111 148 166 416h-142l41 237l66 -11l-28 -157h379v264h-466zM148 544l-46 50l198 188v-862h-68v704q-60 -58 -84 -80z" />
    <glyph glyph-name="cid3332" unicode="&#x4f24;" 
d="M599 567l68 -9q-6 -44 -17 -104h206q52 0 89 -37t37 -89v-277q0 -52 -37 -89t-89 -37h-117v68h117q25 0 41.5 17t16.5 41v277q0 24 -16.5 41t-41.5 17h-219q-68 -302 -215 -464l-50 46q131 143 195 418h-183v68h197q10 53 18 113zM146 545l-46 50l199 188v-861h-68v704z
M452 809l65 -20l-34 -110h516v-68h-607z" />
    <glyph glyph-name="cid4780" unicode="&#x4f25;" 
d="M944 773l37 -57q-185 -122 -443 -181v-106h455v-68h-204l211 -409l-61 -31l-227 440h-174v-309q0 -24 17 -41t41 -17h99v-68h-99q-52 0 -89 37t-37 89v309h-111v68h111v356h68v-180q236 57 406 168zM146 544l-46 50l199 188v-861h-68v704z" />
    <glyph glyph-name="cid2686" unicode="&#x4f26;" 
d="M962 421l32 -61q-224 -114 -509 -159v-149q0 -24 17 -41t41 -17h456v-68h-456q-52 0 -89 37t-37 89v409h68v-190q268 45 477 150zM150 544l-46 50l198 188v-862h-68v704q-13 -12 -42 -40t-42 -40zM436 495l-59 35l104 170q27 43 53.5 63t73.5 20h157q47 0 73 -20t53 -63
v1l104 -171l-57 -36l-105 170q-17 27 -31 38.5t-37 11.5h-157q-38 0 -68 -49z" />
    <glyph glyph-name="cid4781" unicode="&#x4f27;" 
d="M154 550l-46 50l198 187v-861h-69v704zM440 501l-59 35l104 170q27 43 53.5 63t73.5 20h156q47 0 73.5 -20t53.5 -63l-1 1l105 -171l-57 -36l-106 170q-16 26 -30.5 38t-37.5 12h-156q-38 0 -68 -49zM681 158v68h190q9 0 15.5 6.5t6.5 15.5v138q0 9 -6.5 15t-15.5 6h-318
q-24 0 -41 -17t-17 -41v-293q0 -24 17 -41t41 -17h443v-68h-443q-52 0 -89 37t-37 89v293q0 52 37 89t89 37h318q37 0 63.5 -26.5t26.5 -62.5v-138q0 -37 -26.5 -63.5t-63.5 -26.5h-190z" />
    <glyph glyph-name="cid3776" unicode="&#x4f2a;" 
d="M681 817l68 -8q-13 -123 -31 -220h156q52 0 89 -37.5t37 -89.5v-412q0 -52 -37 -89t-89 -37h-109v68h109q25 0 41.5 17t16.5 41v412q0 25 -16.5 41.5t-41.5 16.5h-169q-84 -400 -249 -608l-54 43q155 193 233 565h-251v69h265q20 112 32 228zM160 551l-46 49l197 187
v-865h-68v709zM800 173h-68v181h68v-181zM514 648h-68v140h68v-140z" />
    <glyph glyph-name="cid4783" unicode="&#x4f2b;" 
d="M988 447h-68v142q0 24 -17 41t-41 17h-341q-23 0 -40 -17t-17 -41v-142h-68v142q0 53 36 89.5t89 36.5h137v73h68v-73h136q52 0 89 -37t37 -89v-142zM144 526l-46 50l209 190v-840h-68v688zM383 -59v68h617v-68h-617z" />
    </font>
</defs>
</svg>
